<?xml version="1.0"?>
<svg xmlns="http://www.w3.org/2000/svg" version="1.2" baseProfile="tiny-ps" viewBox="0 0 496 406" width="496" height="406">
	<title>2408149-ai</title>
	<style>
		tspan { white-space:pre }
		.shp0 { fill: #0de965 } 
		.shp1 { fill: #ffb07a } 
		.shp2 { fill: #dd8b52 } 
		.shp3 { fill: #ffffff } 
		.shp4 { fill: #dbc2be } 
		.shp5 { fill: #3f3634 } 
		.shp6 { fill: #ff6b4a } 
		.shp7 { fill: #82473e } 
		.shp8 { fill: #006580 } 
		.shp9 { fill: #cf5a45 } 
		.shp10 { fill: #9e341f } 
		.shp11 { fill: #ffd3a4 } 
		.shp12 { fill: #55062c } 
		.shp13 { fill: #3f0727 } 
		.shp14 { fill: #ffa07f } 
		.shp15 { fill: #ff7d6f } 
		.shp16 { fill: #d54f70 } 
		.shp17 { fill: #fbebde } 
		.shp18 { fill: #414156 } 
		.shp19 { fill: #ffbf90 } 
		.shp20 { fill: #cf4a57 } 
		.shp21 { fill: #fc5b68 } 
		.shp22 { fill: #6f0a32 } 
		.shp23 { fill: #b3314f } 
		.shp24 { fill: #b23c5c } 
		.shp25 { fill: #6d5b89 } 
		.shp26 { fill: #584979 } 
		.shp27 { fill: #187e94 } 
		.shp28 { fill: #bb7344 } 
	</style>
	<g id="OBJECTS">
		<g id="&lt;Group&gt;">
			<g id="&lt;Group&gt;">
				<g id="&lt;Group&gt;">
					<path id="&lt;Compound Path&gt;" fill-rule="evenodd" class="shp0" d="M469.48 285.93C462.45 299.56 414.48 337.82 349.53 356.87C348.96 357.1 348.39 357.32 347.82 357.56C345.55 358.47 343.29 359.38 341.04 360.28C338.78 361.18 336.46 361.91 334.18 362.72C333.04 363.12 331.9 363.52 330.77 363.91C330.19 364.11 329.63 364.32 329.06 364.49L327.32 365C308.95 370.67 290.31 373.97 272.1 374.89C270.99 374.99 269.75 374.99 268.56 375.02C267.38 375.02 266.21 374.98 265.04 374.94C263.89 374.87 262.73 374.82 261.59 374.73C260.45 374.62 259.31 374.53 258.18 374.41C253.67 373.93 249.28 373.24 244.94 372.46C236.27 370.9 227.89 368.91 219.72 366.78C203.38 362.46 187.9 357.43 173.23 352.06C158.57 346.68 144.73 340.95 131.75 334.97C105.82 323.01 83.32 310.09 65.06 296.64C55.92 289.92 47.9 283.03 41.06 276.13C34.28 269.17 28.66 262.23 24.52 255.39C22.38 252.01 20.73 248.61 19.27 245.38C18.62 243.74 17.96 242.15 17.43 240.59C17.18 239.8 16.94 239.02 16.7 238.26C16.58 237.88 16.46 237.5 16.35 237.13C16.24 236.75 16.16 236.37 16.07 235.99C14.56 230.03 14.26 224.78 14.45 220.6C14.59 218.66 14.8 216.96 15.05 215.47C5.16 195.95 3.6 176.6 15.2 158.97C29.35 137.45 44.96 116.79 62.42 97.68C98 58.75 142.91 24.64 196.29 13.41C226.11 7.13 256.97 8.79 286.21 17.05C327.22 28.63 358.72 58.25 389.53 84.94C410.34 102.97 430.83 121.28 448.33 142.46C455.05 150.6 461.52 159.05 467.6 167.87C473.68 176.71 479.43 185.86 484.37 195.68C488.36 203.61 493.61 213.28 490.74 222.29C490.74 222.3 490.63 222.65 490.41 223.35L489.73 225.45C489.23 226.81 488.68 228.09 488.15 229.41C483.58 239.58 477.78 248.64 471.61 257.36C470.97 258.25 470.33 259.13 469.69 260.01C471.63 272.78 471.52 281.98 469.48 285.93ZM402.52 106.89C438.72 155.73 459.6 211.37 467.46 247.95L468.71 246.08C470.17 243.95 471.46 241.73 472.84 239.55C475.45 235.14 477.96 230.63 479.97 226.05C480.42 224.91 480.92 223.76 481.33 222.63L481.87 220.95L482.14 220.11L482.3 219.35L482.46 218.58C482.51 218.34 482.6 218.04 482.58 217.9L482.61 217.36L482.56 216.67C482.56 216.46 482.52 216.19 482.47 215.93L482.35 215.15L481.98 213.49C481.4 211.22 480.52 208.86 479.57 206.53C478.62 204.19 477.51 201.86 476.36 199.54C471.7 190.27 466.12 181.36 460.22 172.77C454.31 164.17 447.99 155.9 441.42 147.93C429.26 133.2 416.22 119.48 402.52 106.89ZM191.68 351.16C140.88 329.14 46.14 273.06 16.3 217.87C16.27 218.73 16.25 219.65 16.25 220.62C16.35 224.67 16.92 229.66 18.63 235.3C18.73 235.65 18.82 236.01 18.94 236.37C19.07 236.72 19.2 237.08 19.33 237.44C19.59 238.16 19.85 238.89 20.12 239.63C20.7 241.11 21.38 242.61 22.07 244.16C23.6 247.2 25.29 250.4 27.47 253.59C31.67 260.04 37.31 266.61 44.09 273.2C50.92 279.75 58.92 286.31 68.03 292.71C86.22 305.54 108.63 317.91 134.43 329.38C147.33 335.11 161.09 340.6 175.64 345.76C180.88 347.61 186.23 349.41 191.68 351.16Z"/>
				</g>
			</g>
			<g id="&lt;Group&gt;">
				<g id="&lt;Group&gt;">
					<g id="&lt;Group&gt;">
						<g id="&lt;Group&gt;">
							<g id="&lt;Group&gt;">
								<g id="&lt;Group&gt;">
									<path id="&lt;Path&gt;" class="shp1" d="M268.74 175.35L268.74 339.85L67.22 339.85L67.22 175.35L268.74 175.35Z"/>
								</g>
								<g id="&lt;Group&gt;" style="opacity: 0.4;mix-blend-mode: screen">
									<g id="&lt;Group&gt;">
										<path id="&lt;Path&gt;" class="shp1" d="M226.98 187.54L67.22 187.54L67.22 185.06L226.98 185.06C228.56 185.06 228.56 187.54 226.98 187.54Z"/>
										<path id="&lt;Path&gt;" class="shp1" d="M200.28 193.75L104.07 193.75C102.47 193.75 102.47 196.23 104.07 196.23L200.28 196.23C201.88 196.23 201.88 193.75 200.28 193.75Z"/>
										<path id="&lt;Path&gt;" class="shp1" d="M268.74 185.68L268.74 188.17L247.39 188.17C245.77 188.17 245.8 185.68 247.39 185.68L268.74 185.68Z"/>
										<path id="&lt;Path&gt;" class="shp1" d="M253.67 194.37L220.15 194.37C218.55 194.37 218.55 196.86 220.15 196.86L253.67 196.86C255.26 196.86 255.27 194.37 253.67 194.37Z"/>
										<path id="&lt;Path&gt;" class="shp1" d="M73.65 197.48L67.22 197.48L67.22 194.99L73.65 194.99C75.24 194.99 75.24 197.48 73.65 197.48Z"/>
										<path id="&lt;Path&gt;" class="shp1" d="M135.73 208.97L67.22 208.97L67.22 206.49L135.73 206.49C137.32 206.49 137.32 208.97 135.73 208.97Z"/>
										<path id="&lt;Path&gt;" class="shp1" d="M268.74 205.84L268.74 208.33L181.34 208.33C179.75 208.33 179.75 205.84 181.34 205.84L268.74 205.84Z"/>
										<path id="&lt;Path&gt;" class="shp1" d="M169.87 205.86L161.49 205.86C159.89 205.86 159.89 208.34 161.49 208.34L169.87 208.34C171.47 208.34 171.47 205.86 169.87 205.86Z"/>
										<path id="&lt;Path&gt;" class="shp1" d="M116.78 220.74L67.22 220.74L67.22 218.26L116.78 218.26C118.4 218.26 118.4 220.74 116.78 220.74Z"/>
										<path id="&lt;Path&gt;" class="shp1" d="M194.39 218.58L137.9 218.58C136.3 218.58 136.3 221.06 137.9 221.06L194.39 221.06C195.98 221.06 195.99 218.58 194.39 218.58Z"/>
										<path id="&lt;Path&gt;" class="shp1" d="M221.7 217.96L210.22 217.96C208.62 217.96 208.62 220.44 210.22 220.44L221.7 220.44C223.3 220.44 223.3 217.96 221.7 217.96Z"/>
										<path id="&lt;Path&gt;" class="shp1" d="M268.74 217.96L268.74 220.44L245.3 220.44C243.69 220.44 243.69 217.96 245.3 217.96L268.74 217.96Z"/>
										<path id="&lt;Path&gt;" class="shp1" d="M268.74 235.96L268.74 238.44L177.32 238.44C175.73 238.44 175.73 235.96 177.32 235.96L268.74 235.96Z"/>
										<path id="&lt;Path&gt;" class="shp1" d="M106.55 240.61L67.22 240.61L67.22 238.12L106.55 238.12C108.14 238.12 108.14 240.61 106.55 240.61Z"/>
										<path id="&lt;Path&gt;" class="shp1" d="M122.07 228.82L87.93 228.82C86.33 228.82 86.33 231.31 87.93 231.31L122.07 231.31C123.67 231.31 123.67 228.82 122.07 228.82Z"/>
										<path id="&lt;Path&gt;" class="shp1" d="M157.45 235.65L139.14 235.65C137.54 235.65 137.54 238.13 139.14 238.13L157.45 238.13C159.05 238.13 159.05 235.65 157.45 235.65Z"/>
										<path id="&lt;Path&gt;" class="shp1" d="M103.45 249.31L78.62 249.31C77.02 249.31 77.02 251.79 78.62 251.79L103.45 251.79C105.05 251.79 105.05 249.31 103.45 249.31Z"/>
										<path id="&lt;Path&gt;" class="shp1" d="M221.39 249.31L133.86 249.31C132.27 249.31 132.26 251.79 133.86 251.79L221.39 251.79C222.99 251.79 222.99 249.31 221.39 249.31Z"/>
										<path id="&lt;Path&gt;" class="shp1" d="M254.91 248.07L235.36 248.07C233.76 248.07 233.76 250.55 235.36 250.55L254.91 250.55C256.51 250.55 256.51 248.07 254.91 248.07Z"/>
										<path id="&lt;Path&gt;" class="shp1" d="M121.15 262.36L67.22 262.36L67.22 259.87L121.15 259.87C122.74 259.87 122.74 262.36 121.15 262.36Z"/>
										<path id="&lt;Path&gt;" class="shp1" d="M179.18 258.62L136.04 258.62C134.44 258.62 134.44 261.1 136.04 261.1L179.18 261.1C180.78 261.1 180.78 258.62 179.18 258.62Z"/>
										<path id="&lt;Path&gt;" class="shp1" d="M260.18 258.31L197.8 258.31C196.2 258.31 196.2 260.79 197.8 260.79L260.18 260.79C261.78 260.79 261.79 258.31 260.18 258.31Z"/>
										<path id="&lt;Path&gt;" class="shp1" d="M87.63 273.21L67.22 273.21L67.22 270.72L87.63 270.72C89.22 270.72 89.22 273.21 87.63 273.21Z"/>
										<path id="&lt;Path&gt;" class="shp1" d="M147.52 270.41L100.66 270.41C99.06 270.41 99.05 272.9 100.66 272.9L147.52 272.9C149.12 272.9 149.12 270.41 147.52 270.41Z"/>
										<path id="&lt;Path&gt;" class="shp1" d="M183.52 268.24L163.35 268.24C161.75 268.24 161.75 270.72 163.35 270.72L183.52 270.72C185.12 270.72 185.12 268.24 183.52 268.24Z"/>
										<path id="&lt;Path&gt;" class="shp1" d="M268.74 271.64L268.74 274.13L199.66 274.13C198.07 274.13 198.07 271.64 199.66 271.64L268.74 271.64Z"/>
										<path id="&lt;Path&gt;" class="shp1" d="M128.28 283.76L67.22 283.76L67.22 281.28L128.28 281.28C129.87 281.28 129.87 283.76 128.28 283.76Z"/>
										<path id="&lt;Path&gt;" class="shp1" d="M168.01 281.9L150 281.9C148.41 281.9 148.4 284.38 150 284.38L168.01 284.38C169.6 284.38 169.61 281.9 168.01 281.9Z"/>
										<path id="&lt;Path&gt;" class="shp1" d="M268.74 286.86L268.74 289.35L190.67 289.35C189.06 289.35 189.06 286.86 190.67 286.86L268.74 286.86Z"/>
										<path id="&lt;Path&gt;" class="shp1" d="M120.21 297.71L67.22 297.71L67.22 295.23L120.21 295.23C121.8 295.23 121.8 297.71 120.21 297.71Z"/>
										<path id="&lt;Path&gt;" class="shp1" d="M145.97 296.17L129.52 296.17C127.92 296.17 127.92 298.66 129.52 298.66L145.97 298.66C147.57 298.66 147.57 296.17 145.97 296.17Z"/>
										<path id="&lt;Path&gt;" class="shp1" d="M268.74 301.14L268.74 303.62L183.23 303.62C181.61 303.62 181.61 301.14 183.23 301.14L268.74 301.14Z"/>
										<path id="&lt;Path&gt;" class="shp1" d="M145.04 310.77L67.22 310.77L67.22 308.29L145.04 308.29C146.63 308.29 146.63 310.77 145.04 310.77Z"/>
										<path id="&lt;Path&gt;" class="shp1" d="M91.95 325.97L67.22 325.97L67.22 323.49L91.95 323.49C93.57 323.49 93.57 325.97 91.95 325.97Z"/>
										<path id="&lt;Path&gt;" class="shp1" d="M130.45 322.87L104.69 322.87C103.09 322.87 103.09 325.35 104.69 325.35L130.45 325.35C132.05 325.35 132.05 322.87 130.45 322.87Z"/>
										<path id="&lt;Path&gt;" class="shp1" d="M245.6 316.97L155.28 316.97C153.68 316.97 153.68 319.45 155.28 319.45L245.6 319.45C247.2 319.45 247.2 316.97 245.6 316.97Z"/>
										<path id="&lt;Path&gt;" class="shp1" d="M268.74 311.37L268.74 313.85L264.22 313.85C262.63 313.85 262.63 311.37 264.22 311.37L268.74 311.37Z"/>
										<path id="&lt;Path&gt;" class="shp1" d="M217.66 330L170.8 330C169.2 330 169.2 332.49 170.8 332.49L217.66 332.49C219.26 332.49 219.26 330 217.66 330Z"/>
										<path id="&lt;Path&gt;" class="shp1" d="M268.74 327.83L268.74 330.31L248.38 330.31C246.79 330.31 246.79 327.83 248.38 327.83L268.74 327.83Z"/>
									</g>
								</g>
							</g>
							<g id="&lt;Group&gt;">
								<g id="&lt;Group&gt;">
									<path id="&lt;Path&gt;" class="shp2" d="M154.14 339.85L149.8 339.85L149.8 175.35L154.14 175.35L154.14 339.85Z"/>
								</g>
								<g id="&lt;Group&gt;">
									<path id="&lt;Path&gt;" class="shp2" d="M138.83 197.25L123.31 197.25L123.31 192.49L138.83 192.49L138.83 197.25Z"/>
									<path id="&lt;Path&gt;" class="shp2" d="M180.63 197.25L165.11 197.25L165.11 192.49L180.63 192.49L180.63 197.25Z"/>
								</g>
							</g>
						</g>
						<g id="&lt;Group&gt;">
							<path id="&lt;Path&gt;" class="shp3" d="M428.51 339.85L268.74 339.85L268.74 165.05L428.51 165.05L428.51 339.85Z"/>
						</g>
						<g id="&lt;Group&gt;">
							<g id="&lt;Group&gt;">
								<g id="&lt;Group&gt;">
									<path id="&lt;Path&gt;" class="shp4" d="M428.51 175.35L58.74 175.35L58.74 165.05L428.51 165.05L428.51 175.35Z"/>
								</g>
							</g>
						</g>
						<g id="&lt;Group&gt;">
							<g id="&lt;Group&gt;">
								<g id="&lt;Group&gt;">
									<g id="&lt;Group&gt;">
										<g id="&lt;Group&gt;">
											<path id="&lt;Compound Path&gt;" fill-rule="evenodd" class="shp5" d="M392.55 198.26C389.73 198.26 387.43 195.96 387.43 193.14C387.43 190.31 389.73 188.01 392.55 188.01C395.38 188.01 397.67 190.31 397.67 193.14C397.67 195.96 395.38 198.26 392.55 198.26ZM392.55 190.5C391.1 190.5 389.91 191.68 389.91 193.14C389.91 194.59 391.1 195.77 392.55 195.77C394.01 195.77 395.19 194.59 395.19 193.14C395.19 191.68 394.01 190.5 392.55 190.5Z"/>
										</g>
									</g>
								</g>
								<g id="&lt;Group&gt;">
									<g id="&lt;Group&gt;">
										<g id="&lt;Group&gt;">
											<path id="&lt;Compound Path&gt;" fill-rule="evenodd" class="shp5" d="M374.7 198.26C371.87 198.26 369.58 195.96 369.58 193.14C369.58 190.31 371.87 188.01 374.7 188.01C377.52 188.01 379.82 190.31 379.82 193.14C379.82 195.96 377.52 198.26 374.7 198.26ZM374.7 190.5C373.24 190.5 372.06 191.68 372.06 193.14C372.06 194.59 373.24 195.77 374.7 195.77C376.15 195.77 377.34 194.59 377.34 193.14C377.34 191.68 376.15 190.5 374.7 190.5Z"/>
										</g>
									</g>
								</g>
								<g id="&lt;Group&gt;">
									<g id="&lt;Group&gt;">
										<g id="&lt;Group&gt;">
											<path id="&lt;Compound Path&gt;" fill-rule="evenodd" class="shp5" d="M356.84 198.26C354.02 198.26 351.72 195.96 351.72 193.14C351.72 190.31 354.02 188.01 356.84 188.01C359.67 188.01 361.96 190.31 361.96 193.14C361.96 195.96 359.67 198.26 356.84 198.26ZM356.84 190.5C355.39 190.5 354.2 191.68 354.2 193.14C354.2 194.59 355.39 195.77 356.84 195.77C358.3 195.77 359.48 194.59 359.48 193.14C359.48 191.68 358.3 190.5 356.84 190.5Z"/>
										</g>
									</g>
								</g>
								<g id="&lt;Group&gt;">
									<g id="&lt;Group&gt;">
										<g id="&lt;Group&gt;">
											<path id="&lt;Compound Path&gt;" fill-rule="evenodd" class="shp5" d="M410.41 198.26C407.58 198.26 405.29 195.96 405.29 193.14C405.29 190.31 407.58 188.01 410.41 188.01C413.23 188.01 415.53 190.31 415.53 193.14C415.53 195.96 413.23 198.26 410.41 198.26ZM410.41 190.5C408.95 190.5 407.77 191.68 407.77 193.14C407.77 194.59 408.95 195.77 410.41 195.77C411.86 195.77 413.05 194.59 413.05 193.14C413.05 191.68 411.86 190.5 410.41 190.5Z"/>
										</g>
									</g>
								</g>
							</g>
						</g>
						<g id="&lt;Group&gt;">
							<path id="&lt;Path&gt;" class="shp4" d="M428.51 328.45L268.74 328.45L268.74 324.42L428.51 324.42L428.51 328.45Z"/>
						</g>
						<g id="&lt;Group&gt;">
							<path id="&lt;Path&gt;" class="shp4" d="M414.29 218.93L414.29 300.87C414.29 305.56 410.49 309.36 405.82 309.36L291.43 309.36C290.74 309.36 290.04 309.28 289.37 309.08C285.67 308.19 282.94 304.84 282.94 300.87L282.94 218.93C282.94 214.24 286.74 210.46 291.43 210.46L405.82 210.46C409.45 210.46 412.53 212.72 413.74 215.92C414.09 216.84 414.29 217.86 414.29 218.93Z"/>
						</g>
						<g id="&lt;Group&gt;">
							<g id="&lt;Group&gt;" style="opacity: 0.4">
								<path id="&lt;Path&gt;" class="shp3" d="M387.99 210.46L289.37 309.08C285.67 308.19 282.94 304.84 282.94 300.87L282.94 269.85L342.33 210.46L387.99 210.46Z"/>
							</g>
							<g id="&lt;Group&gt;">
								<g id="&lt;Group&gt;" style="opacity: 0.4">
									<path id="&lt;Path&gt;" class="shp3" d="M414.29 218.93L414.29 239.74L344.67 309.36L320.31 309.36L413.74 215.92C414.09 216.84 414.29 217.86 414.29 218.93Z"/>
								</g>
								<g id="&lt;Group&gt;" style="opacity: 0.4">
									<path id="&lt;Path&gt;" class="shp3" d="M414.29 253.94L414.29 266.13L371.06 309.36L358.87 309.36L414.29 253.94Z"/>
								</g>
							</g>
						</g>
						<g id="&lt;Group&gt;">
							<g id="&lt;Group&gt;">
								<path id="&lt;Path&gt;" class="shp2" d="M337.89 165.05L278.09 165.05L278.09 156.51L337.89 156.51L337.89 165.05Z"/>
							</g>
							<g id="&lt;Group&gt;">
								<path id="&lt;Path&gt;" class="shp2" d="M419.16 165.05L359.36 165.05L359.36 156.51L419.16 156.51L419.16 165.05Z"/>
							</g>
						</g>
						<g id="&lt;Group&gt;">
							<g id="&lt;Group&gt;">
								<path id="&lt;Path&gt;" class="shp5" d="M367.84 156.51L410.03 156.51C414.72 156.51 418.52 152.7 418.52 148.01L418.52 144.28L359.34 144.28L359.34 148.01C359.34 152.7 363.15 156.51 367.84 156.51Z"/>
							</g>
							<g id="&lt;Group&gt;">
								<path id="&lt;Path&gt;" class="shp5" d="M325.14 136.68L367.39 150.29C368.53 150.66 369.75 150.03 370.12 148.89C370.49 147.74 369.86 146.52 368.72 146.15L326.47 132.54C325.33 132.17 324.11 132.8 323.74 133.94C323.37 135.09 324 136.31 325.14 136.68Z"/>
							</g>
						</g>
					</g>
					<g id="&lt;Group&gt;">
						<g id="&lt;Group&gt;">
							<g id="&lt;Group&gt;">
								<path id="&lt;Path&gt;" class="shp2" d="M278.09 54.54L278.09 81.88L284.96 81.88L284.96 54.54L278.09 54.54Z"/>
							</g>
							<g id="&lt;Group&gt;">
								<path id="&lt;Path&gt;" class="shp2" d="M367.7 54.54L367.7 81.88L374.57 81.88L374.57 54.54L367.7 54.54Z"/>
							</g>
							<g id="&lt;Group&gt;">
								<path id="&lt;Path&gt;" class="shp2" d="M278.09 81.88L278.09 75.01L374.57 75.01L374.57 81.88L278.09 81.88Z"/>
							</g>
						</g>
						<g id="&lt;Group&gt;">
							<g id="&lt;Group&gt;">
								<g id="&lt;Group&gt;">
									<path id="&lt;Path&gt;" class="shp6" d="M304.17 75.03L287.53 75.03L287.53 56.8C287.53 55.08 288.93 53.69 290.65 53.69L301.05 53.69C302.77 53.69 304.17 55.08 304.17 56.8L304.17 75.03Z"/>
								</g>
								<g id="&lt;Group&gt;">
									<path id="&lt;Path&gt;" class="shp7" d="M290.44 53.69L301.27 53.69L301.27 43.96L290.44 43.96L290.44 53.69Z"/>
								</g>
								<g id="&lt;Group&gt;">
									<path id="&lt;Path&gt;" class="shp5" d="M301.27 46.62L290.44 46.62L290.44 43.96L301.27 43.96L301.27 46.62Z"/>
								</g>
								<path id="&lt;Path&gt;" class="shp3" d="M301.89 61.49C301.89 63.51 299.19 65.14 295.85 65.14C292.51 65.14 289.81 63.51 289.81 61.49C289.81 59.48 292.51 57.84 295.85 57.84C299.19 57.84 301.89 59.48 301.89 61.49Z"/>
							</g>
							<g id="&lt;Group&gt;">
								<g id="&lt;Group&gt;">
									<path id="&lt;Path&gt;" class="shp8" d="M316.62 75.03L306.51 75.03L306.51 59.88L316.62 59.88L316.62 75.03Z"/>
								</g>
								<g id="&lt;Group&gt;">
									<path id="&lt;Path&gt;" class="shp5" d="M316.62 59.88L306.51 59.88L306.51 57.62C306.51 57.05 306.97 56.6 307.54 56.6L315.59 56.6C316.16 56.6 316.62 57.05 316.62 57.62L316.62 59.88Z"/>
								</g>
								<path id="&lt;Path&gt;" class="shp3" d="M315.12 67.07L308.01 67.07L308.01 63.55L315.12 63.55L315.12 67.07Z"/>
								<g id="&lt;Group&gt;">
									<path id="&lt;Path&gt;" class="shp5" d="M315.12 69.34L308.01 69.34L308.01 68.37L315.12 68.37L315.12 69.34Z"/>
								</g>
							</g>
							<g id="&lt;Group&gt;">
								<g id="&lt;Group&gt;">
									<path id="&lt;Path&gt;" class="shp9" d="M329.29 75.03L319.19 75.03L319.19 59.88L329.29 59.88L329.29 75.03Z"/>
								</g>
								<g id="&lt;Group&gt;">
									<path id="&lt;Path&gt;" class="shp5" d="M329.29 59.88L319.19 59.88L319.19 57.62C319.19 57.05 319.65 56.6 320.21 56.6L328.27 56.6C328.83 56.6 329.29 57.05 329.29 57.62L329.29 59.88Z"/>
								</g>
								<path id="&lt;Path&gt;" class="shp3" d="M327.79 67.07L320.68 67.07L320.68 63.55L327.79 63.55L327.79 67.07Z"/>
								<g id="&lt;Group&gt;">
									<path id="&lt;Path&gt;" class="shp5" d="M327.79 69.34L320.68 69.34L320.68 68.37L327.79 68.37L327.79 69.34Z"/>
								</g>
							</g>
							<g id="&lt;Group&gt;">
								<g id="&lt;Group&gt;">
									<path id="&lt;Path&gt;" class="shp10" d="M341.96 75.03L331.86 75.03L331.86 59.88L341.96 59.88L341.96 75.03Z"/>
								</g>
								<g id="&lt;Group&gt;">
									<path id="&lt;Path&gt;" class="shp5" d="M341.96 59.88L331.86 59.88L331.86 57.62C331.86 57.05 332.32 56.6 332.88 56.6L340.94 56.6C341.51 56.6 341.96 57.05 341.96 57.62L341.96 59.88Z"/>
								</g>
								<path id="&lt;Path&gt;" class="shp3" d="M340.47 67.07L333.36 67.07L333.36 63.55L340.47 63.55L340.47 67.07Z"/>
								<g id="&lt;Group&gt;">
									<path id="&lt;Path&gt;" class="shp5" d="M340.47 69.34L333.36 69.34L333.36 68.37L340.47 68.37L340.47 69.34Z"/>
								</g>
							</g>
							<g id="&lt;Group&gt;">
								<g id="&lt;Group&gt;">
									<g id="&lt;Group&gt;">
										<path id="&lt;Path&gt;" class="shp11" d="M364.09 75.03L364.09 50.68L344.26 50.68L344.26 75.03L364.09 75.03Z"/>
									</g>
									<g id="&lt;Group&gt;">
										<path id="&lt;Path&gt;" class="shp1" d="M365.13 50.68L343.22 50.68L343.22 47.24L365.13 47.24L365.13 50.68Z"/>
									</g>
								</g>
								<path id="&lt;Path&gt;" class="shp3" d="M361.32 57.74C361.32 59.58 358.12 61.07 354.17 61.07C350.23 61.07 347.03 59.58 347.03 57.74C347.03 55.9 350.23 54.41 354.17 54.41C358.12 54.41 361.32 55.9 361.32 57.74Z"/>
							</g>
						</g>
					</g>
					<g id="&lt;Group&gt;">
						<g id="&lt;Group&gt;">
							<g id="&lt;Group&gt;">
								<path id="&lt;Path&gt;" class="shp12" d="M249.23 103.63C247.78 101.46 245.73 99.77 243.63 98.21C249.35 93.67 251.35 85.01 248.19 78.42C246.32 74.52 243.02 71.55 240.14 68.32C237.27 65.1 234.67 61.19 234.76 56.87L202.72 63.07C203.14 67.62 202 72.3 199.54 76.15C197.9 78.7 195.73 80.86 194 83.34C192.26 85.82 190.95 88.81 191.38 91.8C191.88 95.19 194.47 97.84 196.92 100.22C193.83 100.94 191.67 104.09 191.57 107.26C191.47 110.43 193.13 113.47 195.47 115.61C197.82 117.74 200.79 119.07 203.8 120.06C215.68 123.99 228.79 123.17 240.7 119.33C242.88 118.62 245.05 117.81 246.92 116.49C248.79 115.17 250.36 113.29 250.89 111.06C251.49 108.52 250.69 105.8 249.23 103.63Z"/>
								<path id="&lt;Path&gt;" class="shp13" d="M230 64.11C230.31 64.16 230.61 64.2 230.92 64.24C230.17 66.74 231.27 69.47 232.96 71.46C234.64 73.45 236.85 74.91 238.83 76.61C240.8 78.31 242.63 80.41 243.1 82.98C243.59 85.61 242.53 88.35 240.86 90.45C239.19 92.55 236.97 94.12 234.76 95.64C236.85 95.72 238.88 96.92 239.94 98.73C241.01 100.54 241.09 102.89 240.14 104.76C239 107.02 236.65 108.37 234.32 109.34C228.28 111.87 221.55 112.71 215.08 111.72C211.57 111.19 207.92 109.99 205.73 107.2C203.53 104.42 203.55 99.71 206.53 97.79C204.5 96.81 202.49 95.66 200.99 93.96C199.49 92.27 198.57 89.94 199.01 87.72C199.4 85.76 200.76 84.16 201.9 82.52C204.89 78.26 206.66 73.15 206.95 67.95C214.29 64.73 221.99 64.38 230 64.11Z"/>
							</g>
							<g id="&lt;Group&gt;">
								<g id="&lt;Group&gt;">
									<path id="&lt;Path&gt;" class="shp14" d="M145.24 150.33C147.23 157.86 154.11 161.73 165.87 161.93L168.04 157.83L177.02 150.62L182.95 145.92L170.72 126.3C152.76 138.67 144.27 146.68 145.24 150.33Z"/>
								</g>
								<path id="&lt;Path&gt;" class="shp15" d="M179.16 139.84L170.72 126.3L165.17 130.29L175.33 142.63L169.23 147.1C166 146.43 163.4 146.58 161.43 147.54C164.24 147.52 168.03 148.66 172.81 150.97C173.22 150.87 174.63 150.76 177.02 150.62L182.95 145.92L179.16 139.84Z"/>
							</g>
							<g id="&lt;Group&gt;">
								<path id="&lt;Path&gt;" class="shp16" d="M202.19 103.85C197.04 105.04 192.65 106.59 189.02 108.5C187.49 109.31 179.74 114.79 165.78 124.94L182.43 149.25L201.48 137.36L199.52 126.39L202.22 105.21L202.19 103.85Z"/>
							</g>
							<g id="&lt;Group&gt;">
								<path id="&lt;Path&gt;" class="shp14" d="M286.37 158.69C282.89 162.21 275.47 163.86 264.11 163.64L262.57 159.26L254.76 150.79L247.83 143.29L261.74 126.05C262.86 127.08 264.26 128.41 265.93 130.03C273.95 137.82 290.35 154.67 286.37 158.69Z"/>
								<path id="&lt;Path&gt;" class="shp15" d="M270.73 150.01L259.89 152.15L254.77 150.78L254.76 150.79L247.83 143.29L261.74 126.05C262.86 127.08 264.26 128.41 265.93 130.03L254.34 142.43L260.69 148.29C262.19 148.14 265.54 148.72 270.73 150.01Z"/>
							</g>
							<g id="&lt;Group&gt;">
								<path id="&lt;Path&gt;" class="shp16" d="M237.65 104.75C244.45 105.89 248.41 107.11 249.55 108.42C250.68 109.73 255.78 115.62 264.85 126.09L247.43 147.36L243.63 144.02L242.62 128.37L237.65 104.75Z"/>
							</g>
							<g id="&lt;Group&gt;">
								<g id="&lt;Group&gt;">
									<g id="&lt;Group&gt;">
										<g id="&lt;Group&gt;">
											<g id="&lt;Group&gt;">
												<g id="&lt;Group&gt;">
													<path id="&lt;Path&gt;" class="shp14" d="M245.28 272.75C252.12 285.92 255.74 295.16 256.14 300.47C256.35 303.23 257.46 322.9 259.46 359.48L246.62 359.48C238 314.6 232.61 289.84 230.47 285.22C229.02 282.1 226.03 268.28 223.17 254.04C230.67 253.3 238.12 252.18 245.43 250.82C245.39 258.78 245.34 266.09 245.28 272.75Z"/>
													<g id="&lt;Group&gt;">
														<g id="&lt;Group&gt;">
															<path id="&lt;Path&gt;" class="shp3" d="M264.2 381.98C264.2 383.81 260.18 393.59 259.83 394.02C259.49 394.46 258.09 394.64 255.99 394.64C253.9 394.64 245.96 384.95 245.26 383.47C245.23 383.4 245.21 383.31 245.19 383.2C244.93 381.64 245.77 375.93 246.4 372.15C246.73 370.18 246.7 368.17 246.34 366.21C246.28 365.82 246.2 365.39 246.14 364.89C246.04 364.22 246.2 362.41 246.62 359.47L259.46 359.47C259.88 361.81 260.18 363.26 260.36 363.84C260.53 364.42 260.23 365.96 259.46 368.47C260.48 370.56 264.2 380.15 264.2 381.98Z"/>
														</g>
														<path id="&lt;Path&gt;" class="shp17" d="M264.2 381.98C264.2 383.81 260.18 393.59 259.83 394.02C259.49 394.46 258.09 394.64 255.99 394.64C253.9 394.64 245.96 384.95 245.26 383.47C245.23 383.4 245.21 383.31 245.19 383.2C247.32 384.81 256.53 391.66 257.22 391.66C258 391.66 260.96 384.51 260.96 383.38C260.96 382.62 259.51 378.14 256.61 369.94C257.36 367.79 257.77 366.42 257.82 365.82C257.89 365.22 257.73 363.1 257.36 359.47L259.46 359.47C259.88 361.81 260.18 363.26 260.36 363.84C260.53 364.42 260.23 365.96 259.46 368.47C260.48 370.56 264.2 380.15 264.2 381.98Z"/>
													</g>
													<g id="&lt;Group&gt;">
														<path id="&lt;Path&gt;" class="shp18" d="M189.76 254.51C187.76 238.92 186.1 221.06 187.03 213.42C187.8 207.12 189.4 198.35 190.94 190.56C191.67 186.84 192.4 183.34 193.01 180.44C193.12 179.88 193.24 179.35 193.34 178.84C193.45 178.31 193.56 177.81 193.66 177.34C193.8 176.69 193.93 176.1 194.04 175.57C194.31 174.34 194.52 173.37 194.68 172.66L233.18 172.66C233.29 172.85 233.43 173.13 233.61 173.49C233.65 173.56 233.68 173.63 233.72 173.7C233.79 173.85 233.87 174.01 233.96 174.19L233.96 174.19C234.37 175.02 234.91 176.16 235.55 177.55C235.62 177.71 235.69 177.87 235.77 178.04C236.07 178.71 236.39 179.43 236.73 180.2C236.79 180.36 236.86 180.53 236.94 180.69C237.27 181.48 237.62 182.32 237.98 183.2L237.98 183.2C238.23 183.82 238.49 184.46 238.74 185.13C239 185.79 239.26 186.48 239.52 187.18C239.63 187.49 239.75 187.81 239.86 188.13L239.87 188.13C239.88 188.17 239.9 188.21 239.91 188.25C239.95 188.35 239.98 188.45 240.02 188.55C240.1 188.78 240.18 189.01 240.26 189.25C240.34 189.47 240.42 189.7 240.5 189.92C240.91 191.12 241.32 192.36 241.7 193.62C241.78 193.87 241.86 194.12 241.93 194.37C242.04 194.72 242.14 195.06 242.24 195.4C242.4 195.96 242.56 196.52 242.71 197.08C243.32 199.35 243.87 201.68 244.3 204.01C244.35 204.28 244.4 204.55 244.45 204.82C244.51 205.14 244.56 205.46 244.61 205.79C244.65 206.04 244.69 206.3 244.73 206.56C244.77 206.79 244.8 207.02 244.83 207.26C245 208.47 245.13 209.68 245.22 210.89C245.24 211.18 245.26 211.47 245.28 211.75C245.55 216.29 245.51 235.23 245.43 250.82C238.12 252.18 230.67 253.3 223.17 254.04C220.84 242.47 218.59 230.68 216.4 218.68L212.95 218.96C212.77 232.04 212.57 244 212.36 254.84C204.81 255.21 197.25 255.14 189.76 254.51Z"/>
													</g>
													<g id="&lt;Group&gt;">
														<path id="&lt;Path&gt;" class="shp3" d="M212.36 254.84C212.15 265.65 211.91 274.97 211.71 276.08C214.75 285.04 216.72 291.88 217.63 296.59C218.3 300.04 216.93 323.12 213.5 365.82L200.42 365.82C197.42 313.01 195.34 284.95 194.19 281.62C193.39 279.33 191.45 267.74 189.76 254.51C197.25 255.14 204.81 255.21 212.36 254.84Z"/>
													</g>
													<g id="&lt;Group&gt;">
														<g id="&lt;Group&gt;">
															<path id="&lt;Path&gt;" class="shp3" d="M215.38 380.65C214.51 381.95 212.15 385.37 208.94 384.62C205.72 383.87 205.21 384.46 202.12 385.79C200.07 386.68 195.22 387.33 187.56 387.74C185.92 388.09 184.77 388.38 184.12 388.61C183.12 388.95 176.48 386.87 175.74 386.96C175.48 387.01 175.26 386.31 175.16 385.44C174.97 383.9 175.15 381.78 176.12 381.97C176.27 382 176.44 382.02 176.65 382.04C178.58 382.25 182.91 382.09 185.14 380.77C187.58 379.33 198.6 370.21 200.42 365.82L213.5 365.82C214.72 369.16 216.08 379.58 215.38 380.65Z"/>
														</g>
														<path id="&lt;Path&gt;" class="shp17" d="M215.38 380.65C214.51 381.95 212.15 385.37 208.94 384.62C205.72 383.87 205.21 384.46 202.12 385.79C200.07 386.68 195.22 387.33 187.56 387.74C185.92 388.09 184.77 388.38 184.12 388.61C183.12 388.95 176.48 386.87 175.74 386.96C175.48 387.01 175.26 386.31 175.16 385.44C174.97 383.9 175.15 381.78 176.12 381.97C176.27 382 176.44 382.02 176.65 382.04C178.31 383.75 181.4 386.57 183.68 386.48C186.94 386.35 200.75 380 204.09 380.79C207.43 381.57 209.79 382.1 210.5 381.57C210.98 381.22 211.01 375.97 210.59 365.82L213.5 365.82C214.72 369.16 216.08 379.58 215.38 380.65Z"/>
													</g>
													<path id="&lt;Path&gt;" class="shp15" d="M245.28 272.75C252.12 285.92 255.74 295.16 256.14 300.47C256.35 303.23 257.46 322.9 259.46 359.48L257.37 359.48C256.56 345.58 253.5 300.46 252.58 299.54C251.84 298.8 247.65 289.17 240.01 270.66C240.28 265.15 240.53 258.81 240.77 251.65C242.33 251.38 243.89 251.1 245.43 250.82C245.39 258.78 245.34 266.09 245.28 272.75Z"/>
													<path id="&lt;Path&gt;" class="shp17" d="M211.71 276.08C214.75 285.04 216.72 291.88 217.63 296.59C218.3 300.04 216.93 323.12 213.5 365.82L210.59 365.82L214.48 300.28L207.89 274.61L208.04 255C209.48 254.97 210.92 254.91 212.36 254.84C212.15 265.65 211.91 274.97 211.71 276.08Z"/>
													<path id="&lt;Path&gt;" class="shp15" d="M237.85 283.85C237.76 284.08 237.65 284.32 237.43 284.43C237.21 284.55 236.95 284.51 236.71 284.45C235.51 284.11 234.54 283.23 233.76 282.25C232.08 280.14 228.5 272.88 233.53 272.77C238.47 272.66 239.14 280.59 237.85 283.85Z"/>
													<path id="&lt;Path&gt;" class="shp15" d="M204.21 285.9C203.82 286.98 203.21 288.11 202.13 288.48C201.24 288.8 200.22 288.5 199.46 287.93C198.71 287.36 198.17 286.55 197.69 285.74C196.81 284.24 196.05 282.64 195.8 280.92C195.29 277.43 197.97 272.87 201.96 274.6C206.01 276.36 205.39 282.58 204.21 285.9Z"/>
												</g>
											</g>
										</g>
									</g>
								</g>
							</g>
							<g id="&lt;Group&gt;">
								<g id="&lt;Group&gt;">
									<g id="&lt;Group&gt;">
										<g id="&lt;Group&gt;">
											<g id="&lt;Group&gt;">
												<g id="&lt;Group&gt;">
													<g id="&lt;Group&gt;">
														<path id="&lt;Path&gt;" class="shp16" d="M241.13 153.42C241.03 151.29 240.96 149.21 240.93 147.26C241.39 146.56 244.27 139.52 244.36 134.46C244.41 131.26 242.18 121.36 237.65 104.75L205.85 103L201.97 105.37C196.52 119.11 193.96 128.38 194.29 133.18C194.81 140.92 198.81 146.55 200.16 149.06C198.82 155.66 188.42 194.86 188.17 195.92C217.28 204.51 245.08 198.89 245.16 198.87L241.13 153.42Z"/>
													</g>
													<g id="&lt;Group&gt;">
														<path id="&lt;Path&gt;" class="shp14" d="M237.18 105.14L228.11 98.97L226.34 98.58L225.55 98.6L214.76 99L213.88 99.04L212.48 99.58L205.95 103.12C214.1 112.93 228.01 112.75 237.18 105.14Z"/>
														<g id="&lt;Group&gt;">
															<g id="&lt;Group&gt;">
																<path id="&lt;Path&gt;" class="shp15" d="M223.26 95.2C220.35 95.73 217.3 95.17 214.65 93.84C214.76 91.55 214.81 89.02 214.8 86.25L226.4 86.39C226.27 88.87 226.3 91.24 226.49 93.53C225.61 94.44 224.31 94.98 223.26 95.2Z"/>
																<path id="&lt;Path&gt;" class="shp14" d="M225.38 102.35C226.6 101.46 227.29 100.14 228.11 98.97C228.09 98.96 228.07 98.94 228.06 98.93C227.14 98.17 226.69 95.92 226.49 93.53C225.61 94.44 224.31 94.98 223.26 95.2C220.35 95.73 217.3 95.17 214.65 93.84C214.56 95.68 214.42 97.32 214.2 98C214.08 98.37 213.44 98.93 212.48 99.58C214.53 101.65 216.74 103.49 219.42 104.15C221.45 104.68 223.49 103.69 225.38 102.35Z"/>
															</g>
														</g>
														<g id="&lt;Group&gt;">
															<g id="&lt;Group&gt;">
																<g id="&lt;Group&gt;">
																	<path id="&lt;Path&gt;" class="shp19" d="M206.89 79.63C204.56 79.29 202.93 77.44 202.09 75.92C201.9 75.58 201.75 75.25 201.64 74.96C201.04 73.39 201.09 68.03 202.87 66.87C204.12 66.05 204.94 67.36 205.32 68.21C205.32 68.21 205.32 68.21 205.32 68.21C205.43 68.46 205.51 68.67 205.57 68.86L206.89 79.63Z"/>
																	<path id="&lt;Path&gt;" class="shp14" d="M206.89 79.63C204.56 79.29 202.93 77.44 202.09 75.92C202.01 75.76 201.95 75.62 201.9 75.48C201.3 73.91 201.36 68.55 203.14 67.39C204.15 66.73 204.88 67.46 205.32 68.21C205.32 68.21 205.32 68.21 205.32 68.21C205.43 68.46 205.51 68.67 205.57 68.86L206.89 79.63Z"/>
																	<path id="&lt;Path&gt;" class="shp15" d="M202.13 71.09C202.03 71.51 202.06 71.96 202.15 72.39C202.54 74.21 203.89 75.64 205.18 76.97C204.81 76.09 204.71 75.1 204.84 74.14C204.88 73.81 204.95 73.48 204.97 73.15C205.05 71.8 202.76 68.59 202.13 71.09Z"/>
																	<g id="&lt;Group&gt;">
																		<path id="&lt;Path&gt;" class="shp20" d="M205.84 77.52C205.82 77.5 205.8 77.48 205.76 77.46C205.72 77.42 205.64 77.36 205.55 77.28C205.38 77.12 205.14 76.86 204.92 76.49C204.7 76.11 204.51 75.62 204.44 75.04C204.37 74.46 204.42 73.79 204.7 73.16C204.73 73.08 204.77 73 204.81 72.93L204.84 72.87C204.84 72.86 204.84 72.87 204.84 72.87L204.84 72.87L204.84 72.87L204.84 72.87C204.84 72.87 204.84 72.87 204.84 72.86L204.82 72.8L204.78 72.7C204.75 72.63 204.72 72.56 204.69 72.5C204.58 72.23 204.45 71.97 204.32 71.74C204.19 71.5 204.05 71.28 203.91 71.08C203.78 70.89 203.64 70.7 203.51 70.56C203.38 70.42 203.23 70.32 203.08 70.29C202.94 70.27 202.8 70.3 202.71 70.36C202.61 70.41 202.56 70.48 202.53 70.54C202.51 70.59 202.51 70.63 202.5 70.63C202.5 70.61 202.5 70.57 202.51 70.53C202.53 70.47 202.57 70.38 202.66 70.29C202.76 70.21 202.91 70.14 203.1 70.14C203.29 70.15 203.49 70.24 203.67 70.38C203.85 70.52 204.01 70.69 204.17 70.88C204.34 71.07 204.5 71.29 204.66 71.53C204.82 71.76 204.97 72.02 205.11 72.31C205.14 72.38 205.18 72.45 205.21 72.52L205.25 72.63L205.32 72.78L205.36 72.89C205.34 72.93 205.32 72.96 205.31 73L205.23 73.15C205.2 73.21 205.16 73.28 205.14 73.35C204.9 73.9 204.83 74.48 204.84 75C204.87 75.53 204.98 76 205.14 76.38C205.29 76.76 205.47 77.04 205.61 77.23C205.68 77.33 205.74 77.39 205.78 77.44C205.8 77.48 205.82 77.5 205.84 77.52Z"/>
																	</g>
																</g>
																<g id="&lt;Group&gt;">
																	<path id="&lt;Path&gt;" class="shp19" d="M234.02 80.89C236.38 80.76 238.16 79.07 239.15 77.64C239.37 77.31 239.55 77 239.69 76.72C240.43 75.21 240.87 69.87 239.2 68.55C238.03 67.63 237.09 68.85 236.64 69.66C236.64 69.66 236.64 69.66 236.64 69.67C236.51 69.9 236.41 70.1 236.33 70.29L234.02 80.89Z"/>
																	<path id="&lt;Path&gt;" class="shp14" d="M234.02 80.89C236.38 80.76 238.16 79.07 239.15 77.64C239.23 77.49 239.31 77.35 239.37 77.22C240.12 75.7 240.56 70.37 238.89 69.04C237.94 68.29 237.15 68.95 236.64 69.66C236.64 69.66 236.64 69.66 236.64 69.67C236.51 69.9 236.41 70.1 236.33 70.29L234.02 80.89Z"/>
																	<path id="&lt;Path&gt;" class="shp15" d="M239.55 72.82C239.61 73.26 239.54 73.7 239.41 74.12C238.85 75.89 237.38 77.19 235.97 78.4C236.42 77.55 236.61 76.57 236.57 75.61C236.56 75.28 236.52 74.95 236.53 74.61C236.58 73.27 239.15 70.27 239.55 72.82Z"/>
																	<g id="&lt;Group&gt;">
																		<path id="&lt;Path&gt;" class="shp20" d="M235.26 78.88C235.28 78.87 235.31 78.85 235.34 78.83C235.4 78.79 235.48 78.75 235.57 78.67C235.76 78.53 236.02 78.29 236.27 77.94C236.52 77.59 236.76 77.11 236.89 76.54C237 75.97 237.02 75.3 236.8 74.65C236.78 74.57 236.75 74.49 236.72 74.41L236.69 74.35C236.69 74.33 236.69 74.34 236.69 74.34L236.69 74.34L236.69 74.34L236.69 74.34C236.69 74.34 236.69 74.34 236.69 74.33L236.72 74.28L236.77 74.18C236.8 74.12 236.84 74.05 236.87 73.99C237.01 73.73 237.16 73.49 237.31 73.27C237.46 73.04 237.62 72.84 237.78 72.65C237.93 72.47 238.08 72.3 238.23 72.17C238.37 72.04 238.53 71.96 238.68 71.94C238.82 71.93 238.95 71.98 239.04 72.04C239.13 72.1 239.18 72.18 239.2 72.24C239.22 72.3 239.22 72.33 239.22 72.33C239.22 72.33 239.23 72.3 239.22 72.23C239.21 72.17 239.18 72.07 239.09 71.98C239.01 71.89 238.86 71.81 238.67 71.79C238.48 71.78 238.27 71.85 238.08 71.98C237.89 72.1 237.72 72.26 237.54 72.43C237.35 72.61 237.17 72.8 236.99 73.03C236.81 73.25 236.63 73.49 236.47 73.76C236.43 73.83 236.39 73.89 236.35 73.96L236.3 74.07L236.22 74.22L236.17 74.32C236.18 74.36 236.2 74.39 236.21 74.43L236.27 74.59C236.3 74.65 236.33 74.72 236.35 74.79C236.53 75.36 236.55 75.95 236.49 76.47C236.41 76.99 236.25 77.45 236.07 77.82C235.88 78.18 235.67 78.44 235.52 78.62C235.44 78.71 235.37 78.77 235.33 78.81C235.3 78.84 235.28 78.87 235.26 78.88Z"/>
																	</g>
																</g>
																<path id="&lt;Path&gt;" class="shp19" d="M236.49 69.32C235.89 76.23 234.61 80.94 232.65 83.42C230.19 86.55 226.68 91.54 221.36 93.05C220.32 93.34 219.2 93.29 218.2 92.9C213.04 90.91 210 85.61 207.84 82.27C206.12 79.62 205.28 74.82 205.32 67.87C205.33 67.18 205.36 66.51 205.39 65.87L205.4 65.85C206.21 52.74 211.7 46.78 221.86 47.97C231.9 48.53 236.79 55.3 236.52 68.3C236.52 68.63 236.51 68.97 236.49 69.32Z"/>
																<path id="&lt;Path&gt;" class="shp14" d="M236.52 68.3C236.36 69.96 235.36 78.76 232.71 82.13C230.25 85.25 226.74 90.24 221.42 91.75C220.38 92.05 219.26 92 218.26 91.61C213.1 89.61 210.06 84.32 207.9 80.98C206.18 78.32 205.34 73.52 205.38 66.58C205.38 66.34 205.39 66.1 205.39 65.87L205.4 65.85C206.21 52.74 211.7 46.78 221.86 47.97C231.9 48.53 236.79 55.3 236.52 68.3Z"/>
																<path id="&lt;Path&gt;" class="shp21" d="M215.44 82.46C219.44 83.28 223.96 82.39 226.87 80.21C225.82 81.8 224.37 83.17 222.07 83.62C219.77 84.07 217.43 83.46 215.44 82.46Z"/>
																<path id="&lt;Path&gt;" class="shp21" d="M218.85 85.37C220.95 85.86 223.33 85.32 224.87 84.01C224.31 84.96 223.55 85.78 222.34 86.06C221.12 86.33 219.9 85.97 218.85 85.37Z"/>
																<g id="&lt;Group&gt;">
																	<g id="&lt;Group&gt;">
																		<g id="&lt;Group&gt;">
																			<g id="&lt;Group&gt;">
																				<path id="&lt;Path&gt;" class="shp5" d="M209.93 66.08C210.14 66.73 210.95 67.28 211.51 67.59C211.83 67.27 212.21 67.08 212.6 67.1C213.61 67.16 214.36 68.51 214.27 70.13C214.18 71.75 213.3 73.02 212.29 72.96C211.28 72.91 210.53 71.55 210.62 69.94C210.65 69.43 210.75 68.97 210.91 68.56C210.42 68.08 210.09 67.26 209.93 66.08Z"/>
																			</g>
																			<g id="&lt;Group&gt;">
																				<path id="&lt;Path&gt;" class="shp3" d="M212.52 70.35C211.76 70.58 211 70.56 210.24 70.31C209.48 70.05 208.87 69.6 208.4 68.95C209.16 68.72 209.92 68.74 210.68 68.99C211.44 69.25 212.06 69.7 212.52 70.35Z"/>
																			</g>
																		</g>
																		<g id="&lt;Group&gt;">
																			<g id="&lt;Group&gt;">
																				<path id="&lt;Path&gt;" class="shp5" d="M231.55 67.08C231.28 67.71 230.42 68.18 229.83 68.44C229.54 68.09 229.18 67.87 228.79 67.85C227.78 67.81 226.91 69.1 226.85 70.71C226.79 72.33 227.55 73.68 228.56 73.72C229.57 73.76 230.44 72.48 230.5 70.86C230.52 70.36 230.46 69.88 230.34 69.46C230.87 69.03 231.27 68.24 231.55 67.08Z"/>
																			</g>
																			<g id="&lt;Group&gt;">
																				<path id="&lt;Path&gt;" class="shp3" d="M228.57 71.09C229.31 71.39 230.07 71.45 230.85 71.26C231.63 71.08 232.28 70.68 232.8 70.08C232.06 69.78 231.3 69.73 230.53 69.91C229.75 70.1 229.09 70.49 228.57 71.09Z"/>
																			</g>
																		</g>
																	</g>
																</g>
																<path id="&lt;Path&gt;" class="shp15" d="M219.9 76.96C220.68 77.02 221.41 77.56 221.7 78.28C221.74 78.37 221.77 78.47 221.74 78.57C221.69 78.71 221.53 78.76 221.39 78.8C220.38 79.04 219.32 79.06 218.31 78.87C216.47 78.53 218.98 76.88 219.9 76.96Z"/>
																<g id="&lt;Group&gt;">
																	<path id="&lt;Path&gt;" class="shp21" d="M218.85 78.43C218.85 78.35 218.86 78.25 218.88 78.12C218.89 78.02 218.91 77.9 218.92 77.76C218.93 77.62 218.96 77.47 218.97 77.3C218.98 77.13 219 76.94 219.02 76.74C219.04 76.54 219.04 76.33 219.06 76.11C219.09 75.66 219.11 75.18 219.12 74.67C219.14 74.17 219.14 73.68 219.14 73.24C219.14 73.02 219.14 72.8 219.14 72.61C219.13 72.4 219.13 72.22 219.12 72.05C219.12 71.87 219.1 71.72 219.1 71.58C219.09 71.44 219.08 71.32 219.08 71.22C219.07 71.09 219.06 70.99 219.06 70.91C219.1 70.97 219.15 71.06 219.22 71.18C219.27 71.27 219.33 71.37 219.39 71.5C219.45 71.63 219.53 71.78 219.59 71.94C219.65 72.11 219.72 72.3 219.78 72.5C219.85 72.7 219.9 72.92 219.95 73.16C220.04 73.62 220.1 74.15 220.08 74.7C220.06 75.25 219.98 75.77 219.86 76.24C219.8 76.47 219.73 76.68 219.66 76.88C219.59 77.08 219.51 77.26 219.43 77.43C219.36 77.59 219.28 77.73 219.21 77.86C219.14 77.98 219.08 78.09 219.02 78.17C218.95 78.28 218.89 78.37 218.85 78.43Z"/>
																</g>
															</g>
														</g>
														<g id="&lt;Group&gt;">
															<g id="&lt;Group&gt;">
																<g id="&lt;Group&gt;">
																	<g id="&lt;Group&gt;">
																		<path id="&lt;Path&gt;" class="shp13" d="M234.45 78.35C234.48 78.19 234.53 77.98 234.6 77.7C234.62 77.6 234.65 77.49 234.68 77.36C234.71 77.24 234.74 77.1 234.77 76.96C234.83 76.67 234.92 76.34 234.99 75.98C235.03 75.79 235.07 75.6 235.11 75.41C235.15 75.21 235.19 75 235.23 74.79C235.32 74.37 235.39 73.91 235.49 73.44C235.65 72.49 235.82 71.45 235.98 70.35C236.13 69.26 236.25 68.21 236.36 67.25C236.4 66.76 236.46 66.3 236.49 65.87C236.51 65.66 236.53 65.45 236.54 65.24C236.56 65.04 236.57 64.85 236.58 64.66C236.62 64.29 236.63 63.95 236.65 63.65C236.66 63.5 236.66 63.36 236.67 63.23C236.68 63.1 236.68 62.99 236.69 62.88C236.7 62.6 236.71 62.38 236.72 62.22C236.77 62.36 236.83 62.57 236.91 62.84C236.94 62.94 236.97 63.06 237 63.18C237.04 63.3 237.07 63.44 237.1 63.59C237.16 63.88 237.24 64.22 237.3 64.6C237.33 64.78 237.36 64.98 237.4 65.19C237.43 65.4 237.45 65.61 237.47 65.84C237.53 66.29 237.55 66.77 237.57 67.28C237.6 68.3 237.56 69.44 237.39 70.61C237.23 71.78 236.96 72.87 236.65 73.83C236.49 74.31 236.33 74.76 236.16 75.17C236.07 75.37 235.99 75.57 235.91 75.76C235.82 75.94 235.73 76.12 235.65 76.29C235.49 76.63 235.32 76.92 235.18 77.18C235.11 77.3 235.04 77.42 234.98 77.53C234.91 77.64 234.85 77.73 234.8 77.82C234.65 78.05 234.53 78.22 234.45 78.35Z"/>
																	</g>
																</g>
																<g id="&lt;Group&gt;">
																	<g id="&lt;Group&gt;">
																		<path id="&lt;Path&gt;" class="shp13" d="M206.85 80.21C206.79 80.07 206.71 79.87 206.62 79.61C206.47 79.23 206.27 78.66 206.05 77.95C205.83 77.24 205.6 76.38 205.4 75.41C205.2 74.44 205.02 73.35 204.91 72.2C204.81 71.05 204.78 69.95 204.8 68.94C204.82 67.94 204.89 67.04 204.97 66.28C205.05 65.52 205.15 64.91 205.22 64.49C205.27 64.21 205.31 64 205.35 63.84C205.37 64 205.41 64.22 205.45 64.49C205.51 64.91 205.59 65.51 205.69 66.25C205.79 66.99 205.9 67.87 206.01 68.84C206.13 69.81 206.24 70.87 206.35 71.99C206.45 73.11 206.53 74.18 206.59 75.15C206.66 76.13 206.71 77.02 206.75 77.76C206.79 78.51 206.82 79.12 206.83 79.55C206.85 79.83 206.85 80.05 206.85 80.21Z"/>
																	</g>
																</g>
																<g id="&lt;Group&gt;">
																	<path id="&lt;Path&gt;" class="shp15" d="M211.83 76.33C211.55 77 209.68 76.84 207.66 75.98C205.64 75.12 204.23 73.87 204.52 73.2C204.81 72.53 206.68 72.69 208.7 73.55C210.72 74.42 212.12 75.66 211.83 76.33Z"/>
																	<path id="&lt;Path&gt;" class="shp15" d="M236.82 74.56C237.06 75.25 235.59 76.41 233.53 77.16C231.46 77.91 229.59 77.96 229.34 77.28C229.09 76.59 230.56 75.43 232.63 74.68C234.69 73.93 236.57 73.88 236.82 74.56Z"/>
																</g>
															</g>
															<g id="&lt;Group&gt;">
																<g id="&lt;Group&gt;">
																	<g id="&lt;Group&gt;">
																		<path id="&lt;Path&gt;" class="shp13" d="M222.38 56.79C222.97 58 223.55 59.19 224.14 60.39C218.22 58.22 215.04 56.84 212.36 51.13C211.53 58.95 207.25 66.38 200.73 70.78C200.46 69.09 200.21 67.36 200.08 65.64C199.71 61.27 200.06 56.93 202.38 53.26C204.03 50.67 206.57 48.66 209.47 47.67C210.61 44.75 213.45 42.11 216.37 40.97C219.29 39.83 222.57 39.77 225.62 40.46C227.76 40.95 229.83 41.81 231.64 43.06C235.36 45.66 237.78 49.86 238.81 54.29C239.02 55.18 239.17 56.36 239.28 57.67C239.56 61.14 239.62 65.33 239.46 70.24C231.2 64.2 225.51 59.72 222.38 56.79Z"/>
																	</g>
																	<path id="&lt;Path&gt;" class="shp12" d="M206.44 61.66C211.9 60.17 215.19 60.26 216.31 61.92C216.96 62.88 216.85 63.45 215.98 63.63L206.44 61.66Z"/>
																	<path id="&lt;Path&gt;" class="shp12" d="M235.42 62.84C230.12 60.86 226.84 60.64 225.57 62.19C224.83 63.09 224.89 63.67 225.74 63.92L235.42 62.84Z"/>
																	<path id="&lt;Path&gt;" class="shp12" d="M230.43 55.67C225.92 54.01 221.75 51.53 217.76 48.83C217.69 49.95 217.75 51.07 217.93 52.18C215.46 50.98 213.12 49.47 210.98 47.74C210.41 51.72 208.74 55.53 206.19 58.63C206.37 57.39 206.17 56.1 205.62 54.98C205.77 55.29 205.15 56.64 205.04 56.97C204.82 57.67 204.58 58.35 204.32 59.03C203.41 61.35 202.2 63.62 200.37 65.35C200.28 65.43 200.18 65.53 200.08 65.64C199.83 62.76 199.9 59.9 200.65 57.22C201.03 55.84 201.59 54.51 202.38 53.26C204.02 50.7 206.54 48.69 209.42 47.69C209.44 47.68 209.45 47.68 209.47 47.67C210.08 46.12 211.17 44.64 212.49 43.43C213.65 42.36 215 41.49 216.37 40.97C219.29 39.83 222.57 39.77 225.62 40.46C227.76 40.95 229.83 41.81 231.64 43.06C234.32 44.93 236.33 47.64 237.62 50.67C238.13 51.83 238.53 53.05 238.81 54.29C239.02 55.18 239.17 56.36 239.28 57.67C236.26 57.44 233.27 56.72 230.43 55.67Z"/>
																	<g id="&lt;Group&gt;">
																		<path id="&lt;Path&gt;" class="shp22" d="M209.42 47.69C209.4 47.76 209.38 47.82 209.36 47.88C208.8 49.84 207.75 51.71 206.1 52.92C206.14 52.33 206.17 51.76 206.2 51.18C204.7 53.48 202.81 55.53 200.65 57.22C201.03 55.84 201.59 54.51 202.38 53.26C204.02 50.7 206.54 48.69 209.42 47.69Z"/>
																		<path id="&lt;Path&gt;" class="shp22" d="M217.34 42.85C217.36 43.64 217.39 44.44 217.42 45.23C215.7 44.88 214.03 44.27 212.49 43.43C213.65 42.36 215 41.49 216.37 40.97C219.29 39.83 222.57 39.77 225.62 40.46C227.76 40.95 229.83 41.81 231.64 43.06C234.32 44.93 236.33 47.64 237.62 50.67C230.32 50.66 223.14 47.39 217.34 42.85Z"/>
																	</g>
																</g>
															</g>
														</g>
													</g>
												</g>
											</g>
										</g>
									</g>
									<path id="&lt;Path&gt;" class="shp23" d="M235.85 144.02C233.45 145.04 231.51 146.44 228.37 147.42C225.43 148.34 222.3 146.34 219.23 146.17C216.59 146.02 213.98 146.63 211.35 146.77C208.72 146.91 205.86 146.48 203.97 144.65C205.5 147.64 208.89 149.63 212.23 149.2C214.06 148.97 215.76 148.13 217.59 147.93C220 147.67 223.69 149.44 226.1 149.77C230.55 150.39 235.57 143.99 235.85 144.02Z"/>
								</g>
							</g>
							<g id="&lt;Group&gt;">
								<path id="&lt;Path&gt;" class="shp24" d="M199.02 131.04C198.12 125.43 197.56 119.73 197.46 114.06C196.08 120.08 195.82 126.36 196.69 132.48C197.38 132 198.33 131.51 199.02 131.04Z"/>
								<path id="&lt;Path&gt;" class="shp24" d="M242.27 131.04C243.17 125.43 243.74 119.73 243.83 114.06C245.22 120.08 245.48 126.36 244.61 132.48C243.91 132 242.97 131.51 242.27 131.04Z"/>
								<g id="&lt;Group&gt;">
									<path id="&lt;Path&gt;" class="shp25" d="M216.13 361.87L198.59 361.87L192.78 295.63L191.79 284.33L216.13 280.19C218.4 288.92 219.84 293.8 220.46 294.85C220.51 294.93 220.55 295.2 220.56 295.63C220.74 300.71 219.27 322.79 216.13 361.87Z"/>
								</g>
								<g id="&lt;Group&gt;">
									<path id="&lt;Path&gt;" class="shp25" d="M262.97 359.48L243.67 359.48L230.54 295.63L228.25 284.51L252.16 281.42C254.96 287.94 256.9 292.68 257.99 295.63C258.33 296.54 258.55 297.22 258.61 297.55C258.85 298.83 260.3 319.48 262.97 359.48Z"/>
								</g>
								<g id="&lt;Group&gt;">
									<path id="&lt;Path&gt;" class="shp26" d="M220.46 294.85C220.51 294.93 220.55 295.2 220.56 295.63L192.78 295.63L191.79 284.33L216.13 280.19C218.4 288.92 219.84 293.8 220.46 294.85Z"/>
								</g>
								<g id="&lt;Group&gt;">
									<path id="&lt;Path&gt;" class="shp26" d="M257.99 295.63L230.54 295.63L228.25 284.51L252.16 281.42C254.96 287.94 256.9 292.68 257.99 295.63Z"/>
								</g>
								<g id="&lt;Group&gt;">
									<path id="&lt;Path&gt;" class="shp3" d="M202.18 103.27C202.47 114.67 202.43 121.18 202.07 122.81C201.52 125.25 192.8 132.76 192.8 133.28C192.8 133.8 194.37 142.53 198.56 148.98C187.16 188.24 181.46 209.35 181.46 212.31C181.46 215.28 183.23 240.4 186.76 287.68C231.57 286.94 255.81 285.88 259.46 284.51L252.9 262.82C253.6 237.19 253.78 221.49 253.43 215.73C253.08 209.96 249.41 187.54 242.44 148.46C244.97 139.3 246.27 134.02 246.36 132.63C239.99 125.56 236.72 121.46 236.55 120.33C236.37 119.19 236.58 113.42 237.18 103C235.8 102.13 234.72 101.64 233.93 101.53C232.3 115.02 231.15 122.09 230.48 122.72C229.48 123.68 208.94 124.43 208.24 122.94C207.77 121.95 207.22 114.74 206.58 101.31L202.18 103.27Z"/>
								</g>
								<path id="&lt;Path&gt;" class="shp17" d="M235.31 151.83C231.67 152.07 228.38 152.07 224.89 150.83C223.37 150.3 221.97 149.5 220.33 149.31C215.03 148.72 210.69 152.56 205.16 151.82C205.01 151.8 204.88 151.96 205 152.09C208.29 155.24 212.18 152.89 215.97 151.86C219.78 150.82 222.22 152.22 225.6 153.3C228.77 154.31 232.04 154.15 235.31 153.87C236.6 153.76 236.63 151.75 235.31 151.83Z"/>
								<path id="&lt;Path&gt;" class="shp17" d="M243.56 261.6C243.74 261.49 243.68 261.18 243.45 261.19C237.42 261.47 231.21 263.96 225.31 265.28C218.12 266.9 210.8 268.24 203.48 269.17C202.53 269.29 202.36 270.45 203.26 270.82C215.2 275.77 228.55 277.58 241.38 276.31C242.29 276.22 242.33 274.82 241.38 274.86C229.55 275.39 218.4 273.83 207.24 270.36C212.83 269.61 218.38 268.73 223.92 267.54C230.29 266.17 237.97 265.05 243.56 261.6Z"/>
								<path id="&lt;Path&gt;" class="shp17" d="M232.83 219.75C225.46 210.87 212.25 206.9 201.23 205.68C200.57 205.61 200.41 206.74 201.07 206.84C207.02 207.69 212.79 209.38 218.23 211.95C223.26 214.33 227.47 217.74 232.21 220.56C232.74 220.87 233.19 220.18 232.83 219.75Z"/>
							</g>
							<g id="&lt;Group&gt;">
								<g id="&lt;Group&gt;">
									<path id="&lt;Path&gt;" class="shp14" d="M236.33 157.15C236.73 158.3 240.71 157.04 248.28 153.38L250.82 155.79L246.29 158.53L242.4 165.18C242.98 166 243.64 166.89 244.4 167.85C244.55 168.03 244.69 168.21 244.84 168.4C245.54 169.25 246.3 170.13 247.03 170.84C247.09 170.91 247.17 170.98 247.23 171.05C247.6 171.4 247.95 171.7 248.28 171.92C248.64 172.16 248.96 172.31 249.22 172.33L253.31 167.93C258.82 168.29 261.96 168.29 262.71 167.93C263.16 167.71 264.34 165.87 265.6 163.72C266.2 162.69 268.51 158.67 269.07 157.65L267.7 154.69L259.39 151.48C258.61 151.26 257.56 150.99 256.38 150.73L256.38 150.73C255.8 150.6 255.19 150.48 254.56 150.36C252.3 149.94 249.83 149.65 247.89 149.85C247.06 149.93 246.34 150.11 245.76 150.39C241.78 152.37 235.72 155.43 236.33 157.15Z"/>
									<g id="&lt;Group&gt;">
										<g id="&lt;Group&gt;">
											<path id="&lt;Path&gt;" class="shp20" d="M247.03 170.84C247.09 170.91 247.17 170.98 247.23 171.05C247.38 170.85 247.56 170.58 247.79 170.25C248.31 169.52 249.02 168.55 249.82 167.51C250.62 166.47 251.41 165.59 252.07 164.99C252.24 164.84 252.4 164.71 252.53 164.59C252.68 164.48 252.8 164.38 252.91 164.31C253.05 164.2 253.16 164.12 253.24 164.06C253.14 164.08 253 164.11 252.82 164.15C252.69 164.18 252.52 164.22 252.33 164.27C252.15 164.34 251.94 164.42 251.71 164.52C250.81 164.91 249.66 165.71 248.78 166.84C247.91 167.98 247.44 169.16 247.2 170.03C247.12 170.35 247.06 170.62 247.03 170.84Z"/>
										</g>
										<g id="&lt;Group&gt;">
											<path id="&lt;Path&gt;" class="shp20" d="M244.4 167.85C244.55 168.03 244.69 168.21 244.84 168.4C244.88 168.36 244.91 168.31 244.94 168.27C245.45 167.54 246.17 166.57 246.97 165.53C247.77 164.49 248.55 163.61 249.22 163.01C249.39 162.86 249.54 162.73 249.68 162.61C249.82 162.5 249.95 162.41 250.05 162.33C250.19 162.22 250.3 162.14 250.38 162.08C250.28 162.1 250.15 162.13 249.97 162.17C249.83 162.2 249.66 162.24 249.47 162.29C249.29 162.36 249.08 162.44 248.86 162.54C247.95 162.93 246.8 163.73 245.92 164.87C245.11 165.92 244.65 167.01 244.4 167.85Z"/>
										</g>
									</g>
								</g>
							</g>
							<g id="&lt;Group&gt;">
								<g id="&lt;Group&gt;">
									<path id="&lt;Path&gt;" class="shp14" d="M195.57 154.27C195.33 155.46 191.21 154.76 183.22 152.15L181.03 154.88L185.89 156.99L190.64 163.05C190.19 163.94 189.65 164.91 189.02 165.97C188.91 166.17 188.78 166.37 188.66 166.57C188.09 167.51 187.45 168.48 186.83 169.29C186.78 169.37 186.71 169.44 186.66 169.52C186.34 169.91 186.03 170.26 185.74 170.52C185.42 170.82 185.12 171.01 184.86 171.06L180.21 167.25C174.8 168.36 171.69 168.78 170.89 168.53C170.42 168.38 169 166.71 167.46 164.75C166.73 163.82 163.9 160.14 163.2 159.21L164.16 156.1L171.95 151.78C172.7 151.46 173.7 151.05 174.83 150.63L174.83 150.63C175.39 150.42 175.98 150.22 176.58 150.02C178.77 149.29 181.18 148.67 183.13 148.61C183.95 148.58 184.7 148.65 185.31 148.86C189.52 150.28 195.94 152.49 195.57 154.27Z"/>
									<g id="&lt;Group&gt;">
										<g id="&lt;Group&gt;">
											<path id="&lt;Path&gt;" class="shp20" d="M186.83 169.29C186.78 169.37 186.71 169.44 186.66 169.52C186.48 169.34 186.26 169.1 185.99 168.81C185.38 168.15 184.54 167.28 183.61 166.36C182.68 165.45 181.78 164.68 181.04 164.17C180.85 164.05 180.68 163.94 180.53 163.84C180.37 163.75 180.23 163.67 180.11 163.61C179.96 163.53 179.84 163.46 179.76 163.41C179.86 163.41 180 163.42 180.18 163.44C180.32 163.45 180.49 163.47 180.69 163.5C180.88 163.54 181.09 163.59 181.33 163.66C182.28 163.92 183.52 164.56 184.55 165.56C185.57 166.57 186.19 167.68 186.54 168.5C186.67 168.81 186.76 169.07 186.83 169.29Z"/>
										</g>
										<g id="&lt;Group&gt;">
											<path id="&lt;Path&gt;" class="shp20" d="M189.02 165.97C188.91 166.17 188.78 166.37 188.66 166.57C188.62 166.54 188.59 166.49 188.55 166.46C187.94 165.8 187.1 164.93 186.17 164.01C185.23 163.1 184.33 162.33 183.59 161.82C183.41 161.7 183.24 161.59 183.09 161.49C182.93 161.4 182.79 161.33 182.68 161.26C182.52 161.18 182.4 161.11 182.32 161.06C182.42 161.07 182.56 161.08 182.74 161.09C182.88 161.11 183.05 161.12 183.24 161.15C183.43 161.19 183.65 161.24 183.89 161.31C184.84 161.58 186.09 162.21 187.11 163.22C188.06 164.15 188.66 165.17 189.02 165.97Z"/>
										</g>
									</g>
								</g>
							</g>
						</g>
						<g id="&lt;Group&gt;">
							<path id="&lt;Path&gt;" class="shp5" d="M194.83 385.22L188.95 371.36C178.75 374.34 173.08 377.32 171.95 380.29C170.82 383.25 170.09 386.18 169.74 389.06L218.81 388.98L218.8 385.18L194.83 385.22Z"/>
						</g>
						<g id="&lt;Group&gt;">
							<path id="&lt;Path&gt;" class="shp5" d="M243.17 384.96C244.8 379.2 248.78 376.41 255.12 376.59C261.46 376.76 265.27 379.9 266.55 386.01C263.84 393.28 261.48 397 259.46 397.17C257.44 397.35 255.91 397.43 254.86 397.43C249.45 394.64 245.56 390.49 243.17 384.96Z"/>
						</g>
					</g>
					<g id="&lt;Group&gt;">
						<g id="&lt;Group&gt;">
							<path id="&lt;Path&gt;" class="shp10" d="M405.21 206.11L110.72 206.11L110.72 195.81L405.21 195.81L405.21 206.11Z"/>
						</g>
						<g id="&lt;Group&gt;">
							<path id="&lt;Path&gt;" class="shp10" d="M376.11 237.04L139.81 237.04L139.81 231.52L376.11 231.52L376.11 237.04Z"/>
						</g>
						<g id="&lt;Group&gt;">
							<g id="&lt;Group&gt;">
								<path id="&lt;Path&gt;" class="shp10" d="M125.6 397.43L147.87 200.96L140.42 200.96L118.15 397.43L125.6 397.43Z"/>
							</g>
							<g id="&lt;Group&gt;">
								<path id="&lt;Path&gt;" class="shp10" d="M390.33 397.43L368.06 200.96L375.51 200.96L397.78 397.43L390.33 397.43Z"/>
							</g>
						</g>
					</g>
					<g id="&lt;Group&gt;">
						<g id="&lt;Group&gt;">
							<path id="&lt;Path&gt;" class="shp5" d="M313.43 195.81L295.33 195.81L295.33 172.02C295.33 170.14 296.85 168.62 298.72 168.62L310.04 168.62C311.91 168.62 313.43 170.14 313.43 172.02L313.43 195.81Z"/>
						</g>
						<g id="&lt;Group&gt;">
							<path id="&lt;Path&gt;" class="shp7" d="M298.49 168.62L310.27 168.62L310.27 158.03L298.49 158.03L298.49 168.62Z"/>
						</g>
						<g id="&lt;Group&gt;">
							<path id="&lt;Path&gt;" class="shp5" d="M310.27 160.94L298.49 160.94L298.49 158.03L310.27 158.03L310.27 160.94Z"/>
						</g>
						<g id="&lt;Group&gt;">
							<path id="&lt;Path&gt;" class="shp3" d="M310.95 177.12C310.95 179.31 308.01 181.09 304.38 181.09C300.75 181.09 297.8 179.31 297.8 177.12C297.8 174.93 300.75 173.15 304.38 173.15C308.01 173.15 310.95 174.93 310.95 177.12Z"/>
						</g>
					</g>
					<g id="&lt;Group&gt;">
						<path id="&lt;Path&gt;" class="shp8" d="M206.22 177.45C206.25 177.5 206.27 177.55 206.31 177.6C206.2 177.58 206.08 177.56 205.96 177.55C205.37 177.51 204.62 177.53 204.15 177.35C202.24 176.63 200.49 175.56 198.95 174.22C195.06 170.84 192.58 165.8 192.57 160.63C192.57 159.66 193.78 158.91 194.74 159.1C195.7 159.29 196.45 160.11 196.82 161C197.19 161.91 197.27 162.91 197.32 163.89C197.62 162.88 197.93 161.82 198.66 161.05C199.4 160.3 200.68 159.96 201.52 160.6C202.39 161.29 202.34 162.61 202.21 163.72C202.33 162.74 203.45 162.11 204.41 162.32C205.37 162.54 206.07 163.41 206.31 164.36C206.54 165.31 206.37 166.32 206.09 167.26C205.81 168.19 205.4 169.09 205.14 170.03C204.8 171.27 204.73 172.58 204.92 173.85L204.92 173.86C205.1 175.13 205.54 176.36 206.22 177.45Z"/>
						<g id="&lt;Group&gt;">
							<path id="&lt;Path&gt;" class="shp27" d="M205.96 177.55C205.37 177.51 204.62 177.53 204.15 177.35C202.24 176.63 200.49 175.56 198.95 174.22C196.77 171.28 195.48 167.25 194.92 164.23C194.88 164.03 195.18 163.93 195.23 164.14C195.92 166.78 197.12 169.37 198.71 171.59C199.7 172.96 200.99 174.06 202.16 175.24C200.15 172.16 198.86 168.22 198.96 165.32C198.96 165.18 199.14 165.17 199.18 165.28C200.22 167.88 200.85 170.54 202.34 172.95C203.37 174.63 204.77 176.01 205.96 177.55Z"/>
							<path id="&lt;Path&gt;" class="shp27" d="M206.22 177.45C203.44 175.08 201.49 169.61 202.21 166.62C202.26 166.42 202.53 166.45 202.59 166.62C203.33 168.8 203.43 170.97 204.48 173.09C204.62 173.36 204.76 173.61 204.92 173.85L204.92 173.86C205.1 175.13 205.54 176.36 206.22 177.45Z"/>
						</g>
					</g>
					<g id="&lt;Group&gt;">
						<g id="&lt;Group&gt;">
							<path id="&lt;Path&gt;" class="shp6" d="M209.83 174.19C207.73 176.33 204.29 176.37 202.15 174.27C200 172.17 199.97 168.73 202.07 166.59C204.17 164.44 207.6 164.41 209.75 166.51C211.89 168.61 211.93 172.05 209.83 174.19Z"/>
						</g>
						<g id="&lt;Group&gt;">
							<path id="&lt;Path&gt;" class="shp8" d="M209.54 168.28C209.04 168.8 208.02 169.22 207.3 169.2C206.58 169.19 205.97 168.85 205.43 168.38C204.68 167.73 204.16 166.83 203.95 165.86C204.59 166.05 205.21 166.44 205.54 167.01C205.52 166.11 205.98 165.08 206.73 164.58C207.15 165.43 207.31 166.4 207.14 167.33C207.52 166.7 208.21 166.2 208.95 166.11C208.84 166.85 208.61 167.64 208.19 168.25C208.87 167.89 209.4 168.08 209.54 168.28Z"/>
						</g>
					</g>
					<g id="&lt;Group&gt;">
						<g id="&lt;Group&gt;">
							<path id="&lt;Path&gt;" class="shp6" d="M198.62 168.5C199.77 171.28 198.45 174.45 195.68 175.6C192.91 176.74 189.73 175.42 188.58 172.65C187.44 169.88 188.76 166.7 191.53 165.56C194.3 164.41 197.48 165.73 198.62 168.5Z"/>
						</g>
						<g id="&lt;Group&gt;">
							<path id="&lt;Path&gt;" class="shp8" d="M193.08 166.44C193.35 167.11 193.35 168.21 193.05 168.87C192.75 169.52 192.2 169.95 191.55 170.27C190.66 170.7 189.63 170.82 188.66 170.63C189.08 170.12 189.68 169.7 190.34 169.62C189.5 169.29 188.73 168.46 188.57 167.58C189.52 167.52 190.47 167.75 191.27 168.28C190.83 167.68 190.64 166.85 190.85 166.14C191.49 166.52 192.13 167.05 192.52 167.68C192.45 166.9 192.84 166.5 193.08 166.44Z"/>
						</g>
					</g>
					<g id="&lt;Group&gt;">
						<g id="&lt;Group&gt;">
							<g id="&lt;Group&gt;">
								<path id="&lt;Path&gt;" class="shp2" d="M248.14 195.81L186.4 195.81C183.16 195.81 180.54 193.18 180.54 189.95L180.54 178.53L254.01 178.53L254.01 189.95C254.01 193.18 251.38 195.81 248.14 195.81Z"/>
							</g>
						</g>
						<g id="&lt;Group&gt;">
							<path id="&lt;Path&gt;" class="shp8" d="M247.96 175.1L220.13 175.1C220.36 174.72 220.58 174.34 220.82 173.97C223.9 168.86 227.49 163.89 232.64 160.94C233.5 160.45 234.44 160.01 235.42 160.05C236.41 160.08 237.43 160.75 237.57 161.73C237.77 163.24 235.94 164.88 236.91 166.06C237.36 166.59 238.18 166.63 238.86 166.45C239.53 166.27 240.16 165.93 240.86 165.87C242.19 165.74 243.51 166.82 243.66 168.14C243.81 169.46 242.76 170.8 241.44 170.98C242.92 171.2 244.44 171.44 245.74 172.18C246.84 172.8 247.76 173.88 247.96 175.1Z"/>
							<g id="&lt;Group&gt;">
								<path id="&lt;Path&gt;" class="shp27" d="M231.66 167.22C228.53 170.02 225.08 172.56 221.7 175.1L220.13 175.1C220.36 174.72 220.58 174.34 220.82 173.97C224.11 171.27 227.78 168.76 231.56 167.11C231.64 167.07 231.73 167.17 231.66 167.22Z"/>
								<path id="&lt;Path&gt;" class="shp27" d="M236.56 169.6C234.35 170.67 232 171.37 229.8 172.48C228.28 173.26 226.84 174.14 225.45 175.1L223.58 175.1C227.31 172.33 231.96 169.76 236.49 169.35C236.62 169.35 236.68 169.55 236.56 169.6Z"/>
								<path id="&lt;Path&gt;" class="shp27" d="M240.19 172.39C238.31 173.26 236.22 173.66 234.27 174.36C233.64 174.58 233.01 174.83 232.41 175.1L229.11 175.1C232.51 173.36 236.63 171.95 240.1 172.06C240.26 172.07 240.36 172.31 240.19 172.39Z"/>
							</g>
						</g>
						<g id="&lt;Group&gt;">
							<path id="&lt;Path&gt;" class="shp28" d="M257.56 179.9L176.99 179.9L176.99 173.65L257.56 173.65L257.56 179.9Z"/>
						</g>
					</g>
					<g id="&lt;Group&gt;">
						<g id="&lt;Group&gt;">
							<g id="&lt;Group&gt;">
								<path id="&lt;Path&gt;" class="shp6" d="M128.29 171.21C129.44 173.99 128.12 177.16 125.34 178.31C122.57 179.45 119.4 178.14 118.25 175.36C117.1 172.59 118.42 169.41 121.2 168.27C123.97 167.12 127.14 168.44 128.29 171.21Z"/>
							</g>
							<g id="&lt;Group&gt;">
								<path id="&lt;Path&gt;" class="shp8" d="M122.75 169.15C123.02 169.82 123.01 170.92 122.71 171.58C122.41 172.24 121.87 172.66 121.22 172.98C120.33 173.41 119.29 173.54 118.32 173.34C118.74 172.83 119.35 172.41 120 172.33C119.17 172 118.4 171.17 118.23 170.29C119.18 170.24 120.14 170.46 120.93 170.99C120.49 170.39 120.31 169.56 120.52 168.85C121.16 169.23 121.79 169.76 122.19 170.39C122.12 169.62 122.51 169.21 122.75 169.15Z"/>
							</g>
						</g>
						<g id="&lt;Group&gt;">
							<path id="&lt;Path&gt;" class="shp8" d="M132.63 162.65C133.22 162.05 134.39 162.29 134.91 163.73C134.35 162.19 134.28 160.69 134.54 159.06C134.76 157.67 135.24 156.31 135.95 155.09C136.48 154.18 137.48 153.25 138.43 153.67C139.01 153.93 139.29 154.58 139.48 155.18C140.11 157.16 140.42 159.25 140.39 161.33C140.68 160.06 141.71 158.79 143 158.88C144.39 158.98 145.22 160.63 144.98 161.99C144.75 163.36 143.78 164.47 142.86 165.51C143.43 165.13 144.01 164.75 144.68 164.63C145.35 164.51 146.42 164.65 146.46 165.33C146.6 167.72 143.04 174.47 141.11 174.3C136.55 173.88 133.73 166.93 132.73 165.14C132.07 163.97 132.19 163.09 132.63 162.65Z"/>
							<path id="&lt;Path&gt;" class="shp27" d="M143.55 179.38C142.47 176.94 141.1 174.63 140.04 172.19C140.8 172.04 141.62 171.39 142.1 170.99C142.99 170.22 143.86 168.97 144.27 167.86C144.32 167.74 144.16 167.6 144.06 167.72C143.37 168.53 142.7 169.17 141.88 169.78C141.98 169.22 142.04 168.67 142.24 168.11C142.4 167.68 141.76 167.34 141.6 167.78C141.34 168.49 141.04 169.38 141.14 170.15C141.15 170.19 141.18 170.22 141.19 170.25C140.71 170.53 140.07 170.8 139.62 171.17C139.48 170.82 139.35 170.47 139.23 170.11C138.89 169.08 138.61 168.06 138.36 167.02C139.04 166.67 139.68 166.1 140.2 165.64C140.96 164.96 142.24 163.86 142.36 162.78C142.38 162.6 142.2 162.46 142.03 162.55C141.36 162.92 140.86 163.69 140.34 164.34C140.15 164.15 139.95 163.96 139.8 163.73C139.57 163.4 139.46 163.02 139.2 162.71C139.13 162.63 139.01 162.69 138.99 162.78C138.82 163.41 139.32 164.35 139.91 164.82C139.9 164.84 139.89 164.85 139.87 164.87C139.38 165.34 138.74 165.74 138.17 166.18C137.83 164.63 137.59 163.06 137.39 161.47C138.23 161.1 138.89 159.98 138.47 159.14C138.43 159.07 138.34 159.08 138.29 159.12C138.01 159.39 137.79 159.68 137.57 160C137.48 160.13 137.36 160.24 137.25 160.35C137.2 159.89 137.14 159.42 137.1 158.95C137.06 158.6 136.57 158.63 136.56 158.98C136.45 161.51 136.69 164.29 137.27 167.05C137.26 167.05 137.26 167.06 137.25 167.06C137.18 167.15 137.22 167.3 137.33 167.33C137.49 168.05 137.67 168.78 137.88 169.5C137.48 169.08 137.06 168.68 136.74 168.26C135.98 167.25 135.35 166.15 134.8 165.03C134.74 164.91 134.53 165 134.58 165.13C135.07 166.38 135.7 167.53 136.49 168.62C136.96 169.27 137.53 170.13 138.23 170.64C139.35 174.03 141.03 177.18 143.31 179.53C143.41 179.64 143.62 179.51 143.55 179.38Z"/>
						</g>
						<g id="&lt;Group&gt;">
							<g id="&lt;Group&gt;">
								<path id="&lt;Path&gt;" class="shp6" d="M138.61 176.01C136.46 178.09 133.02 178.03 130.93 175.88C128.85 173.72 128.91 170.28 131.06 168.2C133.22 166.11 136.66 166.17 138.74 168.33C140.83 170.49 140.77 173.92 138.61 176.01Z"/>
							</g>
							<g id="&lt;Group&gt;">
								<path id="&lt;Path&gt;" class="shp8" d="M138.49 170.1C137.97 170.6 136.94 170.99 136.22 170.96C135.5 170.92 134.9 170.57 134.37 170.08C133.65 169.41 133.15 168.49 132.97 167.52C133.6 167.73 134.21 168.13 134.52 168.71C134.52 167.81 135.02 166.79 135.78 166.31C136.17 167.18 136.31 168.15 136.12 169.08C136.51 168.46 137.22 167.98 137.96 167.91C137.83 168.65 137.58 169.43 137.14 170.03C137.83 169.68 138.35 169.89 138.49 170.1Z"/>
							</g>
						</g>
						<g id="&lt;Group&gt;">
							<path id="&lt;Path&gt;" class="shp8" d="M159.06 169.6C158.75 168.92 157.7 168.76 156.82 169.81C157.76 168.69 158.28 167.46 158.56 166.02C158.8 164.78 158.82 163.5 158.59 162.26C158.43 161.35 157.88 160.26 156.96 160.32C156.39 160.36 155.96 160.82 155.62 161.26C154.49 162.73 153.59 164.37 152.98 166.12C153.12 164.97 152.66 163.6 151.54 163.28C150.36 162.94 149.15 164.06 148.93 165.27C148.72 166.49 149.18 167.71 149.64 168.86C149.28 168.37 148.9 167.87 148.38 167.57C147.86 167.27 146.92 167.05 146.68 167.61C145.83 169.56 146.75 176.3 148.41 176.74C152.35 177.79 156.83 172.84 158.21 171.66C159.13 170.87 159.29 170.1 159.06 169.6Z"/>
							<path id="&lt;Path&gt;" class="shp27" d="M144.81 180.24C146.47 178.53 148.32 177.02 149.95 175.31C149.36 174.95 148.87 174.15 148.6 173.67C148.08 172.76 147.74 171.45 147.74 170.4C147.74 170.28 147.91 170.21 147.96 170.34C148.29 171.23 148.65 171.97 149.15 172.73C149.24 172.23 149.36 171.75 149.36 171.23C149.36 170.82 149.99 170.73 149.99 171.14C150 171.82 149.97 172.65 149.65 173.27C149.64 173.3 149.6 173.31 149.58 173.33C149.89 173.71 150.34 174.14 150.61 174.59C150.83 174.34 151.05 174.08 151.26 173.82C151.86 173.07 152.41 172.29 152.93 171.5C152.47 171 152.11 170.33 151.82 169.78C151.39 168.98 150.65 167.68 150.89 166.74C150.93 166.58 151.12 166.51 151.24 166.65C151.68 167.16 151.86 167.96 152.1 168.66C152.32 168.55 152.54 168.45 152.74 168.31C153.03 168.1 153.24 167.82 153.55 167.64C153.63 167.6 153.71 167.69 153.71 167.76C153.65 168.34 152.95 168.98 152.31 169.19C152.31 169.21 152.32 169.22 152.33 169.24C152.59 169.79 153.01 170.32 153.35 170.86C154.11 169.66 154.79 168.43 155.45 167.16C154.85 166.59 154.64 165.46 155.26 164.88C155.31 164.83 155.38 164.87 155.41 164.92C155.56 165.23 155.66 165.54 155.74 165.87C155.78 166.01 155.84 166.14 155.9 166.27C156.09 165.89 156.27 165.52 156.46 165.14C156.59 164.86 156.99 165.04 156.9 165.33C156.21 167.48 155.17 169.73 153.84 171.86C153.84 171.86 153.84 171.87 153.85 171.87C153.88 171.97 153.8 172.08 153.7 172.07C153.34 172.63 152.97 173.18 152.58 173.72C153.04 173.5 153.51 173.29 153.91 173.03C154.85 172.42 155.71 171.7 156.52 170.93C156.61 170.84 156.75 170.99 156.67 171.08C155.88 171.97 155 172.74 154.01 173.41C153.42 173.81 152.68 174.35 151.93 174.57C149.96 177.06 147.59 179.18 144.97 180.45C144.86 180.5 144.72 180.34 144.81 180.24Z"/>
						</g>
						<g id="&lt;Group&gt;">
							<path id="&lt;Path&gt;" class="shp5" d="M151.52 195.81L122.75 195.81C118.81 195.81 115.62 192.62 115.62 188.68L115.62 173.58L158.65 173.58L158.65 188.68C158.65 192.62 155.46 195.81 151.52 195.81Z"/>
						</g>
					</g>
					<g id="&lt;Group&gt;">
						<path id="&lt;Path&gt;" class="shp5" d="M94.65 237.01L39.8 237.01C35.76 237.01 32.49 233.74 32.49 229.7C32.49 225.67 35.76 222.4 39.8 222.4L94.65 222.4C98.68 222.4 101.95 225.67 101.95 229.7C101.95 233.74 98.68 237.01 94.65 237.01Z"/>
						<g id="&lt;Group&gt;">
							<path id="&lt;Path&gt;" class="shp10" d="M95.39 240.49L39.06 240.49L39.06 236.78L95.39 236.78L95.39 240.49Z"/>
						</g>
						<g id="&lt;Group&gt;">
							<path id="&lt;Path&gt;" class="shp10" d="M92.8 262.13L41.65 262.13L41.65 258.42L92.8 258.42L92.8 262.13Z"/>
						</g>
						<g id="&lt;Group&gt;">
							<path id="&lt;Path&gt;" class="shp10" d="M99.79 360.84L34.66 360.84L34.66 357.13L99.79 357.13L99.79 360.84Z"/>
						</g>
						<g id="&lt;Group&gt;">
							<g id="&lt;Group&gt;">
								<path id="&lt;Path&gt;" class="shp10" d="M35.7 379.88L47.69 238.71L42.1 238.71L30.11 379.88L35.7 379.88Z"/>
							</g>
							<g id="&lt;Group&gt;">
								<path id="&lt;Path&gt;" class="shp10" d="M98.75 379.88L86.76 238.71L92.34 238.71L104.33 379.88L98.75 379.88Z"/>
							</g>
						</g>
					</g>
					<g id="&lt;Group&gt;">
						<g id="&lt;Group&gt;">
							<g id="&lt;Group&gt;">
								<path id="&lt;Path&gt;" class="shp8" d="M85.7 118.59C84.62 119.35 83.72 120.32 82.63 121.07C82.11 121.42 81.5 121.76 80.95 122.14C80.5 120.02 79.88 117.93 79.11 115.9C80.59 115.58 81.92 115.03 83.11 114.08C84.25 113.18 85.71 111.5 85.24 109.96C84.96 109.05 84.13 108.7 83.25 108.83C82.13 109 81.21 110.4 80.41 111.14C79.64 111.86 78.8 112.46 77.86 112.92C77.27 111.61 76.6 110.21 75.82 108.79C75.84 108.79 75.85 108.79 75.87 108.79C77.27 108.59 79.1 107.05 79.95 105.96C80.97 104.67 81.85 102.48 80.62 101.1C80.27 100.72 79.71 100.63 79.24 100.74C77.94 101.04 77.25 102.66 76.64 103.73C76.35 104.25 76.18 104.81 75.82 105.28C75.43 105.79 74.95 106.18 74.59 106.69C73.8 105.44 72.96 104.22 72.04 103.12C74.4 101.19 75.64 97.59 74.06 94.75C73.24 93.29 71.01 93.65 70.56 95.21C70.23 96.35 70.31 97.68 70.19 98.87C70.11 99.63 70.16 100.42 70.21 101.21C69.44 100.5 68.63 99.88 67.78 99.4C67.71 99.27 67.61 99.15 67.45 99.06C66.7 98.62 66.09 97.57 65.37 97.04C64.49 96.39 63.45 96.01 62.39 95.76C60.52 95.33 57.78 94.56 56.39 96.28C55.88 96.91 55.69 97.69 56.11 98.43C57.12 100.22 59.28 100.11 61.08 100.52C61.94 100.71 62.84 100.97 63.73 101.01C64.47 101.04 65.51 100.74 66.32 100.83C66.99 101.88 67.83 102.84 68.7 103.78C68.19 103.66 67.7 103.58 67.28 103.53C65.17 103.29 62.56 103.13 60.88 104.58C60.18 105.18 60.38 106.46 61.18 106.88C62.86 107.76 65.14 107.43 67.02 107.51C68.4 107.57 70.38 107.8 71.77 107.26C71.89 107.43 72.02 107.58 72.13 107.75C72.94 108.91 73.69 110.12 74.39 111.35C73.58 111.2 72.75 111.23 71.91 111.19C70.5 111.13 69.15 110.59 67.75 110.61C65.87 110.64 65.07 113.26 66.77 114.21C69.02 115.46 73.51 115.42 75.51 113.49C75.98 114.43 76.42 115.38 76.82 116.35C77.12 117.09 77.39 117.83 77.64 118.57C77.13 118.46 76.58 118.47 75.97 118.41C74.78 118.3 73.65 117.89 72.48 117.66C69.78 117.16 68.76 120.83 71.35 121.77C72.76 122.28 74.28 122.22 75.75 122C76.65 121.86 77.72 121.7 78.43 121.11C79.74 125.9 80.21 130.82 80.19 135.88C80.19 136.56 81.29 136.75 81.41 136.05C82 132.37 81.97 128.61 81.44 124.91C82.48 125.02 83.67 124.72 84.49 124.37C86.01 123.72 87.56 122.75 88.37 121.26C89.24 119.67 87.38 117.4 85.7 118.59Z"/>
								<path id="&lt;Path&gt;" class="shp8" d="M84.67 117.39C85.74 118.16 86.64 119.13 87.74 119.88C88.26 120.23 88.87 120.56 89.41 120.95C89.87 118.82 90.49 116.73 91.26 114.71C89.78 114.39 88.45 113.84 87.25 112.89C86.12 111.99 84.66 110.31 85.13 108.77C85.4 107.86 86.23 107.5 87.12 107.64C88.24 107.8 89.16 109.2 89.96 109.95C90.73 110.66 91.56 111.27 92.51 111.72C93.09 110.42 93.77 109.01 94.55 107.6C94.53 107.59 94.51 107.6 94.5 107.6C93.1 107.39 91.27 105.85 90.41 104.77C89.4 103.48 88.51 101.29 89.75 99.91C90.09 99.53 90.65 99.43 91.13 99.54C92.42 99.84 93.12 101.47 93.72 102.54C94.01 103.05 94.18 103.62 94.55 104.09C94.94 104.59 95.41 104.98 95.78 105.5C96.56 104.24 97.41 103.02 98.33 101.92C95.97 100 94.73 96.39 96.31 93.55C97.12 92.1 99.36 92.46 99.8 94.01C100.13 95.16 100.05 96.48 100.18 97.68C100.25 98.44 100.21 99.23 100.15 100.01C100.93 99.3 101.73 98.68 102.58 98.21C102.66 98.07 102.76 97.95 102.91 97.86C103.66 97.42 104.27 96.38 105 95.85C105.88 95.2 106.91 94.82 107.98 94.57C109.85 94.13 112.59 93.37 113.98 95.08C114.49 95.71 114.67 96.49 114.26 97.23C113.25 99.02 111.09 98.91 109.29 99.32C108.43 99.52 107.53 99.77 106.64 99.81C105.9 99.84 104.86 99.54 104.05 99.64C103.38 100.68 102.54 101.64 101.67 102.59C102.18 102.47 102.66 102.38 103.08 102.33C105.2 102.09 107.8 101.93 109.48 103.39C110.18 103.99 109.98 105.27 109.19 105.69C107.5 106.57 105.23 106.23 103.35 106.31C101.97 106.37 99.98 106.61 98.6 106.07C98.48 106.23 98.35 106.39 98.23 106.55C97.42 107.72 96.68 108.92 95.98 110.16C96.78 110.01 97.61 110.03 98.46 110C99.87 109.94 101.22 109.4 102.62 109.42C104.49 109.45 105.3 112.07 103.59 113.02C101.35 114.27 96.85 114.23 94.85 112.29C94.39 113.23 93.94 114.18 93.55 115.16C93.25 115.89 92.97 116.63 92.72 117.37C93.24 117.27 93.79 117.27 94.39 117.22C95.58 117.1 96.72 116.69 97.89 116.47C100.58 115.96 101.6 119.64 99.02 120.57C97.6 121.08 96.09 121.03 94.62 120.81C93.71 120.67 92.65 120.51 91.94 119.91C90.62 124.71 90.16 129.63 90.17 134.69C90.18 135.36 89.07 135.56 88.96 134.85C88.37 131.18 88.39 127.42 88.92 123.72C87.88 123.82 86.7 123.53 85.88 123.18C84.36 122.53 82.81 121.56 82 120.06C81.13 118.47 82.98 116.2 84.67 117.39Z"/>
								<path id="&lt;Path&gt;" class="shp27" d="M76.87 120.69C78.19 120.82 79.45 121.21 80.78 121.31C81.4 121.35 82.09 121.34 82.76 121.4C82.1 119.33 81.59 117.21 81.24 115.08C79.8 115.53 78.37 115.72 76.86 115.5C75.43 115.28 73.33 114.56 72.96 112.99C72.75 112.06 73.29 111.34 74.12 111.02C75.17 110.6 76.67 111.35 77.73 111.6C78.76 111.83 79.78 111.94 80.83 111.86C80.68 110.44 80.57 108.88 80.53 107.27C80.52 107.28 80.51 107.29 80.49 107.29C79.18 107.82 76.82 107.4 75.54 106.88C74.02 106.28 72.16 104.82 72.54 103.01C72.64 102.51 73.08 102.15 73.55 102C74.82 101.62 76.24 102.68 77.29 103.3C77.8 103.6 78.23 104 78.78 104.23C79.37 104.47 79.98 104.57 80.55 104.84C80.6 103.36 80.73 101.88 80.98 100.47C77.97 99.97 75.09 97.48 75.04 94.23C75.02 92.56 77.14 91.75 78.3 92.87C79.16 93.7 79.75 94.89 80.45 95.86C80.9 96.48 81.26 97.19 81.6 97.9C81.92 96.9 82.31 95.96 82.8 95.12C82.8 94.97 82.83 94.81 82.92 94.66C83.35 93.9 83.35 92.69 83.71 91.87C84.15 90.87 84.86 90.02 85.66 89.27C87.06 87.96 89.05 85.93 91.11 86.72C91.87 87.01 92.42 87.59 92.43 88.44C92.45 90.5 90.52 91.48 89.17 92.74C88.52 93.34 87.87 94 87.12 94.48C86.49 94.88 85.44 95.14 84.79 95.63C84.73 96.87 84.48 98.12 84.2 99.37C84.58 99.01 84.96 98.7 85.3 98.45C87.01 97.18 89.18 95.74 91.37 96.16C92.27 96.33 92.74 97.54 92.26 98.3C91.24 99.9 89.1 100.75 87.52 101.76C86.35 102.5 84.75 103.7 83.28 103.92C83.26 104.12 83.23 104.32 83.21 104.52C83.09 105.94 83.04 107.35 83.06 108.77C83.68 108.24 84.41 107.85 85.12 107.39C86.31 106.64 87.22 105.5 88.44 104.81C90.08 103.9 92.08 105.77 91.08 107.44C89.76 109.65 85.85 111.86 83.14 111.18C83.21 112.23 83.3 113.28 83.45 114.32C83.55 115.11 83.69 115.88 83.84 116.65C84.23 116.3 84.71 116.03 85.21 115.68C86.18 114.99 86.96 114.06 87.86 113.29C89.94 111.5 92.67 114.17 90.89 116.27C89.92 117.42 88.58 118.13 87.2 118.67C86.35 119.01 85.34 119.4 84.43 119.24C85.69 124.05 87.74 128.54 90.29 132.92C90.63 133.5 89.77 134.23 89.32 133.67C86.97 130.78 85.11 127.51 83.72 124.04C82.87 124.66 81.7 124.99 80.81 125.1C79.17 125.3 77.35 125.23 75.89 124.34C74.35 123.39 74.82 120.5 76.87 120.69Z"/>
								<path id="&lt;Path&gt;" class="shp27" d="M89.23 115.49C90 116.57 90.54 117.78 91.33 118.84C91.71 119.34 92.17 119.86 92.57 120.4C93.69 118.54 94.96 116.76 96.34 115.1C95.05 114.31 93.97 113.36 93.15 112.07C92.37 110.85 91.54 108.79 92.48 107.49C93.04 106.71 93.94 106.65 94.73 107.07C95.73 107.59 96.15 109.21 96.66 110.17C97.16 111.1 97.75 111.94 98.49 112.68C99.47 111.64 100.57 110.53 101.77 109.45C101.75 109.44 101.74 109.44 101.72 109.43C100.46 108.78 99.24 106.73 98.78 105.43C98.24 103.88 98.12 101.52 99.74 100.61C100.18 100.37 100.74 100.46 101.16 100.72C102.28 101.43 102.41 103.19 102.64 104.4C102.74 104.98 102.72 105.57 102.91 106.13C103.12 106.73 103.44 107.26 103.62 107.87C104.76 106.93 105.96 106.05 107.19 105.32C105.59 102.72 105.59 98.91 108.01 96.74C109.25 95.63 111.25 96.7 111.16 98.31C111.1 99.5 110.59 100.73 110.32 101.9C110.15 102.64 109.85 103.38 109.54 104.1C110.5 103.68 111.47 103.36 112.42 103.18C112.54 103.08 112.67 103 112.85 102.97C113.7 102.8 114.62 102.01 115.47 101.74C116.52 101.42 117.62 101.39 118.71 101.5C120.62 101.7 123.46 101.87 124.22 103.94C124.49 104.7 124.41 105.5 123.78 106.07C122.24 107.43 120.24 106.62 118.4 106.42C117.52 106.33 116.59 106.27 115.73 106.02C115.02 105.81 114.14 105.19 113.35 105.02C112.37 105.79 111.26 106.42 110.13 107.03C110.65 107.08 111.14 107.16 111.55 107.25C113.63 107.71 116.14 108.41 117.26 110.33C117.72 111.13 117.12 112.27 116.23 112.41C114.35 112.69 112.31 111.63 110.51 111.1C109.19 110.7 107.23 110.28 106.1 109.32C105.93 109.44 105.76 109.54 105.59 109.66C104.45 110.5 103.35 111.39 102.29 112.33C103.1 112.45 103.87 112.75 104.68 112.99C106.04 113.39 107.49 113.32 108.81 113.8C110.57 114.44 110.48 117.18 108.56 117.52C106.03 117.97 101.79 116.47 100.53 113.98C99.78 114.72 99.05 115.48 98.36 116.27C97.84 116.87 97.34 117.48 96.86 118.1C97.38 118.16 97.9 118.35 98.49 118.49C99.65 118.77 100.86 118.75 102.04 118.92C104.75 119.32 104.52 123.13 101.77 123.17C100.27 123.19 98.85 122.65 97.54 121.96C96.72 121.53 95.77 121.03 95.29 120.24C92.49 124.35 90.44 128.85 88.81 133.64C88.59 134.28 87.49 134.1 87.61 133.4C88.25 129.73 89.49 126.18 91.2 122.86C90.18 122.62 89.16 121.95 88.5 121.35C87.27 120.25 86.12 118.82 85.84 117.15C85.54 115.36 88.03 113.82 89.23 115.49Z"/>
							</g>
							<g id="&lt;Group&gt;">
								<path id="&lt;Path&gt;" class="shp25" d="M100.13 127.35L100.13 165.05L73.88 165.05L73.88 127.35L100.13 127.35Z"/>
							</g>
						</g>
						<g id="&lt;Group&gt;">
							<path id="&lt;Path&gt;" class="shp3" d="M100.13 130.47L100.13 132.38L73.88 132.38L73.88 130.47L100.13 130.47Z"/>
						</g>
						<g id="&lt;Group&gt;">
							<path id="&lt;Path&gt;" class="shp3" d="M100.13 160.01L100.13 161.93L73.88 161.93L73.88 160.01L100.13 160.01Z"/>
						</g>
					</g>
					<g id="&lt;Group&gt;">
						<g id="&lt;Group&gt;">
							<path id="&lt;Path&gt;" class="shp16" d="M123.36 165.05L109.42 165.05L109.42 146.71L123.36 146.71L123.36 165.05Z"/>
						</g>
						<g id="&lt;Group&gt;">
							<g id="&lt;Group&gt;">
								<g id="&lt;Group&gt;">
									<path id="&lt;Compound Path&gt;" fill-rule="evenodd" class="shp16" d="M124.79 162.91L119.34 162.91L119.34 148.85L124.79 148.85C126.79 148.85 128.43 150.49 128.43 152.49L128.43 159.26C128.43 161.27 126.79 162.91 124.79 162.91ZM121.42 160.82L124.79 160.82C125.65 160.82 126.35 160.12 126.35 159.26L126.35 152.49C126.35 151.63 125.65 150.93 124.79 150.93L121.42 150.93L121.42 160.82Z"/>
								</g>
							</g>
						</g>
					</g>
				</g>
			</g>
		</g>
	</g>
</svg>
