<?xml version="1.0"?>
<svg xmlns="http://www.w3.org/2000/svg" xmlns:xlink="http://www.w3.org/1999/xlink" viewBox="0 0 415.25 500.2">
  <defs>
    <style>.cls-1{mask:url(#mask);}.cls-14,.cls-17,.cls-19,.cls-2,.cls-21,.cls-29,.cls-49,.cls-5,.cls-51,.cls-53,.cls-57,.cls-61{mix-blend-mode:multiply;}.cls-2{fill:url(#&#xC1;&#xE5;&#xE7;&#xFB;&#xEC;&#xFF;&#xED;&#xED;&#xFB;&#xE9;_&#xE3;&#xF0;&#xE0;&#xE4;&#xE8;&#xE5;&#xED;&#xF2;_13);}.cls-3{isolation:isolate;}.cls-4{fill:url(#linear-gradient);}.cls-17,.cls-5{fill:#51070f;}.cls-20,.cls-5,.cls-81{opacity:0.29;}.cls-6{fill:url(#&#xC1;&#xE5;&#xE7;&#xFB;&#xEC;&#xFF;&#xED;&#xED;&#xFB;&#xE9;_&#xE3;&#xF0;&#xE0;&#xE4;&#xE8;&#xE5;&#xED;&#xF2;_141);}.cls-7{fill:url(#&#xC1;&#xE5;&#xE7;&#xFB;&#xEC;&#xFF;&#xED;&#xED;&#xFB;&#xE9;_&#xE3;&#xF0;&#xE0;&#xE4;&#xE8;&#xE5;&#xED;&#xF2;_51);}.cls-8{fill:url(#&#xC1;&#xE5;&#xE7;&#xFB;&#xEC;&#xFF;&#xED;&#xED;&#xFB;&#xE9;_&#xE3;&#xF0;&#xE0;&#xE4;&#xE8;&#xE5;&#xED;&#xF2;_51-2);}.cls-10,.cls-24,.cls-9{fill:#00e4ff;}.cls-12,.cls-15,.cls-9{opacity:0.33;}.cls-10,.cls-12,.cls-15,.cls-20,.cls-24,.cls-28,.cls-30,.cls-58,.cls-60,.cls-9{mix-blend-mode:color-dodge;}.cls-10{opacity:0.49;}.cls-11{mask:url(#mask-2);}.cls-12{fill:url(#&#xC1;&#xE5;&#xE7;&#xFB;&#xEC;&#xFF;&#xED;&#xED;&#xFB;&#xE9;_&#xE3;&#xF0;&#xE0;&#xE4;&#xE8;&#xE5;&#xED;&#xF2;_69);}.cls-13{fill:url(#&#xC1;&#xE5;&#xE7;&#xFB;&#xEC;&#xFF;&#xED;&#xED;&#xFB;&#xE9;_&#xE3;&#xF0;&#xE0;&#xE4;&#xE8;&#xE5;&#xED;&#xF2;_88);}.cls-14,.cls-29,.cls-57{fill:#004d5b;}.cls-14{opacity:0.38;}.cls-15,.cls-28,.cls-30,.cls-58{fill:#ff6ed6;}.cls-16{fill:#20233e;}.cls-17,.cls-49{opacity:0.46;}.cls-18{fill:url(#linear-gradient-2);}.cls-19{fill:#7d8fad;}.cls-20{fill:#4bff5f;}.cls-21{fill:#f05abb;}.cls-22{fill:url(#linear-gradient-3);}.cls-23{fill:url(#&#xC1;&#xE5;&#xE7;&#xFB;&#xEC;&#xFF;&#xED;&#xED;&#xFB;&#xE9;_&#xE3;&#xF0;&#xE0;&#xE4;&#xE8;&#xE5;&#xED;&#xF2;_133);}.cls-24{opacity:0.72;}.cls-25{fill:url(#&#xC1;&#xE5;&#xE7;&#xFB;&#xEC;&#xFF;&#xED;&#xED;&#xFB;&#xE9;_&#xE3;&#xF0;&#xE0;&#xE4;&#xE8;&#xE5;&#xED;&#xF2;_133-2);}.cls-26{fill:url(#&#xC1;&#xE5;&#xE7;&#xFB;&#xEC;&#xFF;&#xED;&#xED;&#xFB;&#xE9;_&#xE3;&#xF0;&#xE0;&#xE4;&#xE8;&#xE5;&#xED;&#xF2;_133-3);}.cls-27{fill:url(#&#xC1;&#xE5;&#xE7;&#xFB;&#xEC;&#xFF;&#xED;&#xED;&#xFB;&#xE9;_&#xE3;&#xF0;&#xE0;&#xE4;&#xE8;&#xE5;&#xED;&#xF2;_133-4);}.cls-28,.cls-53{opacity:0.67;}.cls-29{opacity:0.55;}.cls-30{opacity:0.62;}.cls-31{fill:url(#&#xC1;&#xE5;&#xE7;&#xFB;&#xEC;&#xFF;&#xED;&#xED;&#xFB;&#xE9;_&#xE3;&#xF0;&#xE0;&#xE4;&#xE8;&#xE5;&#xED;&#xF2;_133-5);}.cls-32{fill:url(#&#xC1;&#xE5;&#xE7;&#xFB;&#xEC;&#xFF;&#xED;&#xED;&#xFB;&#xE9;_&#xE3;&#xF0;&#xE0;&#xE4;&#xE8;&#xE5;&#xED;&#xF2;_133-6);}.cls-33{fill:url(#&#xC1;&#xE5;&#xE7;&#xFB;&#xEC;&#xFF;&#xED;&#xED;&#xFB;&#xE9;_&#xE3;&#xF0;&#xE0;&#xE4;&#xE8;&#xE5;&#xED;&#xF2;_133-7);}.cls-34{fill:url(#&#xC1;&#xE5;&#xE7;&#xFB;&#xEC;&#xFF;&#xED;&#xED;&#xFB;&#xE9;_&#xE3;&#xF0;&#xE0;&#xE4;&#xE8;&#xE5;&#xED;&#xF2;_133-8);}.cls-35{fill:url(#&#xC1;&#xE5;&#xE7;&#xFB;&#xEC;&#xFF;&#xED;&#xED;&#xFB;&#xE9;_&#xE3;&#xF0;&#xE0;&#xE4;&#xE8;&#xE5;&#xED;&#xF2;_133-9);}.cls-36{fill:url(#&#xC1;&#xE5;&#xE7;&#xFB;&#xEC;&#xFF;&#xED;&#xED;&#xFB;&#xE9;_&#xE3;&#xF0;&#xE0;&#xE4;&#xE8;&#xE5;&#xED;&#xF2;_133-10);}.cls-37{fill:url(#&#xC1;&#xE5;&#xE7;&#xFB;&#xEC;&#xFF;&#xED;&#xED;&#xFB;&#xE9;_&#xE3;&#xF0;&#xE0;&#xE4;&#xE8;&#xE5;&#xED;&#xF2;_133-11);}.cls-38{fill:url(#&#xC1;&#xE5;&#xE7;&#xFB;&#xEC;&#xFF;&#xED;&#xED;&#xFB;&#xE9;_&#xE3;&#xF0;&#xE0;&#xE4;&#xE8;&#xE5;&#xED;&#xF2;_133-12);}.cls-39{fill:#231f20;}.cls-40{fill:#3d3230;}.cls-41{fill:#6d6e71;}.cls-42{fill:#3f3f3f;}.cls-43{fill:#a7a9ac;}.cls-44{fill:#414042;}.cls-45{fill:#fcd9b1;}.cls-46{fill:#d1d3d4;}.cls-47{fill:#f07b20;}.cls-48{fill:#ef651f;}.cls-49{fill:#8d5c80;}.cls-50{fill:url(#&#xC1;&#xE5;&#xE7;&#xFB;&#xEC;&#xFF;&#xED;&#xED;&#xFB;&#xE9;_&#xE3;&#xF0;&#xE0;&#xE4;&#xE8;&#xE5;&#xED;&#xF2;_17);}.cls-51,.cls-53{fill:#d097b4;}.cls-51,.cls-65{opacity:0.41;}.cls-52{fill:url(#&#xC1;&#xE5;&#xE7;&#xFB;&#xEC;&#xFF;&#xED;&#xED;&#xFB;&#xE9;_&#xE3;&#xF0;&#xE0;&#xE4;&#xE8;&#xE5;&#xED;&#xF2;_17-2);}.cls-54{fill:url(#&#xC1;&#xE5;&#xE7;&#xFB;&#xEC;&#xFF;&#xED;&#xED;&#xFB;&#xE9;_&#xE3;&#xF0;&#xE0;&#xE4;&#xE8;&#xE5;&#xED;&#xF2;_17-3);}.cls-55{fill:url(#&#xC1;&#xE5;&#xE7;&#xFB;&#xEC;&#xFF;&#xED;&#xED;&#xFB;&#xE9;_&#xE3;&#xF0;&#xE0;&#xE4;&#xE8;&#xE5;&#xED;&#xF2;_17-4);}.cls-56{fill:url(#&#xC1;&#xE5;&#xE7;&#xFB;&#xEC;&#xFF;&#xED;&#xED;&#xFB;&#xE9;_&#xE3;&#xF0;&#xE0;&#xE4;&#xE8;&#xE5;&#xED;&#xF2;_51-3);}.cls-57{opacity:0.37;}.cls-58{opacity:0.48;}.cls-59{fill:url(#&#xC1;&#xE5;&#xE7;&#xFB;&#xEC;&#xFF;&#xED;&#xED;&#xFB;&#xE9;_&#xE3;&#xF0;&#xE0;&#xE4;&#xE8;&#xE5;&#xED;&#xF2;_42);}.cls-60{opacity:0.36;fill:url(#&#xC1;&#xE5;&#xE7;&#xFB;&#xEC;&#xFF;&#xED;&#xED;&#xFB;&#xE9;_&#xE3;&#xF0;&#xE0;&#xE4;&#xE8;&#xE5;&#xED;&#xF2;_31);}.cls-61{fill:#8697b4;opacity:0.74;}.cls-62{fill:#fff;}.cls-63{fill:url(#&#xC1;&#xE5;&#xE7;&#xFB;&#xEC;&#xFF;&#xED;&#xED;&#xFB;&#xE9;_&#xE3;&#xF0;&#xE0;&#xE4;&#xE8;&#xE5;&#xED;&#xF2;_17-5);}.cls-64{fill:url(#&#xC1;&#xE5;&#xE7;&#xFB;&#xEC;&#xFF;&#xED;&#xED;&#xFB;&#xE9;_&#xE3;&#xF0;&#xE0;&#xE4;&#xE8;&#xE5;&#xED;&#xF2;_17-6);}.cls-65{mix-blend-mode:color-burn;fill:url(#&#xC1;&#xE5;&#xE7;&#xFB;&#xEC;&#xFF;&#xED;&#xED;&#xFB;&#xE9;_&#xE3;&#xF0;&#xE0;&#xE4;&#xE8;&#xE5;&#xED;&#xF2;_48);}.cls-66{fill:#ffb882;}.cls-67{fill:#b79763;}.cls-68{fill:#f2f4f4;}.cls-69{fill:#d6d8d8;}.cls-70{fill:#ff934a;}.cls-71{fill:#d65c80;}.cls-72{fill:#ef7ba1;}.cls-73{fill:#ff774d;}.cls-74{fill:#ffae4d;}.cls-75{fill:#c6c639;}.cls-76{fill:#796d84;}.cls-77{fill:#ff9d6c;}.cls-78{fill:#7f6366;}.cls-79{fill:#8e7973;}.cls-80{fill:#6d565a;}.cls-82{fill:#ff9566;}.cls-83{fill:#9e2b20;}.cls-84{fill:#841a15;}.cls-85{fill:#d3583c;}.cls-86{filter:url(#luminosity-noclip-2);}.cls-87{filter:url(#luminosity-noclip);}</style>
    <filter id="luminosity-noclip" x="224.85" y="-8492" width="137.11" height="32766" filterUnits="userSpaceOnUse" color-interpolation-filters="sRGB">
      <feFlood flood-color="#fff" result="bg"/>
      <feBlend in="SourceGraphic" in2="bg"/>
    </filter>
    <mask id="mask" x="224.85" y="-8492" width="137.11" height="32766" maskUnits="userSpaceOnUse">
      <g class="cls-87"/>
    </mask>
    <linearGradient id="&#xC1;&#xE5;&#xE7;&#xFB;&#xEC;&#xFF;&#xED;&#xED;&#xFB;&#xE9;_&#xE3;&#xF0;&#xE0;&#xE4;&#xE8;&#xE5;&#xED;&#xF2;_13" x1="293.4" y1="582.7" x2="293.4" y2="443.56" gradientUnits="userSpaceOnUse">
      <stop offset="0" stop-color="#030303"/>
      <stop offset="1" stop-color="#fff"/>
    </linearGradient>
    <linearGradient id="linear-gradient" x1="317.94" y1="317.74" x2="-69.24" y2="450.95" gradientUnits="userSpaceOnUse">
      <stop offset="0" stop-color="#e6e6e6"/>
      <stop offset="1" stop-color="#333"/>
    </linearGradient>
    <linearGradient id="&#xC1;&#xE5;&#xE7;&#xFB;&#xEC;&#xFF;&#xED;&#xED;&#xFB;&#xE9;_&#xE3;&#xF0;&#xE0;&#xE4;&#xE8;&#xE5;&#xED;&#xF2;_141" x1="47.01" y1="450.88" x2="205.73" y2="352.07" gradientUnits="userSpaceOnUse">
      <stop offset="0" stop-color="#7d869a"/>
      <stop offset="0.45" stop-color="#bceeff"/>
      <stop offset="1" stop-color="#6f819a"/>
    </linearGradient>
    <linearGradient id="&#xC1;&#xE5;&#xE7;&#xFB;&#xEC;&#xFF;&#xED;&#xED;&#xFB;&#xE9;_&#xE3;&#xF0;&#xE0;&#xE4;&#xE8;&#xE5;&#xED;&#xF2;_51" x1="147.22" y1="284.69" x2="109.61" y2="463.18" gradientUnits="userSpaceOnUse">
      <stop offset="0" stop-color="#7d869a"/>
      <stop offset="0.45" stop-color="#bceeff"/>
      <stop offset="1" stop-color="#7b6466"/>
    </linearGradient>
    <linearGradient id="&#xC1;&#xE5;&#xE7;&#xFB;&#xEC;&#xFF;&#xED;&#xED;&#xFB;&#xE9;_&#xE3;&#xF0;&#xE0;&#xE4;&#xE8;&#xE5;&#xED;&#xF2;_51-2" x1="-31.8" y1="375.46" x2="304.15" y2="253.07" xlink:href="#&#xC1;&#xE5;&#xE7;&#xFB;&#xEC;&#xFF;&#xED;&#xED;&#xFB;&#xE9;_&#xE3;&#xF0;&#xE0;&#xE4;&#xE8;&#xE5;&#xED;&#xF2;_51"/>
    <filter id="luminosity-noclip-2" x="224.85" y="450.82" width="137.11" height="93.47" filterUnits="userSpaceOnUse" color-interpolation-filters="sRGB">
      <feFlood flood-color="#fff" result="bg"/>
      <feBlend in="SourceGraphic" in2="bg"/>
    </filter>
    <mask id="mask-2" x="55.88" y="362.28" width="137.11" height="93.47" maskUnits="userSpaceOnUse">
      <g class="cls-86">
        <g transform="translate(-168.97 -88.54)">
          <g class="cls-1">
            <path class="cls-2" d="M362,450.82,360.71,471l-.21,3.33-.82,13.28-.07,1.09L358.72,503l-.23,3.78-.8,12.87-.09,1.41-1.05,17-.16,2.6-.23,3.59h-122c0-.11-.16-1.4-.38-3.59-.05-.48-.11-1-.16-1.58-.4-3.85-1-9.58-1.64-16.31-.1-1-.2-2.06-.31-3.12-.44-4.52-.93-9.39-1.42-14.39-.07-.75-.15-1.5-.22-2.26-.39-4-.79-8-1.18-11.92-.05-.53-.1-1.07-.16-1.6-.52-5.3-1-10.46-1.49-15.19q-.16-1.71-.33-3.33c-1.16-11.77-2-20.18-2-20.18Z"/>
          </g>
        </g>
      </g>
    </mask>
    <linearGradient id="&#xC1;&#xE5;&#xE7;&#xFB;&#xEC;&#xFF;&#xED;&#xED;&#xFB;&#xE9;_&#xE3;&#xF0;&#xE0;&#xE4;&#xE8;&#xE5;&#xED;&#xF2;_69" x1="293.4" y1="582.7" x2="293.4" y2="443.56" gradientUnits="userSpaceOnUse">
      <stop offset="0" stop-color="#7d869a"/>
      <stop offset="1" stop-color="#e15078"/>
    </linearGradient>
    <linearGradient id="&#xC1;&#xE5;&#xE7;&#xFB;&#xEC;&#xFF;&#xED;&#xED;&#xFB;&#xE9;_&#xE3;&#xF0;&#xE0;&#xE4;&#xE8;&#xE5;&#xED;&#xF2;_88" x1="411.96" y1="444.12" x2="202.88" y2="450.07" gradientUnits="userSpaceOnUse">
      <stop offset="0" stop-color="#4c4f77"/>
      <stop offset="0.45" stop-color="#bceeff"/>
      <stop offset="1" stop-color="#1d4064"/>
    </linearGradient>
    <linearGradient id="linear-gradient-2" x1="123.73" y1="323.34" x2="125.01" y2="281.63" gradientUnits="userSpaceOnUse">
      <stop offset="0" stop-color="#2f5476"/>
      <stop offset="1" stop-color="#00e4ff" stop-opacity="0.49"/>
    </linearGradient>
    <linearGradient id="linear-gradient-3" x1="353.6" y1="249.55" x2="70.24" y2="280.01" xlink:href="#linear-gradient"/>
    <linearGradient id="&#xC1;&#xE5;&#xE7;&#xFB;&#xEC;&#xFF;&#xED;&#xED;&#xFB;&#xE9;_&#xE3;&#xF0;&#xE0;&#xE4;&#xE8;&#xE5;&#xED;&#xF2;_133" x1="314.46" y1="136.62" x2="244.94" y2="162.79" gradientTransform="matrix(1, -0.05, 0.05, 1, -25.16, 271.49)" gradientUnits="userSpaceOnUse">
      <stop offset="0" stop-color="#4c4f77"/>
      <stop offset="0.43" stop-color="#bceeff"/>
      <stop offset="0.76" stop-color="#1d4064"/>
    </linearGradient>
    <linearGradient id="&#xC1;&#xE5;&#xE7;&#xFB;&#xEC;&#xFF;&#xED;&#xED;&#xFB;&#xE9;_&#xE3;&#xF0;&#xE0;&#xE4;&#xE8;&#xE5;&#xED;&#xF2;_133-2" x1="294.94" y1="138.01" x2="251.33" y2="165.92" gradientTransform="matrix(1, -0.05, 0.05, 1, -194.14, 182.95)" xlink:href="#&#xC1;&#xE5;&#xE7;&#xFB;&#xEC;&#xFF;&#xED;&#xED;&#xFB;&#xE9;_&#xE3;&#xF0;&#xE0;&#xE4;&#xE8;&#xE5;&#xED;&#xF2;_133"/>
    <linearGradient id="&#xC1;&#xE5;&#xE7;&#xFB;&#xEC;&#xFF;&#xED;&#xED;&#xFB;&#xE9;_&#xE3;&#xF0;&#xE0;&#xE4;&#xE8;&#xE5;&#xED;&#xF2;_133-3" x1="289.42" y1="129.39" x2="245.81" y2="157.3" xlink:href="#&#xC1;&#xE5;&#xE7;&#xFB;&#xEC;&#xFF;&#xED;&#xED;&#xFB;&#xE9;_&#xE3;&#xF0;&#xE0;&#xE4;&#xE8;&#xE5;&#xED;&#xF2;_133"/>
    <linearGradient id="&#xC1;&#xE5;&#xE7;&#xFB;&#xEC;&#xFF;&#xED;&#xED;&#xFB;&#xE9;_&#xE3;&#xF0;&#xE0;&#xE4;&#xE8;&#xE5;&#xED;&#xF2;_133-4" x1="300.17" y1="146.19" x2="256.57" y2="174.1" xlink:href="#&#xC1;&#xE5;&#xE7;&#xFB;&#xEC;&#xFF;&#xED;&#xED;&#xFB;&#xE9;_&#xE3;&#xF0;&#xE0;&#xE4;&#xE8;&#xE5;&#xED;&#xF2;_133"/>
    <linearGradient id="&#xC1;&#xE5;&#xE7;&#xFB;&#xEC;&#xFF;&#xED;&#xED;&#xFB;&#xE9;_&#xE3;&#xF0;&#xE0;&#xE4;&#xE8;&#xE5;&#xED;&#xF2;_133-5" x1="336.34" y1="393.28" x2="266.82" y2="419.45" gradientTransform="matrix(1, 0, 0, 1, 0, 0)" xlink:href="#&#xC1;&#xE5;&#xE7;&#xFB;&#xEC;&#xFF;&#xED;&#xED;&#xFB;&#xE9;_&#xE3;&#xF0;&#xE0;&#xE4;&#xE8;&#xE5;&#xED;&#xF2;_133"/>
    <linearGradient id="&#xC1;&#xE5;&#xE7;&#xFB;&#xEC;&#xFF;&#xED;&#xED;&#xFB;&#xE9;_&#xE3;&#xF0;&#xE0;&#xE4;&#xE8;&#xE5;&#xED;&#xF2;_133-6" x1="147.84" y1="306.13" x2="104.24" y2="334.04" gradientTransform="matrix(1, 0, 0, 1, 0, 0)" xlink:href="#&#xC1;&#xE5;&#xE7;&#xFB;&#xEC;&#xFF;&#xED;&#xED;&#xFB;&#xE9;_&#xE3;&#xF0;&#xE0;&#xE4;&#xE8;&#xE5;&#xED;&#xF2;_133"/>
    <linearGradient id="&#xC1;&#xE5;&#xE7;&#xFB;&#xEC;&#xFF;&#xED;&#xED;&#xFB;&#xE9;_&#xE3;&#xF0;&#xE0;&#xE4;&#xE8;&#xE5;&#xED;&#xF2;_133-7" x1="311.3" y1="386.05" x2="267.69" y2="413.96" gradientTransform="matrix(1, 0, 0, 1, 0, 0)" xlink:href="#&#xC1;&#xE5;&#xE7;&#xFB;&#xEC;&#xFF;&#xED;&#xED;&#xFB;&#xE9;_&#xE3;&#xF0;&#xE0;&#xE4;&#xE8;&#xE5;&#xED;&#xF2;_133"/>
    <linearGradient id="&#xC1;&#xE5;&#xE7;&#xFB;&#xEC;&#xFF;&#xED;&#xED;&#xFB;&#xE9;_&#xE3;&#xF0;&#xE0;&#xE4;&#xE8;&#xE5;&#xED;&#xF2;_133-8" x1="322.05" y1="402.85" x2="278.45" y2="430.76" gradientTransform="matrix(1, 0, 0, 1, 0, 0)" xlink:href="#&#xC1;&#xE5;&#xE7;&#xFB;&#xEC;&#xFF;&#xED;&#xED;&#xFB;&#xE9;_&#xE3;&#xF0;&#xE0;&#xE4;&#xE8;&#xE5;&#xED;&#xF2;_133"/>
    <linearGradient id="&#xC1;&#xE5;&#xE7;&#xFB;&#xEC;&#xFF;&#xED;&#xED;&#xFB;&#xE9;_&#xE3;&#xF0;&#xE0;&#xE4;&#xE8;&#xE5;&#xED;&#xF2;_133-9" x1="374.34" y1="743.99" x2="304.82" y2="770.16" gradientTransform="translate(56.28 -372.45) rotate(4.01)" xlink:href="#&#xC1;&#xE5;&#xE7;&#xFB;&#xEC;&#xFF;&#xED;&#xED;&#xFB;&#xE9;_&#xE3;&#xF0;&#xE0;&#xE4;&#xE8;&#xE5;&#xED;&#xF2;_133"/>
    <linearGradient id="&#xC1;&#xE5;&#xE7;&#xFB;&#xEC;&#xFF;&#xED;&#xED;&#xFB;&#xE9;_&#xE3;&#xF0;&#xE0;&#xE4;&#xE8;&#xE5;&#xED;&#xF2;_133-10" x1="354.82" y1="745.38" x2="311.21" y2="773.29" gradientTransform="translate(-112.69 -460.99) rotate(4.01)" xlink:href="#&#xC1;&#xE5;&#xE7;&#xFB;&#xEC;&#xFF;&#xED;&#xED;&#xFB;&#xE9;_&#xE3;&#xF0;&#xE0;&#xE4;&#xE8;&#xE5;&#xED;&#xF2;_133"/>
    <linearGradient id="&#xC1;&#xE5;&#xE7;&#xFB;&#xEC;&#xFF;&#xED;&#xED;&#xFB;&#xE9;_&#xE3;&#xF0;&#xE0;&#xE4;&#xE8;&#xE5;&#xED;&#xF2;_133-11" x1="349.3" y1="736.77" x2="305.7" y2="764.67" gradientTransform="translate(56.28 -372.45) rotate(4.01)" xlink:href="#&#xC1;&#xE5;&#xE7;&#xFB;&#xEC;&#xFF;&#xED;&#xED;&#xFB;&#xE9;_&#xE3;&#xF0;&#xE0;&#xE4;&#xE8;&#xE5;&#xED;&#xF2;_133"/>
    <linearGradient id="&#xC1;&#xE5;&#xE7;&#xFB;&#xEC;&#xFF;&#xED;&#xED;&#xFB;&#xE9;_&#xE3;&#xF0;&#xE0;&#xE4;&#xE8;&#xE5;&#xED;&#xF2;_133-12" x1="360.06" y1="753.57" x2="316.45" y2="781.47" gradientTransform="translate(56.28 -372.45) rotate(4.01)" xlink:href="#&#xC1;&#xE5;&#xE7;&#xFB;&#xEC;&#xFF;&#xED;&#xED;&#xFB;&#xE9;_&#xE3;&#xF0;&#xE0;&#xE4;&#xE8;&#xE5;&#xED;&#xF2;_133"/>
    <linearGradient id="&#xC1;&#xE5;&#xE7;&#xFB;&#xEC;&#xFF;&#xED;&#xED;&#xFB;&#xE9;_&#xE3;&#xF0;&#xE0;&#xE4;&#xE8;&#xE5;&#xED;&#xF2;_17" x1="271.07" y1="300.51" x2="224.84" y2="313.12" gradientUnits="userSpaceOnUse">
      <stop offset="0" stop-color="#fbf16a"/>
      <stop offset="1" stop-color="#d99600"/>
    </linearGradient>
    <linearGradient id="&#xC1;&#xE5;&#xE7;&#xFB;&#xEC;&#xFF;&#xED;&#xED;&#xFB;&#xE9;_&#xE3;&#xF0;&#xE0;&#xE4;&#xE8;&#xE5;&#xED;&#xF2;_17-2" x1="210.79" y1="330.74" x2="212.69" y2="318.21" xlink:href="#&#xC1;&#xE5;&#xE7;&#xFB;&#xEC;&#xFF;&#xED;&#xED;&#xFB;&#xE9;_&#xE3;&#xF0;&#xE0;&#xE4;&#xE8;&#xE5;&#xED;&#xF2;_17"/>
    <linearGradient id="&#xC1;&#xE5;&#xE7;&#xFB;&#xEC;&#xFF;&#xED;&#xED;&#xFB;&#xE9;_&#xE3;&#xF0;&#xE0;&#xE4;&#xE8;&#xE5;&#xED;&#xF2;_17-3" x1="310.96" y1="322.75" x2="182.59" y2="339.56" xlink:href="#&#xC1;&#xE5;&#xE7;&#xFB;&#xEC;&#xFF;&#xED;&#xED;&#xFB;&#xE9;_&#xE3;&#xF0;&#xE0;&#xE4;&#xE8;&#xE5;&#xED;&#xF2;_17"/>
    <linearGradient id="&#xC1;&#xE5;&#xE7;&#xFB;&#xEC;&#xFF;&#xED;&#xED;&#xFB;&#xE9;_&#xE3;&#xF0;&#xE0;&#xE4;&#xE8;&#xE5;&#xED;&#xF2;_17-4" x1="311.31" y1="325.63" x2="182.97" y2="342.44" xlink:href="#&#xC1;&#xE5;&#xE7;&#xFB;&#xEC;&#xFF;&#xED;&#xED;&#xFB;&#xE9;_&#xE3;&#xF0;&#xE0;&#xE4;&#xE8;&#xE5;&#xED;&#xF2;_17"/>
    <linearGradient id="&#xC1;&#xE5;&#xE7;&#xFB;&#xEC;&#xFF;&#xED;&#xED;&#xFB;&#xE9;_&#xE3;&#xF0;&#xE0;&#xE4;&#xE8;&#xE5;&#xED;&#xF2;_51-3" x1="232.04" y1="310.36" x2="290" y2="304.5" xlink:href="#&#xC1;&#xE5;&#xE7;&#xFB;&#xEC;&#xFF;&#xED;&#xED;&#xFB;&#xE9;_&#xE3;&#xF0;&#xE0;&#xE4;&#xE8;&#xE5;&#xED;&#xF2;_51"/>
    <linearGradient id="&#xC1;&#xE5;&#xE7;&#xFB;&#xEC;&#xFF;&#xED;&#xED;&#xFB;&#xE9;_&#xE3;&#xF0;&#xE0;&#xE4;&#xE8;&#xE5;&#xED;&#xF2;_42" x1="233.75" y1="300.42" x2="258.12" y2="293.99" gradientUnits="userSpaceOnUse">
      <stop offset="0" stop-color="#002473"/>
      <stop offset="1" stop-color="#16ccbc"/>
    </linearGradient>
    <linearGradient id="&#xC1;&#xE5;&#xE7;&#xFB;&#xEC;&#xFF;&#xED;&#xED;&#xFB;&#xE9;_&#xE3;&#xF0;&#xE0;&#xE4;&#xE8;&#xE5;&#xED;&#xF2;_31" x1="241.29" y1="298.66" x2="258.64" y2="291.02" gradientUnits="userSpaceOnUse">
      <stop offset="0"/>
      <stop offset="0.04" stop-color="#002226"/>
      <stop offset="0.1" stop-color="#004b53"/>
      <stop offset="0.16" stop-color="#00717c"/>
      <stop offset="0.23" stop-color="#00919f"/>
      <stop offset="0.3" stop-color="#00acbd"/>
      <stop offset="0.38" stop-color="#00c2d5"/>
      <stop offset="0.47" stop-color="#00d3e8"/>
      <stop offset="0.58" stop-color="#00dff5"/>
      <stop offset="0.72" stop-color="#00e6fd"/>
      <stop offset="1" stop-color="#00e8ff"/>
    </linearGradient>
    <linearGradient id="&#xC1;&#xE5;&#xE7;&#xFB;&#xEC;&#xFF;&#xED;&#xED;&#xFB;&#xE9;_&#xE3;&#xF0;&#xE0;&#xE4;&#xE8;&#xE5;&#xED;&#xF2;_17-5" x1="278.37" y1="321.6" x2="267.29" y2="339.57" xlink:href="#&#xC1;&#xE5;&#xE7;&#xFB;&#xEC;&#xFF;&#xED;&#xED;&#xFB;&#xE9;_&#xE3;&#xF0;&#xE0;&#xE4;&#xE8;&#xE5;&#xED;&#xF2;_17"/>
    <linearGradient id="&#xC1;&#xE5;&#xE7;&#xFB;&#xEC;&#xFF;&#xED;&#xED;&#xFB;&#xE9;_&#xE3;&#xF0;&#xE0;&#xE4;&#xE8;&#xE5;&#xED;&#xF2;_17-6" x1="273.95" y1="318.88" x2="262.88" y2="336.83" xlink:href="#&#xC1;&#xE5;&#xE7;&#xFB;&#xEC;&#xFF;&#xED;&#xED;&#xFB;&#xE9;_&#xE3;&#xF0;&#xE0;&#xE4;&#xE8;&#xE5;&#xED;&#xF2;_17"/>
    <linearGradient id="&#xC1;&#xE5;&#xE7;&#xFB;&#xEC;&#xFF;&#xED;&#xED;&#xFB;&#xE9;_&#xE3;&#xF0;&#xE0;&#xE4;&#xE8;&#xE5;&#xED;&#xF2;_48" x1="246.59" y1="357.43" x2="243.83" y2="335.01" gradientUnits="userSpaceOnUse">
      <stop offset="0" stop-color="#001aeb"/>
      <stop offset="1" stop-color="#fff"/>
    </linearGradient>
  </defs>
  <title>chef cooking</title>
  <g class="cls-3">
    <g id="Layer_2">
      <polygon class="cls-4" points="240.84 283.63 239.55 301.73 234.6 496.06 15.93 496.06 10.13 301.73 8.86 284.46 24.46 269.07 226.49 269.07 240.84 283.63"/>
      <polygon class="cls-5" points="228.15 306.31 215.25 475.05 211.92 480.25 31.12 483.78 17.61 338.85 22.38 336.06 21.34 334.4 17.1 333.38 13.22 303.81 228.15 306.31"/>
      <polygon class="cls-6" points="225.24 336.27 215.25 475.05 35.49 475.05 24.04 336.27 225.24 336.27"/>
      <polygon class="cls-7" points="203.83 355.83 201.92 382.46 201.68 385.79 200.73 398.92 200.66 399.97 199.61 414.5 199.33 418.4 198.41 431.14 198.32 432.42 197.09 449.48 196.9 452.16 195.97 465.06 54.48 465.06 53.42 452.16 53.29 450.67 51.95 434.41 51.68 431.14 50.49 416.63 50.31 414.5 49.34 402.78 49.21 401.13 47.94 385.79 47.67 382.46 45.47 355.83 203.83 355.83"/>
      <polygon class="cls-5" points="34.24 350.83 25.58 355.75 27.23 375.77 203.81 375.8 217.33 367.69 218.8 357.7 35.7 357.7 34.24 350.83"/>
      <polygon class="cls-8" points="228.15 304.85 228.13 305.06 225.36 332.79 223.37 333.98 25.71 333.98 23.91 332.78 20.74 305.06 20.71 304.85 228.15 304.85"/>
      <polygon class="cls-9" points="228.13 305.06 225.36 332.79 223.37 333.98 223.16 308.6 24.04 308.6 25.71 333.98 23.91 332.78 20.74 305.06 228.13 305.06"/>
      <polygon class="cls-10" points="215.25 475.05 217.75 341.68 26.33 338.56 35.49 475.05 24.04 336.27 225.24 336.27 215.25 475.05"/>
      <g class="cls-11">
        <path class="cls-12" d="M362,450.82,360.71,471l-.21,3.33-.82,13.28-.07,1.09L358.72,503l-.23,3.78-.8,12.87-.09,1.41-1.05,17-.16,2.6-.23,3.59h-122c0-.11-.16-1.4-.38-3.59-.05-.48-.11-1-.16-1.58-.4-3.85-1-9.58-1.64-16.31-.1-1-.2-2.06-.31-3.12-.44-4.52-.93-9.39-1.42-14.39-.07-.75-.15-1.5-.22-2.26-.39-4-.79-8-1.18-11.92-.05-.53-.1-1.07-.16-1.6-.52-5.3-1-10.46-1.49-15.19q-.16-1.71-.33-3.33c-1.16-11.77-2-20.18-2-20.18Z" transform="translate(-168.97 -88.54)"/>
      </g>
      <path class="cls-13" d="M388,444.37c0,1.87-.32,10.23-1.72,11s-182.42,2.9-184.29,0c-1.63-2.54-2.31-9.15-2.05-11.94a4.19,4.19,0,0,1,.17-.95h0c.62-1.67,3.12-3.12,3.12-3.12h11.23v2.7l63.84.25,13.77.06,80.73.31v-4.16H383.6s3.23,2.93,4.14,4.94A2.39,2.39,0,0,1,388,444.37Z" transform="translate(-168.97 -88.54)"/>
      <path class="cls-14" d="M388,444.37c0,1.87-.32,10.23-1.72,11s-182.42,2.9-184.29,0c-1.63-2.54-2.31-9.15-2.05-11.94.1,2.33.61,8.12,3.09,9.44,3.12,1.66,179.56,1,181.43,1S388,444.37,388,444.37Z" transform="translate(-168.97 -88.54)"/>
      <polygon class="cls-15" points="76.33 356.87 78.2 362.9 208.18 362.9 208.18 359.18 76.33 356.87"/>
      <path class="cls-5" d="M356.55,538.1l-.16,2.6H233.74c-.05-.48-.11-1-.16-1.58Z" transform="translate(-168.97 -88.54)"/>
      <path class="cls-5" d="M357.69,519.69l-.09,1.41-125.66,1.71c-.1-1-.2-2.06-.31-3.12Z" transform="translate(-168.97 -88.54)"/>
      <path class="cls-5" d="M358.72,503l-.23,3.78L230.21,505.3c-.07-.75-.15-1.5-.22-2.26Z" transform="translate(-168.97 -88.54)"/>
      <path class="cls-5" d="M359.68,487.61l-.07,1.09-130.8,2.42c-.05-.53-.1-1.07-.16-1.6Z" transform="translate(-168.97 -88.54)"/>
      <path class="cls-5" d="M360.71,471l-.21,3.33H227.16q-.16-1.71-.33-3.33Z" transform="translate(-168.97 -88.54)"/>
      <polygon class="cls-16" points="24.46 496.06 24.5 500.01 232.71 500.2 232.71 496.25 24.46 496.06"/>
      <polygon class="cls-17" points="10.47 309.72 239.53 307.17 239.73 299.23 10.13 301.73 10.47 309.72"/>
      <polygon class="cls-18" points="245.42 283.63 244.07 301.73 5.81 301.73 5.73 300.75 5.66 299.77 4.49 283.63 20.67 269.08 20.69 269.07 230.51 269.07 245.42 283.63"/>
      <polygon class="cls-19" points="243.34 285.5 242.05 301.73 5.73 301.73 5.73 286.33 243.34 285.5"/>
      <path class="cls-20" d="M391.3,358.23H399l15.4,13.94-65.12.83s57.21-1.24,57.84-3.12-7.28-10.4-8.74-10.82A69.55,69.55,0,0,0,391.3,358.23Z" transform="translate(-168.97 -88.54)"/>
      <path class="cls-9" d="M387.74,443.48l-18.91,1.31L218.4,443.54l-18.32-1h0c.62-1.67,3.12-3.12,3.12-3.12h11.23l-2.49,2.7,66.33.25,94.5.36h3.74l-3.74-4.16H383.6S386.83,441.47,387.74,443.48Z" transform="translate(-168.97 -88.54)"/>
      <path class="cls-21" d="M174.08,373.21l.55,15.1-1.17-16.14,16.18-14.55h0c-.22.21-14.35,13.94-14.14,14.56s31,1,31,1Z" transform="translate(-168.97 -88.54)"/>
      <polygon class="cls-22" points="225.24 277.8 225.24 281.76 26.33 281.76 26.33 277.8 37.57 265.11 215.88 265.11 225.24 277.8"/>
      <polygon class="cls-9" points="220.24 277.8 29.66 276.35 37.57 266.99 212.75 266.99 220.24 277.8"/>
      <path class="cls-14" d="M259.59,410.43c0,5.16-2.88,9.34-6.45,9.34s-6.45-4.18-6.45-9.34,2.89-9.34,6.45-9.34S259.59,405.27,259.59,410.43Z" transform="translate(-168.97 -88.54)"/>
      <path class="cls-14" d="M299.12,410.43c0,5.16-2.88,9.34-6.45,9.34s-6.45-4.18-6.45-9.34,2.89-9.34,6.45-9.34S299.12,405.27,299.12,410.43Z" transform="translate(-168.97 -88.54)"/>
      <path class="cls-14" d="M338.85,410.68c-.36,5.14-3.54,9.11-7.09,8.86s-6.14-4.62-5.78-9.77,3.53-9.11,7.09-8.86S339.21,405.53,338.85,410.68Z" transform="translate(-168.97 -88.54)"/>
      <path class="cls-23" d="M260,409c.26,4.64-2.24,8.55-5.57,8.73s-6.23-3.43-6.49-8.07,2.24-8.56,5.57-8.74S259.77,404.37,260,409Z" transform="translate(-168.97 -88.54)"/>
      <path class="cls-24" d="M260,409c.26,4.64-2.24,8.55-5.57,8.73H254c2.31-.35,4.16-2.53,4.86-5.44a11.49,11.49,0,0,0,.28-3.25,10.73,10.73,0,0,0-1.08-4.24c-1.11-2.25-2.94-3.75-5-3.83a3,3,0,0,1,.42-.05C256.87,400.76,259.77,404.37,260,409Z" transform="translate(-168.97 -88.54)"/>
      <path class="cls-14" d="M255.18,417.65a4.42,4.42,0,0,1-.73.1c-3.33.18-6.23-3.43-6.49-8.07s2.24-8.56,5.57-8.74a4.54,4.54,0,0,1,.74,0c-3,.67-5.08,4.34-4.84,8.64S252.17,417.31,255.18,417.65Z" transform="translate(-168.97 -88.54)"/>
      <polygon class="cls-25" points="87.65 331.9 85.09 332.04 85.01 331.11 84.97 330.72 83.22 310.72 83.14 309.79 85.45 309.66 85.54 310.55 87.49 330.34 87.65 331.9"/>
      <path class="cls-26" d="M255.36,397.48a1.82,1.82,0,0,1-.85,1.61,2.18,2.18,0,0,1-1.11.39h-.07a2.4,2.4,0,0,1-1.14-.23,1.86,1.86,0,0,1-1.09-1.55,2,2,0,0,1,2-2h.05A2,2,0,0,1,255.36,397.48Z" transform="translate(-168.97 -88.54)"/>
      <path class="cls-27" d="M257.59,420.45a2,2,0,0,1-1.69,2,1.88,1.88,0,0,1-.33,0,2,2,0,0,1-2.24-1.78,1.81,1.81,0,0,1,.61-1.42,2.26,2.26,0,0,1,.63-.4,2.53,2.53,0,0,1,.79-.18,2.35,2.35,0,0,1,1.1.21A1.82,1.82,0,0,1,257.59,420.45Z" transform="translate(-168.97 -88.54)"/>
      <path class="cls-28" d="M255.25,408.73c.36,4.13.53,7.49.36,7.5s-.61-3.32-1-7.44a47.92,47.92,0,0,1-.37-7.51C254.44,401.27,254.88,404.6,255.25,408.73Z" transform="translate(-168.97 -88.54)"/>
      <path class="cls-29" d="M255.9,422.41a1.88,1.88,0,0,1-.33,0,2,2,0,0,1-2.24-1.78,1.81,1.81,0,0,1,.61-1.42l-1.75-20a1.86,1.86,0,0,1-1.09-1.55,2,2,0,0,1,2-2h.05a1.61,1.61,0,0,0-1.35,1.9,1.47,1.47,0,0,0,.3.72,2.29,2.29,0,0,0,1.24.79l1.1-.06s-.94.15-.94.41.07,3.34.07,3.42h0l.87,14.21a10.3,10.3,0,0,0,.21,1.72,7.58,7.58,0,0,0,1.37.19l-1.46.2a1.4,1.4,0,0,0-.61.44,1.32,1.32,0,0,0-.29,1A2.09,2.09,0,0,0,255.9,422.41Z" transform="translate(-168.97 -88.54)"/>
      <path class="cls-30" d="M257.34,420.22a.68.68,0,0,1-.64.71.67.67,0,0,1-.7-.64.66.66,0,0,1,.63-.7A.67.67,0,0,1,257.34,420.22Z" transform="translate(-168.97 -88.54)"/>
      <path class="cls-30" d="M255,396.89a.67.67,0,1,1-1.34.08.68.68,0,0,1,.64-.71A.66.66,0,0,1,255,396.89Z" transform="translate(-168.97 -88.54)"/>
      <path class="cls-31" d="M299.14,409.55c0,4.65-2.71,8.42-6,8.42s-6-3.77-6-8.42,2.7-8.41,6-8.41S299.14,404.91,299.14,409.55Z" transform="translate(-168.97 -88.54)"/>
      <path class="cls-24" d="M299.14,409.55c0,4.65-2.71,8.42-6,8.42a3,3,0,0,1-.43,0c2.33-.23,4.3-2.3,5.15-5.17a11.21,11.21,0,0,0,.46-3.23,11,11,0,0,0-.85-4.3c-1-2.3-2.73-3.89-4.76-4.09a3,3,0,0,1,.43,0C296.43,401.14,299.14,404.91,299.14,409.55Z" transform="translate(-168.97 -88.54)"/>
      <path class="cls-14" d="M293.83,417.91a4.49,4.49,0,0,1-.73.06c-3.34,0-6-3.77-6-8.42s2.7-8.41,6-8.41a4.49,4.49,0,0,1,.73.06c-3,.5-5.31,4.05-5.31,8.35S290.84,417.41,293.83,417.91Z" transform="translate(-168.97 -88.54)"/>
      <polygon class="cls-32" points="126.14 332.24 123.58 332.24 123.55 331.3 123.53 330.91 122.88 310.84 122.84 309.91 125.16 309.91 125.2 310.8 126.07 330.67 126.14 332.24"/>
      <path class="cls-33" d="M295.11,397.78a1.84,1.84,0,0,1-.94,1.57,2.33,2.33,0,0,1-1.13.32H293a2.3,2.3,0,0,1-1.12-.28,1.86,1.86,0,0,1-1-1.61,2,2,0,0,1,2.13-1.89H293A2,2,0,0,1,295.11,397.78Z" transform="translate(-168.97 -88.54)"/>
      <path class="cls-34" d="M296.09,420.84a2,2,0,0,1-1.81,1.87l-.33,0a2,2,0,0,1-2.13-1.89,1.8,1.8,0,0,1,.68-1.39,2.17,2.17,0,0,1,.65-.36,2.36,2.36,0,0,1,.8-.14,2.43,2.43,0,0,1,1.09.26A1.86,1.86,0,0,1,296.09,420.84Z" transform="translate(-168.97 -88.54)"/>
      <path class="cls-28" d="M294.38,409c.14,4.14.12,7.5-.05,7.51s-.42-3.35-.56-7.49-.12-7.5.05-7.51A47.44,47.44,0,0,1,294.38,409Z" transform="translate(-168.97 -88.54)"/>
      <path class="cls-29" d="M294.28,422.71l-.33,0a2,2,0,0,1-2.13-1.89,1.8,1.8,0,0,1,.68-1.39l-.65-20.06a1.86,1.86,0,0,1-1-1.61,2,2,0,0,1,2.13-1.89H293a1.66,1.66,0,0,0-1.2,2.56,2.4,2.4,0,0,0,1.21.86h1.09s-.94.1-1,.35-.11,3.34-.11,3.43h0l.08,14.23a10.79,10.79,0,0,0,.12,1.73,8,8,0,0,0,1.36.26l-1.46.13a1.42,1.42,0,0,0-.64.4,1.35,1.35,0,0,0-.34.94A2.09,2.09,0,0,0,294.28,422.71Z" transform="translate(-168.97 -88.54)"/>
      <path class="cls-30" d="M295.84,420.6a.67.67,0,0,1-1.34,0,.67.67,0,1,1,1.34,0Z" transform="translate(-168.97 -88.54)"/>
      <path class="cls-30" d="M294.74,397.17a.67.67,0,1,1-.67-.67A.67.67,0,0,1,294.74,397.17Z" transform="translate(-168.97 -88.54)"/>
      <path class="cls-35" d="M339.47,409.56c-.33,4.64-3.29,8.21-6.62,8s-5.76-4.19-5.43-8.82,3.28-8.21,6.61-8S339.79,404.92,339.47,409.56Z" transform="translate(-168.97 -88.54)"/>
      <path class="cls-24" d="M339.47,409.56c-.33,4.64-3.29,8.21-6.62,8l-.42-.06c2.34-.06,4.45-2,5.5-4.8a11.31,11.31,0,0,0,.14-7.53c-.82-2.37-2.46-4.08-4.47-4.42H334C337.36,401,339.79,404.92,339.47,409.56Z" transform="translate(-168.97 -88.54)"/>
      <path class="cls-14" d="M333.59,417.53a6.06,6.06,0,0,1-.74,0c-3.32-.24-5.76-4.19-5.43-8.82s3.28-8.21,6.61-8a5.84,5.84,0,0,1,.73.11c-3,.3-5.58,3.67-5.88,8S330.64,416.81,333.59,417.53Z" transform="translate(-168.97 -88.54)"/>
      <polygon class="cls-36" points="165.69 331.93 163.14 331.75 163.18 330.82 163.19 330.43 163.94 310.37 163.97 309.43 166.28 309.59 166.26 310.49 165.74 330.37 165.69 331.93"/>
      <path class="cls-37" d="M336.27,397.53a1.83,1.83,0,0,1-1,1.5,2.43,2.43,0,0,1-1.15.25H334a2.35,2.35,0,0,1-1.1-.36,1.88,1.88,0,0,1-.9-1.67,2,2,0,0,1,2.27-1.74h.05A2,2,0,0,1,336.27,397.53Z" transform="translate(-168.97 -88.54)"/>
      <path class="cls-38" d="M335.64,420.6a2,2,0,0,1-1.93,1.74,1.93,1.93,0,0,1-.34,0,2,2,0,0,1-2-2,1.75,1.75,0,0,1,.78-1.34,2.3,2.3,0,0,1,.67-.32,2.43,2.43,0,0,1,.81-.08,2.37,2.37,0,0,1,1.07.34A1.87,1.87,0,0,1,335.64,420.6Z" transform="translate(-168.97 -88.54)"/>
      <path class="cls-28" d="M334.76,408.68c-.15,4.14-.4,7.5-.57,7.49s-.19-3.37,0-7.51.4-7.49.57-7.49S334.91,404.54,334.76,408.68Z" transform="translate(-168.97 -88.54)"/>
      <path class="cls-29" d="M333.71,422.34a1.93,1.93,0,0,1-.34,0,2,2,0,0,1-2-2,1.75,1.75,0,0,1,.78-1.34l.75-20.06a1.88,1.88,0,0,1-.9-1.67,2,2,0,0,1,2.27-1.74h.05a1.62,1.62,0,0,0-1.58,1.73,1.53,1.53,0,0,0,.21.74,2.36,2.36,0,0,0,1.14.94l1.09.08s-.95,0-1,.29-.34,3.32-.35,3.4h0L333,416.89a11,11,0,0,0,0,1.73,8,8,0,0,0,1.34.36l-1.47,0a1.45,1.45,0,0,0-.66.36,1.34,1.34,0,0,0-.4.91A2.07,2.07,0,0,0,333.71,422.34Z" transform="translate(-168.97 -88.54)"/>
      <path class="cls-30" d="M335.41,420.34a.69.69,0,0,1-.72.63.67.67,0,1,1,.1-1.34A.66.66,0,0,1,335.41,420.34Z" transform="translate(-168.97 -88.54)"/>
      <path class="cls-30" d="M336,396.9a.66.66,0,0,1-.71.62.67.67,0,0,1-.63-.71.69.69,0,0,1,.72-.63A.67.67,0,0,1,336,396.9Z" transform="translate(-168.97 -88.54)"/>
      <polygon class="cls-9" points="137.98 269.07 212.13 269.07 217.08 276.49 155.28 274.01 137.98 269.07"/>
    </g>
    <g id="Layer_3">
      <path class="cls-39" d="M388.65,307.85l7.43-2.09a8,8,0,0,1,1.36-.31c.68.07,1.06,1.73.38,2.43a13.18,13.18,0,0,1-6.16,3.35,1.12,1.12,0,0,1-.32,0h-8.81a3.39,3.39,0,0,1-2.77-1.38v-.81C381.81,309.09,386.9,309.69,388.65,307.85Z" transform="translate(-168.97 -88.54)"/>
      <path class="cls-40" d="M390.23,305.24H397a1.08,1.08,0,0,1,.86,1.82,13.1,13.1,0,0,1-6.16,3.36,1.12,1.12,0,0,1-.32,0h-8.81a3.39,3.39,0,0,1-2.77-1.38C383.8,308.59,387.59,308,390.23,305.24Z" transform="translate(-168.97 -88.54)"/>
      <path class="cls-41" d="M391,288.19V337.7c0,8.62-6,12.85-13.65,14.16l-.94.17q-10.62,1.8-21.35,2.68-3.27.27-6.54.45a249.87,249.87,0,0,1-43.24-1.32c-10.65-1.26-26.42-1.59-26.42-16.14V288.19Z" transform="translate(-168.97 -88.54)"/>
      <path class="cls-42" d="M391,288.19V337.7c0,8.62-6,12.85-13.65,14.16l-.94.17q-10.62,1.8-21.35,2.68l.13-.21a75.44,75.44,0,0,0,12-40.89V288.19Z" transform="translate(-168.97 -88.54)"/>
      <path class="cls-43" d="M391.18,288.19c0,1.81-4.78,3.47-12.73,4.77-3.2.52-6.92,1-11.05,1.37-9.16.87-20.34,1.38-32.4,1.38s-23.25-.51-32.4-1.38c-4.13-.39-7.85-.85-11.05-1.37-8-1.3-12.73-3-12.73-4.77,0-4.16,25.15-7.53,56.18-7.53S391.18,284,391.18,288.19Z" transform="translate(-168.97 -88.54)"/>
      <path class="cls-44" d="M335,294.21c-11.63,0-22.79-.48-32.26-1.38-4.1-.38-7.79-.84-10.95-1.36-8.71-1.42-10.86-2.83-11.36-3.29.87-.86,5.14-2.59,16.45-4a322.24,322.24,0,0,1,38.12-2,322.37,322.37,0,0,1,38.12,2c11.31,1.41,15.57,3.14,16.45,4-.5.46-2.65,1.87-11.36,3.29-3.16.52-6.85,1-10.95,1.36C357.79,293.73,346.63,294.21,335,294.21Z" transform="translate(-168.97 -88.54)"/>
      <path class="cls-39" d="M280.8,307.85l-9.57-2.09a12.59,12.59,0,0,0-1.76-.31c-.88.07-1.36,1.73-.48,2.43a18.77,18.77,0,0,0,7.94,3.35,1.84,1.84,0,0,0,.41,0H288.7a4.88,4.88,0,0,0,3.57-1.38v-.81C289.63,309.09,283.06,309.69,280.8,307.85Z" transform="translate(-168.97 -88.54)"/>
      <path class="cls-40" d="M278.77,305.24h-8.68c-1.3,0-2,1.13-1.1,1.82a18.76,18.76,0,0,0,7.94,3.36,1.84,1.84,0,0,0,.41,0H288.7a4.88,4.88,0,0,0,3.57-1.38C287.06,308.59,282.17,308,278.77,305.24Z" transform="translate(-168.97 -88.54)"/>
      <path class="cls-45" d="M379.69,291.2l-1.59.27c-3.16.52-6.85,1-11,1.36-9.47.9-20.63,1.38-32.26,1.38s-22.79-.48-32.26-1.38c-4.1-.38-7.79-.84-10.95-1.36l-1.59-.27c1.89-.34,4.1-.68,6.68-1a324.6,324.6,0,0,1,38.12-2,324.6,324.6,0,0,1,38.12,2C375.59,290.52,377.8,290.86,379.69,291.2Z" transform="translate(-168.97 -88.54)"/>
      <path class="cls-46" d="M302.6,294.33c-1.69-.16-3.3-.33-4.85-.51V353c2.6.34,5.16.57,7.49.85,3.24.38,6.48.7,9.74,1V295.22C310.55,295,306.4,294.69,302.6,294.33Z" transform="translate(-168.97 -88.54)"/>
      <path class="cls-40" d="M371.88,360c0,1.67-3.17,3.19-8.47,4.39-2.13.48-4.61.91-7.36,1.27a185.26,185.26,0,0,1-43.14,0c-2.75-.36-5.22-.79-7.35-1.27-5.3-1.2-8.47-2.72-8.47-4.39,0-3.83,16.74-6.93,37.39-6.93S371.88,356.16,371.88,360Z" transform="translate(-168.97 -88.54)"/>
      <path class="cls-40" d="M282.64,358.31c0,1.15-3.18,2.21-8.48,3-2.13.33-4.6.63-7.35.88-6.1.55-13.54.87-21.57.87s-15.48-.32-21.57-.87c-2.75-.25-5.23-.55-7.36-.88-5.29-.82-8.47-1.88-8.47-3,0-2.64,16.74-4.78,37.4-4.78S282.64,355.67,282.64,358.31Z" transform="translate(-168.97 -88.54)"/>
      <path class="cls-47" d="M360.64,354.23c-.84,1.47-2.25,3.42-3.54,4-3.22,1.52-4.16,4.62-15.6,4.66-2.17,0-4.52,0-7.07-.1,0,0-1.38,0-3.56,0-8.6,0-16.43-.78-18.42-5.4-1.5-3.5-1.84-6.89-3-8.48-1.34-1.83,5,.48,4.52,3.57-.33,2,2,5.22,4.41,4.07s-5.32-6.78-1.9-10.46,9.41-2.3,7.06-1.38.29,6.6,4.14,6.71c3.43.11,6.81-2.51,5.56-11.11,0-.25.25-.33.34-.32a11,11,0,0,1,7.22,9.2c0,.37,0,.75,0,1.15a4.88,4.88,0,0,0,0,.68c.74,6.15,12-1.5,14.92-1.94,1.41-.22,1,.63.43,1.65h0a5.56,5.56,0,0,0-1,2.18c0,.27.17.46.54.54,1.59.34,3.88-.72,5.48-1.05h0C361.49,352.48,361.19,353.25,360.64,354.23Z" transform="translate(-168.97 -88.54)"/>
      <path class="cls-48" d="M345.65,358.26c.62-2.34,1,2.21.75,2.36-1.92,1.23-3.34,2.29-5.58,2.3-5.9,0-11.85.13-17.56-1.57a3.48,3.48,0,0,1-1.63-.83,1.88,1.88,0,0,1-.28-2.13c.9-1.66,2-.09,2.93-.71.33-.24.19-3.19.12-3.52.23,1,4.41,2.79,5.3,2.86a2.07,2.07,0,0,0,.18-.92,8.63,8.63,0,0,1,1.09-3c.63-.9,2.71-1.51,2.44-.71a5.38,5.38,0,0,0,2.74,6.86c1.09.61,3-.55,3.73-1.76s3.69-1.72,4.25-2c1.91-1-3.07,2.24-2,3.77C343,360.4,345,360.62,345.65,358.26Z" transform="translate(-168.97 -88.54)"/>
      <path class="cls-48" d="M360.64,354.23l-.22-.38a24,24,0,0,1-3.54.28,12.34,12.34,0,0,1-5.1-.8c-.47-.28-.51-.58-.42-.88a20.3,20.3,0,0,1-4.66,1.2,22.74,22.74,0,0,1-6.49,0,6.77,6.77,0,0,1-3.47-1.38,2.42,2.42,0,0,1-.79-1.79,14.55,14.55,0,0,1,0-2.19c.13-2.64.49-5.35-2.71-7.87.14-.22.25-.33.34-.32a11,11,0,0,1,7.22,9.2,3.58,3.58,0,0,0,0,1.75l.05.08c.74,6.15,12-1.5,14.92-1.94,1.41-.22,1,.63.43,1.65h0a3,3,0,0,0-1.23,1.9c0,.12.08.22.26.28,0,.27.17.46.54.54,1.59.34,3.88-.72,5.48-1.05h0C361.49,352.48,361.19,353.25,360.64,354.23Z" transform="translate(-168.97 -88.54)"/>
      <path class="cls-39" d="M303.05,360h0a1.27,1.27,0,0,1-1.27-1.26v-4.92a1.27,1.27,0,0,1,1.27-1.27h0a1.27,1.27,0,0,1,1.26,1.27v4.92A1.27,1.27,0,0,1,303.05,360Z" transform="translate(-168.97 -88.54)"/>
      <path class="cls-39" d="M365.92,360h0a1.27,1.27,0,0,1-1.26-1.26v-4.92a1.27,1.27,0,0,1,1.26-1.27h0a1.27,1.27,0,0,1,1.27,1.27v4.92A1.27,1.27,0,0,1,365.92,360Z" transform="translate(-168.97 -88.54)"/>
      <path class="cls-39" d="M334.89,365h0a1.26,1.26,0,0,1-1.26-1.27v-6.17a1.25,1.25,0,0,1,1.26-1.26h0a1.25,1.25,0,0,1,1.26,1.26v6.17A1.26,1.26,0,0,1,334.89,365Z" transform="translate(-168.97 -88.54)"/>
      <path class="cls-39" d="M213.51,362.47h0a1.27,1.27,0,0,1-1.27-1.27v-4.92a1.27,1.27,0,0,1,1.27-1.26h0a1.26,1.26,0,0,1,1.26,1.26v4.92A1.26,1.26,0,0,1,213.51,362.47Z" transform="translate(-168.97 -88.54)"/>
      <path class="cls-39" d="M276.39,362.47h0a1.27,1.27,0,0,1-1.27-1.27v-4.92a1.27,1.27,0,0,1,1.27-1.26h0a1.27,1.27,0,0,1,1.26,1.26v4.92A1.27,1.27,0,0,1,276.39,362.47Z" transform="translate(-168.97 -88.54)"/>
      <path class="cls-39" d="M245.35,365.44h0a1.26,1.26,0,0,1-1.26-1.26V358a1.27,1.27,0,0,1,1.26-1.27h0a1.27,1.27,0,0,1,1.27,1.27v6.17A1.26,1.26,0,0,1,245.35,365.44Z" transform="translate(-168.97 -88.54)"/>
      <path class="cls-39" d="M245.24,357.88h0a1.27,1.27,0,0,1-1.27-1.27v-6.17a1.26,1.26,0,0,1,1.27-1.26h0a1.26,1.26,0,0,1,1.26,1.26v6.17A1.27,1.27,0,0,1,245.24,357.88Z" transform="translate(-168.97 -88.54)"/>
      <path class="cls-49" d="M169,351.41v0l0,0Z" transform="translate(-168.97 -88.54)"/>
      <path class="cls-49" d="M250.19,356h-.94c0-.15-.05-.3-.08-.45Z" transform="translate(-168.97 -88.54)"/>
      <path class="cls-50" d="M268.11,310.56H268L262,310.5l-4,0-3.49,0-17.41-.17-5,0h-.6l-1.7,0-9.13-.08s.21-.23.63-.63.67-.61,1.15-1l.69-.61a37.66,37.66,0,0,1,17.18-8.05,30.58,30.58,0,0,1,3-.33,1.1,1.1,0,0,1,.25,0,20.93,20.93,0,0,1,2.51,0h.06c.56,0,1.09.1,1.63.17.29,0,.56.08.83.14,6.84,1.17,12.69,5,16.14,7.76.86.67,1.57,1.29,2.11,1.79s.86.8,1.05,1Z" transform="translate(-168.97 -88.54)"/>
      <path class="cls-51" d="M236.58,309.5a3.27,3.27,0,0,0,.5.77,4.43,4.43,0,0,0,.67.61A6.82,6.82,0,0,0,240,312l-8.5-.8-10.83-1s.21-.23.63-.63.67-.61,1.15-1l.69-.61a37.66,37.66,0,0,1,17.18-8.05,30.58,30.58,0,0,1,3-.33,1.1,1.1,0,0,1,.25,0,20.93,20.93,0,0,1,2.51,0h.06c.56,0,1.09.1,1.63.17-.21,0-.4.08-.61.14a24.25,24.25,0,0,0-7.38,2.57C237,304.13,235.43,307.18,236.58,309.5Z" transform="translate(-168.97 -88.54)"/>
      <path class="cls-52" d="M221.4,320.85l-1.21,3.47-.63,1.77s-1.23-.29-3-.77c-.6-.15-1.25-.34-1.94-.56h0c-1.5-.42-3.14-.93-4.72-1.53-3.12-1.13-5.88-2.51-6.32-3.85a1,1,0,0,1,0-.67c.57-2,4.85-2.59,8.36-2.71a.86.86,0,0,1,.23,0c.57,0,1.11,0,1.63,0,.34,0,.67,0,1,0h.52c.46,0,.83,0,1,0l.21,0-2,2.91h-.09a.18.18,0,0,0-.1,0l-.19-.06-.44-.08-.27-.06c-.11,0-.27-.05-.4-.07h0v0l-.15,0-1.25-.23c-.48-.1-1-.17-1.51-.23-2.13-.25-4.24-.29-4.34.56s2.8,1.24,6.12,1.57h0c1.74.17,3.58.3,5.19.38.54,0,1.06.06,1.54.08Z" transform="translate(-168.97 -88.54)"/>
      <path class="cls-53" d="M216.49,316l-2,2.91h-.09a.18.18,0,0,0-.1,0l-.19-.06-.44-.08-.27-.06c-.11,0-.27-.05-.4-.07h0l-.15,0-1.25-.23c-.48-.1-1-.17-1.51-.23,1.41-.13,2.79-.42,2.79-1s-.42-.86-1-1.11l0,0h.25c.57,0,1.11,0,1.63,0l1,0h0a3.94,3.94,0,0,1,.5,0c.46,0,.83,0,1,0Z" transform="translate(-168.97 -88.54)"/>
      <path class="cls-54" d="M255.85,355.69s-5.1.31-11.77.37h-.69c-1.34,0-2.72,0-4.14,0l-2.49,0a.07.07,0,0,0-.06,0h-.65c-.85,0-1.69-.06-2.51-.1l-1.42,0-1.4-.08-1.4-.1-1.36-.11c-.91-.08-1.81-.17-2.67-.27s-1.73-.19-2.53-.32a9.55,9.55,0,0,1-1.07-.18c-.7-.11-1.37-.25-2-.38s-1.25-.31-1.82-.46a21.48,21.48,0,0,1-2.09-.77h0a.36.36,0,0,1-.15-.08c-.46-.19-.9-.42-1.33-.65s-.84-.48-1.24-.74-1-.7-1.42-1.08-.71-.61-1.06-.94a20.18,20.18,0,0,1-4-5.52c-.16-.31-.31-.59-.44-.9-.23-.54-.46-1.06-.64-1.59a6.2,6.2,0,0,1-.23-.69,9.61,9.61,0,0,1-.32-1.08c-.08-.3-.16-.61-.23-.92l-.06-.29c-.06-.28-.12-.55-.15-.82a4.34,4.34,0,0,1-.08-.52c0-.29-.06-.57-.1-.86a9.72,9.72,0,0,1,.35-3.84,55.94,55.94,0,0,1,5.21-9.43c.46-.67.89-1.32,1.31-1.94.23-.34.46-.69.69-1s.36-.56.55-.81.39-.55.56-.82h0c.33-.5.63-.92.88-1.29a5.57,5.57,0,0,0,.37-.57,7.83,7.83,0,0,0,.47-.81h0v0c.21-.34.41-.73.6-1.09l.34-.69c.23-.44.44-.9.66-1.34s.34-.77.49-1.13.21-.46.31-.67c.44-1.08.73-1.83.73-1.83l3.41.29,8.5.71,1.7.14,6.27.53,5.76.48.21,0,.44,1.65.92,3.39.36,1.31,8.23,30Z" transform="translate(-168.97 -88.54)"/>
      <path class="cls-55" d="M282.14,338.8a21.45,21.45,0,0,1-1.43,4.43,20.61,20.61,0,0,1-4.76,6.71,17.21,17.21,0,0,1-7,4c-6.11,1.76-16.49,2.15-24.85,2.11h-.69c-2.82,0-5.39-.08-7.44-.16-3.07-.09-5-.21-5-.21l.94-3.37.25-.92.42-1.46,8.51-30.6.44-1.59,1.32-4.7.47-1.67.21,0,11-.92,3.44-.31,4-.32,4.95-.42.86-.08,1.19-.1s.35.91.88,2.17a2.09,2.09,0,0,1,.1.21s0,0,0,.08h0a36.24,36.24,0,0,0,3,5.69l.13.18a.13.13,0,0,0,0,.07,1.76,1.76,0,0,1,.21.29c.1.15.2.31.31.46l.12.17.92,1.33c.26.4.55.84.86,1.28,0,0,.06.08.08.12.34.49.7,1,1.07,1.59l.86,1.32c.12.19.25.38.37.58.28.44.55.9.82,1.34a38.65,38.65,0,0,1,3.41,6.57A12,12,0,0,1,282.14,338.8Z" transform="translate(-168.97 -88.54)"/>
      <path class="cls-51" d="M272.92,317.36c-3.28-4.16-8.44-4.66-12.75-4.31a63.59,63.59,0,0,0-14.55,3.18c-.18.06-.37.12-.54.19-1.21.39-2.4.85-3.57,1.33l-.27.11c-9.76,4-18.46,11.74-17.56,19.37.71,6.11,3.47,9.28,7.17,13l.06.06c.27.26.67.65,1.23,1.11,1.87,1.49,5.5,3.7,11.88,4.66h-.63c-1.34,0-2.72,0-4.14,0-.83,0-1.67,0-2.49,0h-.06c-.42,0-.65,0-.65,0-.85,0-1.69,0-2.51-.08l-1.42,0-1.4-.1c-.48,0-.94,0-1.4-.08l-1.36-.11c-.91-.08-1.81-.17-2.67-.27s-1.73-.19-2.53-.32a9.55,9.55,0,0,1-1.07-.18c-.7-.11-1.37-.25-2-.38s-1.25-.31-1.82-.46a21.48,21.48,0,0,1-2.09-.77h0a.36.36,0,0,1-.15-.08c-.46-.19-.9-.42-1.33-.65s-.84-.48-1.24-.74-1-.7-1.42-1.08-.71-.61-1.06-.94a20.18,20.18,0,0,1-4-5.52c-.16-.31-.31-.59-.44-.9-.23-.54-.46-1.06-.64-1.59a6.2,6.2,0,0,1-.23-.69,9.61,9.61,0,0,1-.32-1.08c-.08-.3-.16-.61-.23-.92l-.06-.29c-.06-.28-.12-.55-.15-.82a4.34,4.34,0,0,1-.08-.52c0-.29-.06-.57-.1-.86a9.72,9.72,0,0,1,.35-3.84,55.94,55.94,0,0,1,5.21-9.43c.46-.67.89-1.32,1.31-1.94l.67-1c.21-.29.38-.56.57-.81s.39-.55.56-.82v0c.35-.48.63-.92.88-1.27.12-.19.25-.36.39-.57a7.83,7.83,0,0,0,.47-.81v0c.22-.34.43-.73.62-1.09l.34-.69c.23-.44.44-.9.66-1.34s.34-.77.49-1.13.21-.46.31-.67c.44-1.08.73-1.83.73-1.83l3.41.29,8.5.71,1.7.14,6.27.53,5.76.48,11-.92,3.44-.31,4-.32,4.95-.42.86-.08,1.19-.1s.35.91.88,2.17a2.09,2.09,0,0,1,.1.21s0,.06,0,.08A36.24,36.24,0,0,0,272.92,317.36Z" transform="translate(-168.97 -88.54)"/>
      <path class="cls-56" d="M271,311.57l-1.07.1h0c-3.64.29-15.78,1.24-25.77,1.36-.44,0-.88,0-1.33,0H242c-9.82,0-21.19-1-25.2-1.34l-1.49-.14,1-4.77s2.65.5,6.77,1.09c3.63.56,8.38,1.17,13.46,1.61,1.83.15,3.67.31,5.53.4,8.15.45,17.14-1.09,22.66-2.3,3.26-.69,5.31-1.28,5.31-1.28Z" transform="translate(-168.97 -88.54)"/>
      <polygon class="cls-57" points="47.73 219 46.96 222.42 62.52 223.4 62.52 221.45 47.73 219"/>
      <polygon class="cls-58" points="88.87 221.14 92.87 220.34 93.21 223.4 89.3 223.65 88.87 221.14"/>
      <polygon class="cls-57" points="98.48 219.12 100.95 218.51 101.8 222.79 99.17 222.91 98.48 219.12"/>
      <path class="cls-59" d="M250,298.46a8.86,8.86,0,0,1-1.21,1.38H239.9a5.14,5.14,0,0,1-1.4-2.15c-.31-1.34.63-2.84,6.25-3C251.69,294.45,251.14,296.85,250,298.46Z" transform="translate(-168.97 -88.54)"/>
      <path class="cls-60" d="M249.78,296.3c0,.62-1.4,1.12-3.12,1.12s-3.12-.5-3.12-1.12,1.4-1.12,3.12-1.12S249.78,295.68,249.78,296.3Z" transform="translate(-168.97 -88.54)"/>
      <path class="cls-61" d="M250,298.46a8.86,8.86,0,0,1-1.21,1.38H239.9a5.14,5.14,0,0,1-1.4-2.15,8.6,8.6,0,0,0,4.85,1.82,12.39,12.39,0,0,0,1.77.08,7.74,7.74,0,0,0,1-.06h.06A10.39,10.39,0,0,0,250,298.46Z" transform="translate(-168.97 -88.54)"/>
      <path class="cls-62" d="M248.86,300.5a45.19,45.19,0,0,1,7.48,4,29.48,29.48,0,0,1,3.91,3l-4.9.41a23.61,23.61,0,0,0-2.58-3.24,39.09,39.09,0,0,0-5-4.15Z" transform="translate(-168.97 -88.54)"/>
      <path class="cls-51" d="M225.84,307.56a23.72,23.72,0,0,1,5.4-4.07,36.64,36.64,0,0,1,8.73-3,40.1,40.1,0,0,0-7.4,4,14.79,14.79,0,0,0-3.16,3.57Z" transform="translate(-168.97 -88.54)"/>
      <path class="cls-63" d="M286.52,321c.49,1.76-3.63,3.64-7.81,5.06-1.94.65-3.89,1.22-5.41,1.63s-2.53.63-2.78.69l0,0-.23-1-1-4.29,0,0s3.64,0,7.44-.25c3.26-.21,6.63-.56,7.88-1.15h0c.31-.16.48-.33.46-.5-.1-.94-2.8-.85-5.29-.56a5.44,5.44,0,0,0-.6.08l-1.11.13-.73.12a1.18,1.18,0,0,1-.25,0l-.42.07-1,.18h0l-1-1.41-1-1.5h.06C274.51,318.3,285.58,317.67,286.52,321Z" transform="translate(-168.97 -88.54)"/>
      <path class="cls-64" d="M271.27,327.63a1.49,1.49,0,0,1-.74.78l-.18.06c-1,.25-2-.74-2.4-2.21s.05-2.73.91-3.06l.13,0a1,1,0,0,1,.24,0c.89,0,1.82.9,2.16,2.24A3.41,3.41,0,0,1,271.27,327.63Z" transform="translate(-168.97 -88.54)"/>
      <path class="cls-53" d="M285.27,321.1c0,.23-.25.42-.71.6.31-.16.48-.33.46-.5-.1-.94-2.8-.85-5.29-.56a5.44,5.44,0,0,0-.6.08l-1.11.13-.73.12a1.18,1.18,0,0,1-.25,0l-.42.07-1,.18h0l-1-1.41h.08C278.29,319.74,285.21,319.68,285.27,321.1Z" transform="translate(-168.97 -88.54)"/>
      <path class="cls-62" d="M282.39,323.43c.08.41-1,1-2.33,1.24s-2.55.18-2.64-.23,1-1,2.34-1.24S282.31,323,282.39,323.43Z" transform="translate(-168.97 -88.54)"/>
      <path class="cls-53" d="M273.3,327.71c-1.47.39-2.52.64-2.77.7l-.18.06c-1,.25-2-.74-2.4-2.21s.05-2.73.91-3.06a2.09,2.09,0,0,0-.63,2.65,2.87,2.87,0,0,0,2,1.56,7.26,7.26,0,0,0,1,.22A11.67,11.67,0,0,0,273.3,327.71Z" transform="translate(-168.97 -88.54)"/>
      <path class="cls-62" d="M266.19,324.82l-3,.39c-2-3.91-4-7.43-4-7.43l2-.44c.28.48.57,1,.85,1.36l.81,1.16c.51.75,1.13,1.64,1.79,2.62C265.13,323.21,265.65,324,266.19,324.82Z" transform="translate(-168.97 -88.54)"/>
      <path class="cls-62" d="M266.85,344.94l-2.69.36s3.65-6.9,3.24-10.31c-.17-1.38-1.56-4.48-3.15-7.68l1.36-.4c1.71,3.09,3.62,5.73,3.78,8.16C269.68,339.35,267.53,343.69,266.85,344.94Z" transform="translate(-168.97 -88.54)"/>
      <path class="cls-62" d="M271.26,340.12a22.21,22.21,0,0,1-1.45,4.43l-1.51.2a29.73,29.73,0,0,0,1.46-4.63,12.12,12.12,0,0,0,0-6.13,43.81,43.81,0,0,0-3.79-7.18l1.26-.37a44.27,44.27,0,0,1,4,7.55A12.1,12.1,0,0,1,271.26,340.12Z" transform="translate(-168.97 -88.54)"/>
      <path class="cls-51" d="M220.68,313.38a95.4,95.4,0,0,1-5.23,10.06c-2.75,4.4-5.69,7.8-5.74,12.13-.08,8.07,7.55,14.71,7.55,14.71l6.3.9s-10.27-9.37-10.27-15.61c0-4.74,2.41-8.23,4-11.8s4.49-10.22,4.49-10.22Z" transform="translate(-168.97 -88.54)"/>
      <path class="cls-65" d="M276,349.94a17.21,17.21,0,0,1-7,4c-6.11,1.76-16.49,2.15-24.85,2.11h-.69c-1.34,0-2.72,0-4.14,0l-2.49,0a.07.07,0,0,0-.06,0h-.65c-.85,0-1.69-.06-2.51-.1a101.73,101.73,0,0,1-10.78-.93,9.55,9.55,0,0,1-1.07-.18c-.7-.11-1.37-.25-2-.38s-1.25-.31-1.82-.46a21.48,21.48,0,0,1-2.09-.77c3.85-.88,9.11-1.95,15.07-2.95l1.71-.29a184.93,184.93,0,0,1,21.11-2.24c1.67-.08,3.34-.12,5-.12A64,64,0,0,1,276,349.94Z" transform="translate(-168.97 -88.54)"/>
    </g>
    <g id="Layer_1">
      <path class="cls-66" d="M314.58,132.07,328,115.42c2.73,3.55,10.87,9.54,13.09,10.46l-7.89,14.4S322.39,133.3,314.58,132.07Z" transform="translate(-168.97 -88.54)"/>
      <path class="cls-66" d="M322.39,133.3c-1.57,0-5.75-1.07-9.1-1.39-3.85-.36-18.27-.59-19.24-1.72-1.41-1.63-1.09-4.49-.24-5.3s15.3,1,14.8-.59c-.83-2.69-6.3-5.46-6.62-6.79-.69-2.91,10.55-8.44,13.79-9.5s11.74,4.37,14.46,11.4C331.24,122,322.39,133.3,322.39,133.3Z" transform="translate(-168.97 -88.54)"/>
      <path class="cls-66" d="M308.1,122.72c-3-2.42-7-5.88-8.22-6.34s-8.71,0-9.09-.85.14-4.17,1.88-4.1,9,.09,10.61,1.26,7.13,4.62,7.37,5.25S309.78,124.06,308.1,122.72Z" transform="translate(-168.97 -88.54)"/>
      <path class="cls-66" d="M313.22,119.33a49,49,0,0,0-7.5-6.37c-1.17-.59-8.27-.25-8.55-1.14s-.18-3.12,1.38-3.87c2.05-1,8.67-.44,10.15.92s7.4,5.34,7.57,6S314.74,120.87,313.22,119.33Z" transform="translate(-168.97 -88.54)"/>
      <path class="cls-66" d="M320.92,116.86a49,49,0,0,0-7.5-6.37c-1.17-.59-8.27-.25-8.55-1.14s-.18-3.12,1.37-3.88c2.06-1,8.68-.43,10.16.93s7.4,5.33,7.57,6S322.44,118.4,320.92,116.86Z" transform="translate(-168.97 -88.54)"/>
      <path class="cls-67" d="M477.34,215.94c0-1.95-3.18-3.53-7.12-3.53s-7.12,1.58-7.12,3.53,3.19,3.52,7.12,3.52S477.34,217.89,477.34,215.94Z" transform="translate(-168.97 -88.54)"/>
      <path class="cls-68" d="M416.45,250.52c-14.92-29.64-54.06-75-78.34-96.28l-5.32-35.66s85.75,80.81,106.48,94.47Z" transform="translate(-168.97 -88.54)"/>
      <path class="cls-69" d="M337.76,151.87l.35,2.37c24.28,21.28,62.44,68.39,77.36,98l2-3.43C400.27,217.85,362.69,174.32,337.76,151.87Z" transform="translate(-168.97 -88.54)"/>
      <path class="cls-70" d="M320.74,166c-.77.95-3.55-1.32-4.61-3.6a2.54,2.54,0,0,1,.78-3.07C318.32,157.77,322.69,163.6,320.74,166Z" transform="translate(-168.97 -88.54)"/>
      <rect class="cls-71" x="318.57" y="177.52" width="2.28" height="2.85" transform="translate(-192.13 219.54) rotate(-49.88)"/>
      <rect class="cls-71" x="325.59" y="255.16" width="2.28" height="2.85" transform="matrix(0.64, -0.76, 0.76, 0.64, -249, 252.52)"/>
      <rect class="cls-71" x="331.65" y="262.06" width="2.28" height="2.85" transform="matrix(0.64, -0.76, 0.76, 0.64, -252.12, 259.6)"/>
      <rect class="cls-72" x="322.89" y="186.17" width="2.85" height="2.28" transform="translate(-186.53 -54.16) rotate(-5.91)"/>
      <path class="cls-73" d="M329,228.26c1.25-1.35,1.63-3,.86-3.75s-2.4-.22-3.65,1.12-1.63,3-.86,3.75S327.71,229.6,329,228.26Z" transform="translate(-168.97 -88.54)"/>
      <path class="cls-73" d="M322.61,265.15c1.25-1.34,1.63-3,.86-3.74s-2.4-.23-3.65,1.12-1.63,3-.86,3.74S321.37,266.5,322.61,265.15Z" transform="translate(-168.97 -88.54)"/>
      <path class="cls-74" d="M320.32,217.1c-1.36-1.63-3.24-2.3-4.21-1.5s-.65,2.78.7,4.42,3.24,2.3,4.21,1.49S321.67,218.73,320.32,217.1Z" transform="translate(-168.97 -88.54)"/>
      <path class="cls-74" d="M338,284.71c-1.36-1.63-3.24-2.3-4.21-1.5s-.65,2.78.7,4.42,3.25,2.3,4.21,1.49S339.3,286.34,338,284.71Z" transform="translate(-168.97 -88.54)"/>
      <path class="cls-75" d="M319.05,190.31l-.73,1.22s4.27,5.29,4.63,11.56l1.42-.15S323.83,195,319.05,190.31Z" transform="translate(-168.97 -88.54)"/>
      <path class="cls-75" d="M316.35,200.58l-1.07.69c3,9.72,13.48,11.22,13.48,11.22l.16-1.17C318.8,210.36,316.35,200.58,316.35,200.58Z" transform="translate(-168.97 -88.54)"/>
      <path class="cls-75" d="M320.34,280.22l-1.08.68c3,9.72,13.49,11.22,13.49,11.22l.16-1.16C322.78,290,320.34,280.22,320.34,280.22Z" transform="translate(-168.97 -88.54)"/>
      <polygon class="cls-76" points="159.62 151.25 160 148.27 157.12 149.5 159.62 151.25"/>
      <polygon class="cls-76" points="176.91 204.14 177.29 201.16 174.41 202.39 176.91 204.14"/>
      <polygon class="cls-76" points="150.12 140.98 150.5 138 147.62 139.23 150.12 140.98"/>
      <polygon class="cls-76" points="152.81 158.26 151.84 155.44 149.81 157.83 152.81 158.26"/>
      <path class="cls-68" d="M483.82,299.1c26.11,20.55,56.78,57.89,75,86.6l14.45-5.32s-70.43-151.67-87.42-149.76Z" transform="translate(-168.97 -88.54)"/>
      <path class="cls-69" d="M482.26,294.58l.5,5.08c26.12,20.55,56.18,56.14,74.41,84.85l1.74-.64C540,354.33,509.24,316.83,482.26,294.58Z" transform="translate(-168.97 -88.54)"/>
      <path class="cls-77" d="M431.4,544.9,437,578.64s6.85.14,6.4-.74-4.6-29.47-4.6-29.47Z" transform="translate(-168.97 -88.54)"/>
      <path class="cls-78" d="M444.17,583H418.52s-.58-1.9,2.53-3.42,14.53-5.5,14.53-5.5l8,1.51A23.7,23.7,0,0,1,444.17,583Z" transform="translate(-168.97 -88.54)"/>
      <path class="cls-77" d="M538.51,549.74l11,27.76s-6.63.12-6.63-.61S533,552.65,533,552.65Z" transform="translate(-168.97 -88.54)"/>
      <path class="cls-78" d="M541.35,583h25.09s.57-1.9-2.47-3.42-14.21-5.5-14.21-5.5l-7.83,1.51A24,24,0,0,0,541.35,583Z" transform="translate(-168.97 -88.54)"/>
      <path class="cls-68" d="M429.36,558.55l24.82,5.67s-24.7-161-25.65-171.41l-22.28-11.95S408.16,483.31,429.36,558.55Z" transform="translate(-168.97 -88.54)"/>
      <path class="cls-69" d="M417.7,485.7c7.33-3.41,17.08.89,25.26,10.05-7.16-46.92-20.48-134.56-21.18-142.16l-22.27-11.95S400.94,418.1,415,487.43A12.6,12.6,0,0,1,417.7,485.7Z" transform="translate(-168.97 -88.54)"/>
      <path class="cls-68" d="M525,558.46l24.9,3.26s-54-153.13-57.39-163.28l-30.24-8S486.92,489,525,558.46Z" transform="translate(-168.97 -88.54)"/>
      <path class="cls-69" d="M514.78,488.49a15.16,15.16,0,0,1,8.27.6c-16.23-46-41.93-119-44.21-125.89l-30.25-8s20.72,82.74,53.46,150C503.47,496.51,508,490,514.78,488.49Z" transform="translate(-168.97 -88.54)"/>
      <path class="cls-68" d="M401.71,444.84A18.65,18.65,0,0,1,413.62,448a20.49,20.49,0,0,1,4-.55c13.55-.43,26.71,3.41,39.87,6.56q3.66.28,7.32.5c14.81.82,29.66.74,44.49.73,2.56,0,5.22-.08,7.94-.17-13.78-38.41-30.13-85.62-32.7-100.2l2.28-6.46-4.94-5.7s9.88-6.84,9.88-8-2.28-36.87-.76-41.05-4.94-61.19-5.7-63.1-11.4-8.36-17.48-11-24.71-6.46-31.93-6.84-33.55,31-30,115.55l3.08,2.62-3.08,1.94S395.8,371.8,401.71,444.84Z" transform="translate(-168.97 -88.54)"/>
      <path class="cls-69" d="M422.23,318.46s3.27-66.85,16.5-90.16l.48,3.54S430.93,242.6,422.23,318.46Z" transform="translate(-168.97 -88.54)"/>
      <path class="cls-69" d="M409,330.86l3.5-.46L408,326.52c-.8-11.6-2.23-21.07-1.95-30.74-.55,9.82-.64,20.63-.15,32.48Z" transform="translate(-168.97 -88.54)"/>
      <path class="cls-69" d="M402.88,444.77c-7-72.81,4-112.56,4-112.56l.42-.28-1.41.89s-10.09,39-4.18,112C402.1,444.8,402.49,444.78,402.88,444.77Z" transform="translate(-168.97 -88.54)"/>
      <path class="cls-69" d="M409,330.88l-3,1.86c14.49.11,55.7,16.31,66.58,24.57,7.93,6,25.38,54.21,40.7,97.86l4-.11c-13.78-38.41-30.13-85.62-32.7-100.2l2.28-6.46-4.94-5.7s9.88-6.84,9.88-8-1.1-27.23.42-31.42c-8.75-13.62-8.26-20.33-9.83-23.59-2.54,27.86-4.66,54.17-10.36,57.17-9.14,4.81-47.22-4.45-66.2-10.65,0,.68,0,1.34.07,2Z" transform="translate(-168.97 -88.54)"/>
      <path class="cls-66" d="M441.24,213.47s-4.37,12.54-3.52,22.23c0,0,24.8-1.71,37.73-12.22C464.4,217.07,456.21,214.19,441.24,213.47Z" transform="translate(-168.97 -88.54)"/>
      <path class="cls-79" d="M439.78,255.62c.17-1.74-.55-3.23-1.6-3.34s-2.05,1.23-2.22,3,.55,3.24,1.61,3.34S439.61,257.36,439.78,255.62Z" transform="translate(-168.97 -88.54)"/>
      <path class="cls-79" d="M436.14,276.53c.17-1.74-.55-3.23-1.61-3.33s-2,1.22-2.21,3,.55,3.24,1.6,3.34S436,278.27,436.14,276.53Z" transform="translate(-168.97 -88.54)"/>
      <path class="cls-79" d="M432.88,300.56c0-1.74-.78-3.18-1.84-3.2s-2,1.37-2,3.12.79,3.18,1.85,3.21S432.84,302.31,432.88,300.56Z" transform="translate(-168.97 -88.54)"/>
      <path class="cls-69" d="M406.32,332.67l-.78,3.49c13.32,2.12,44.75,16.69,44.75,16.69C443,345.18,413,334.38,406.32,332.67Z" transform="translate(-168.97 -88.54)"/>
      <path class="cls-78" d="M395.56,444s76.32,13.61,125,16.46c0,0-35.12-85.41-37.17-101.81l2.86-3.57-4.34-4.22h0c-30.16-8.13-36.22-9.8-36.22-9.8-9.21-2.54-22.05-6.15-37.51-10.72l2.8,2.07-3.23.7S385.31,369.33,395.56,444Z" transform="translate(-168.97 -88.54)"/>
      <path class="cls-80" d="M410.52,331.86l-.41-.07.81.6,3.51.26-.63-.47A28,28,0,0,1,410.52,331.86Z" transform="translate(-168.97 -88.54)"/>
      <path class="cls-80" d="M398.37,444.67c-13.81-74.83,10.38-111.79,10.38-111.79l.45-.1-1.48.32S385.31,369.33,395.56,444Z" transform="translate(-168.97 -88.54)"/>
      <path class="cls-80" d="M483.36,358.64l2.86-3.57-4.34-4.22.49-.13a24.46,24.46,0,0,1-10.74-4.83c-10.87.65-45.8-10.33-63.36-16.8l-.12,1.24,2.8,2.07-3.1.67c14.31,2.31,53.49,18.51,63.45,25.21,10.75,7.23,33.37,73.86,44.85,101.89l4.38.28S485.41,375,483.36,358.64Z" transform="translate(-168.97 -88.54)"/>
      <path class="cls-80" d="M408.15,333.08l-1.09,2c12.95,3.34,42.62,17.05,42.62,17.05C443.17,346.34,414.57,335.14,408.15,333.08Z" transform="translate(-168.97 -88.54)"/>
      <path class="cls-80" d="M436,237.5l6.33-9.59c14.75-1.91,24.07-4.22,35.06-12l-.52,8.39S464.92,236,436,237.5Z" transform="translate(-168.97 -88.54)"/>
      <polygon class="cls-78" points="387.94 296.97 381.9 289.49 399.17 279.42 404.63 291.21 387.94 296.97"/>
      <polygon class="cls-78" points="178.73 75.67 176.72 40.56 161.75 26.75 164.34 61.86 178.73 75.67"/>
      <path class="cls-66" d="M469.09,180.67,440.9,192.53l-2.62,24.57c7.8,8,22.56,9.22,36.83,1.77Z" transform="translate(-168.97 -88.54)"/>
      <g class="cls-81">
        <path class="cls-82" d="M422.22,222.79c-.89,13.31,16,25.26,37.75,26.71,16.13,1.07,30.37-4,37-12.05a92.91,92.91,0,0,0-7.54-6.23,52.88,52.88,0,0,0-10.37-9h0c.27-2-1.45-4.41-4.28-6.64l-2-34.18-29.22,9-3.51,17c-1.35-.15-2.67-.27-3.94-.32a57.22,57.22,0,0,0-7.21-2.09C425,212,422.49,218.61,422.22,222.79Z" transform="translate(-168.97 -88.54)"/>
      </g>
      <path class="cls-83" d="M475.09,141.44c-3.51-4.11-5.55-2.32-5.55-2.32s-7.48-9.25-11.4-10c0,0-9.71-5.48-14.51-1.66,0,0-13.86-2.61-19,6s1.65,20,1.65,20,2.53,25.62,11.7,39.33l31.24-3.11c6.31-18.89,5.86-29.86,5.86-29.86S478.59,145.56,475.09,141.44Z" transform="translate(-168.97 -88.54)"/>
      <path class="cls-84" d="M475.12,159.92s3.47-14.36,0-18.48-5.55-2.32-5.55-2.32-7.48-9.25-11.4-10l-1-.49c4.88,4.45,7.32,9.89,6,14.95-2,7.84-12.34,12.16-24.26,10.77a42,42,0,0,1-1.36,12.94A41.13,41.13,0,0,1,432,180.08a55.6,55.6,0,0,0,6,12.81l31.24-3.11C475.57,170.89,475.12,159.92,475.12,159.92Z" transform="translate(-168.97 -88.54)"/>
      <path class="cls-83" d="M470.07,167.79c.66,18.35,2.63,35.73-4.91,44.11s-28.15,14.36-38.08,8.53c0,0,5.25-11.77,3.43-18s2.56-29.52,2.56-29.52l33-6Z" transform="translate(-168.97 -88.54)"/>
      <path class="cls-84" d="M471.41,167.51l-5.33-.65-3.42.84c.7,17.91,3.35,34.33-4,42.52-5.94,6.6-20,11.68-30.54,10.71,10.26,4.9,29.77-.93,37.06-9C472.7,203.52,472.08,185.86,471.41,167.51Z" transform="translate(-168.97 -88.54)"/>
      <path class="cls-66" d="M429.69,152.58c-.76,6.93,3.29,33.21,5.3,35.74s23.44,2,25.91-2.21-2.26-32.93-4.92-36.94S430.56,144.61,429.69,152.58Z" transform="translate(-168.97 -88.54)"/>
      <path class="cls-84" d="M469.64,170.72l-3,9.27-3.4.67s-9.2-32.13-1-35.33S469.64,170.72,469.64,170.72Z" transform="translate(-168.97 -88.54)"/>
      <path class="cls-66" d="M465.26,175.62c.53-9.43,9.38-10.32,10.1-4.34s-4.55,13.45-6.44,12.27S465.08,178.81,465.26,175.62Z" transform="translate(-168.97 -88.54)"/>
      <path class="cls-85" d="M467.1,175.6c.35-6.15,6.11-6.73,6.58-2.83s-3,8.75-4.2,8A6.26,6.26,0,0,1,467.1,175.6Z" transform="translate(-168.97 -88.54)"/>
      <path class="cls-66" d="M467.45,177.71c.26-4.62,4.59-5.05,4.94-2.12s-2.22,6.58-3.15,6A4.71,4.71,0,0,1,467.45,177.71Z" transform="translate(-168.97 -88.54)"/>
      <path class="cls-66" d="M560,399.24l18.49-7.51c-2.6-3.07-6.11-11.18-6.42-13.24l-15.72,4.65S560.72,392.45,560,399.24Z" transform="translate(-168.97 -88.54)"/>
      <path class="cls-66" d="M560.72,392.45c-.38,1.31-.42,5-.93,7.9-.59,3.29-3.87,15.37-3.07,16.44a4.6,4.6,0,0,0,4.79,1.37c1-.52,2.75-13,4.12-12.21,2.27,1.28,3.48,6.46,4.62,7,2.5,1.22,10.27-6.94,12-9.4s-1.17-10.76-6.95-14.59C573.21,387.57,560.72,392.45,560.72,392.45Z" transform="translate(-168.97 -88.54)"/>
      <path class="cls-66" d="M567,406.72c1.48,3,3.69,7.14,3.81,8.26s-2.1,7.27-1.41,7.77,3.85.81,4.2-.65,2.1-7.52,1.41-9.14-2.5-7-3-7.31S566.13,405,567,406.72Z" transform="translate(-168.97 -88.54)"/>
      <path class="cls-66" d="M571.29,403.19a40.42,40.42,0,0,1,4,7.68c.27,1.1-1.77,6.95-1,7.38s2.82.84,3.89-.29c1.41-1.49,2.49-7.14,1.6-8.68s-3.1-7.35-3.66-7.64S570.25,401.59,571.29,403.19Z" transform="translate(-168.97 -88.54)"/>
      <path class="cls-66" d="M575.41,397.32a40.62,40.62,0,0,1,4,7.67c.26,1.11-1.77,6.95-1,7.39s2.82.84,3.89-.29c1.41-1.5,2.49-7.14,1.6-8.69s-3.09-7.35-3.65-7.64S574.37,395.71,575.41,397.32Z" transform="translate(-168.97 -88.54)"/>
      <path class="cls-68" d="M421.1,150.67s42.79-8.76,56.79-4c0,0-.35-47.11-9.41-53.11C448,80,409.23,97.34,407.68,106.72,405.88,117.67,416,119.72,421.1,150.67Z" transform="translate(-168.97 -88.54)"/>
      <path class="cls-69" d="M468.13,93.6a31.4,31.4,0,0,0-14.43-4.76,67.92,67.92,0,0,1,8.14,24.44,71.23,71.23,0,0,1-2.48,32.2c7.34-.39,14-.17,18.17,1.23C477.53,146.71,477.19,99.6,468.13,93.6Z" transform="translate(-168.97 -88.54)"/>
      <path class="cls-69" d="M455.31,145.8l5.66-.4s.77-21.51-6.39-39.74C454.58,105.66,459.54,132.15,455.31,145.8Z" transform="translate(-168.97 -88.54)"/>
    </g>
  </g>
</svg>
