<?xml version="1.0"?>
<svg xmlns="http://www.w3.org/2000/svg" version="1.2" baseProfile="tiny-ps" viewBox="0 0 746 584" width="746" height="584">
	<title>3857133-ai</title>
	<defs>
		<image width="80" height="80" id="img1"/>
		<clipPath clipPathUnits="userSpaceOnUse" id="cp1">
			<path d="M343.8 403.19L462.14 406.86L466.85 415.56L420.1 416.28L443.3 478.25L334.85 478.22L343.8 403.19Z"/>
		</clipPath>
	</defs>
	<style>
		tspan { white-space:pre }
		.shp0 { fill: #fcfaf1 } 
		.shp1 { fill: #febf9f } 
		.shp2 { fill: #000000 } 
		.shp3 { fill: #b06d6a } 
		.shp4 { fill: #fcb091 } 
		.shp5 { fill: #f9401d } 
		.shp6 { fill: #f69b77 } 
		.shp7 { fill: #5f462e } 
		.shp8 { fill: #ae8448 } 
		.shp9 { fill: #eec84e } 
		.shp10 { fill: #8ec1c2 } 
		.shp11 { fill: #d7f5f6 } 
		.shp12 { fill: #abe2d9 } 
		.shp13 { opacity: 0.6;fill: #c4f6ec } 
		.shp14 { opacity: 0.6;fill: none;stroke: #c4f6ec;stroke-linecap:round;stroke-width: 2.602 } 
		.shp15 { fill: #185442 } 
		.shp16 { fill: #f97f23 } 
		.shp17 { fill: #d55d1e } 
		.shp18 { fill: #a0b481 } 
		.shp19 { fill: #0b683e } 
		.shp20 { fill: #e6ccc5 } 
	</style>
	<g id="OBJECTS">
		<g id="&lt;Group&gt;">
			<g id="&lt;Group&gt;" style="opacity: 0.502">
				<path id="&lt;Path&gt;" class="shp0" d="M560.31 364.36C552.67 370.02 542.82 375.98 542.79 386.16C542.78 389.65 544.03 392.97 545.3 396.16C554.31 418.81 565.42 440.65 571.04 464.6C572.53 470.97 573.56 477.57 574.05 484.2L80.55 484.2C68.24 472.25 57.53 455.88 61.88 438.93C67.61 416.59 96.08 408.47 100.74 385.82C105.33 363.57 83.87 344.21 83.27 321.39C82.89 306.72 91.63 293.11 102.92 285.44C114.2 277.77 127.68 275.14 140.88 274.05C158.8 272.56 176.89 273.62 194.58 277.19C214.55 281.22 234.54 288.48 254.7 285.8C262.67 284.74 270.63 282.02 277 276.59C285.41 269.42 290.26 258.28 293.69 247.14C303.12 216.47 304.33 182.22 319.95 154.84C340.14 119.43 381.35 103.69 418.92 108.13C456.5 112.57 490.78 134.1 520.74 159.63C550.01 184.57 577.22 215.36 588.5 254.33C599.78 293.31 591.01 341.64 560.31 364.36Z"/>
			</g>
			<g id="&lt;Group&gt;">
				<g id="&lt;Group&gt;">
					<g id="&lt;Group&gt;">
						<g id="&lt;Group&gt;">
							<path id="&lt;Path&gt;" class="shp1" d="M583.56 286.6C569.56 297.53 551.19 305.9 534.1 312.04C529.19 293.43 524.87 274.71 521.65 255.8C535.01 253.05 549.6 248.04 563.35 238.67C584.24 224.44 612.05 171.86 619.01 158.27C619.36 157.55 619.71 156.84 620.06 156.13L620 156.11C623.6 146.59 625.64 141.12 626.12 139.68C627.33 136.07 628.67 129.81 630.15 120.89C632.78 120.03 634.32 122.61 634.76 128.64C635.21 134.68 635.95 136.79 636.99 135C647.93 118.54 654.97 110.66 658.1 111.36C659.86 111.75 658.07 117.39 655.27 120.63C653.41 122.79 651.52 125.56 649.59 128.94C660.26 117.14 667.03 111.94 669.89 113.34C671.31 114.24 670.31 116.45 666.9 119.95C662.17 124.81 658.25 129.45 655.14 133.88C665.96 124.47 672.07 120.14 673.47 120.89C676.97 122.76 660.54 137.15 658.08 142.13C666.18 134.49 670.46 131.74 670.91 133.89C671.57 136.95 657.7 149.04 651.4 165.22C650.94 166.8 650.35 168.62 649.64 170.65C649.64 170.65 649.65 170.64 649.66 170.64C638.59 222.18 616.55 260.83 583.56 286.6Z"/>
							<g id="&lt;Group&gt;">
								<path id="&lt;Path&gt;" class="shp2" d="M636.19 136.24C638.22 137.82 639.98 139.67 641.54 141.71C642.32 142.73 643.03 143.81 643.66 144.97C644.25 146.15 644.87 147.37 645 148.94L643 148.18C644.03 147.31 645.02 146.75 646.19 146.37C647.32 145.98 648.54 145.8 649.73 145.91C650.91 146 652.07 146.3 653.08 146.84C654.11 147.35 654.99 148.06 655.76 148.84C654.72 148.46 653.73 148.07 652.71 147.88C651.71 147.63 650.7 147.65 649.74 147.7C648.78 147.79 647.85 148.05 646.98 148.43C646.13 148.81 645.24 149.35 644.64 149.9L642.96 151.45L642.64 149.14C642.51 148.2 642.11 147.07 641.59 146.01C641.08 144.94 640.52 143.86 639.9 142.79C638.69 140.64 637.4 138.5 636.19 136.24Z"/>
							</g>
						</g>
						<g id="&lt;Group&gt;">
							<g id="&lt;Group&gt;">
								<g id="&lt;Group&gt;">
									<path id="&lt;Path&gt;" class="shp2" d="M461.62 198.85C461.62 211.13 452.7 221.08 441.71 221.08C430.71 221.08 421.8 211.13 421.8 198.85C421.8 186.57 430.71 176.62 441.71 176.62C452.7 176.62 461.62 186.57 461.62 198.85Z"/>
									<path id="&lt;Path&gt;" class="shp2" d="M426.82 207.55C445.88 191.88 449.34 166.86 437.22 132.48C425.39 98.93 355.69 194.4 426.82 207.55Z"/>
								</g>
								<g id="&lt;Group&gt;">
									<g id="&lt;Group&gt;">
										<path id="&lt;Path&gt;" class="shp1" d="M355.58 149.48C358.77 129.33 378.84 95.63 414.5 116.37C425.71 122.89 430.5 134.79 432.77 147.15C433.83 152.9 433.34 184 431.31 240.47C428.29 274.4 377.32 282.46 375.57 241.13L377.66 212.84C351.83 204.54 352 172.11 355.58 149.48Z"/>
										<path id="&lt;Path&gt;" class="shp3" d="M377.66 212.84C387.39 216.1 401.43 212.02 419.78 200.61C409.47 215.72 394.97 226.35 376.31 232.52L377.66 212.84Z"/>
										<g id="&lt;Group&gt;">
											<path id="&lt;Path&gt;" class="shp4" d="M424.36 177.33C424.36 185.53 417.71 192.18 409.51 192.18C401.3 192.18 394.65 185.53 394.65 177.33C394.65 169.12 401.3 162.47 409.51 162.47C417.71 162.47 424.36 169.12 424.36 177.33Z"/>
											<path id="&lt;Path&gt;" class="shp4" d="M370.82 167.11C370.82 158.91 364.16 152.26 355.96 152.26C355.69 152.26 355.43 152.26 355.16 152.28C353.87 161.54 353.25 172.12 354.72 181.92C355.13 181.95 355.54 181.97 355.96 181.97C364.16 181.97 370.82 175.32 370.82 167.11Z"/>
										</g>
									</g>
									<g id="&lt;Group&gt;">
										<path id="&lt;Path&gt;" class="shp1" d="M449.12 159.57C450.55 165.45 446.94 171.37 441.06 172.8C435.18 174.23 429.26 170.62 427.83 164.74C426.41 158.86 430.01 152.94 435.89 151.51C441.77 150.08 447.69 153.69 449.12 159.57Z"/>
										<g id="&lt;Group&gt;">
											<path id="&lt;Path&gt;" class="shp2" d="M433.4 165.22C433.5 164.06 433.99 163.02 434.67 162.1C435.35 161.17 436.31 160.38 437.51 159.92C438.72 159.47 440.19 159.57 441.28 160.18C442.41 160.74 443.13 161.73 443.55 162.78C442.43 162.44 441.53 162.03 440.66 161.95C439.8 161.85 439.06 161.88 438.31 162.18C436.77 162.72 435.27 163.96 433.4 165.22Z"/>
										</g>
									</g>
									<g id="&lt;Group&gt;">
										<path id="&lt;Path&gt;" class="shp2" d="M375.99 176.61C377.37 177.21 378.5 177.92 379.64 178.37C380.77 178.85 381.82 179.17 382.81 179.15C383.81 179.15 384.81 178.86 385.91 178.36C387 177.84 388.1 177.12 389.37 176.34C389.12 177.82 388.4 179.17 387.28 180.25C386.19 181.35 384.56 182.16 382.81 182.14C381.05 182.14 379.47 181.35 378.37 180.32C377.2 179.32 376.44 178.02 375.99 176.61Z"/>
									</g>
									<g id="&lt;Group&gt;">
										<g id="&lt;Group&gt;">
											<path id="&lt;Path&gt;" class="shp2" d="M379.76 144.57C380.08 145.83 379.92 147.2 379.59 148.47C379.26 149.75 378.7 150.94 378.07 152.06C376.76 154.3 375.12 156.26 373.15 157.96L372.97 156.4C375.09 157.89 377.18 159.44 379.13 161.24C376.62 160.38 374.27 159.27 371.95 158.11L370.9 157.58L371.76 156.55C372.51 155.64 373.27 154.66 374.02 153.73C374.75 152.77 375.5 151.83 376.19 150.85C377.59 148.89 378.92 146.99 379.76 144.57Z"/>
										</g>
										<g id="&lt;Group&gt;">
											<path id="&lt;Path&gt;" class="shp2" d="M391.79 147.87C391.73 149.78 391.78 151.76 392.06 153.55C392.34 155.34 393.07 156.96 394.07 157.2C394.94 157.59 396.47 156.7 397.73 155.4C398.99 154.12 400.2 152.56 401.28 151.01L401.31 150.96C401.61 150.53 402.2 150.42 402.64 150.72C403.01 150.98 403.14 151.45 402.98 151.86C402.2 153.83 401.22 155.64 399.79 157.31C399.08 158.14 398.25 158.92 397.16 159.55C396.11 160.15 394.52 160.55 393.09 160.01C391.68 159.52 390.66 158.31 390.2 157.19C389.71 156.04 389.52 154.92 389.45 153.83C389.33 151.65 389.64 149.61 390.21 147.58C390.33 147.15 390.78 146.9 391.21 147.03C391.57 147.13 391.8 147.47 391.79 147.83L391.79 147.87Z"/>
										</g>
										<g id="&lt;Group&gt;">
											<path id="&lt;Path&gt;" class="shp2" d="M361.39 144.44C361.33 146.24 361.32 148.09 361.47 149.81C361.56 150.67 361.68 151.51 361.93 152.19C362.17 152.91 362.51 153.24 362.69 153.23C362.8 153.3 363.3 153.18 363.88 152.68C364.45 152.23 365 151.58 365.54 150.91C366.59 149.54 367.6 147.99 368.54 146.47L368.56 146.43C368.84 145.98 369.43 145.84 369.88 146.12C370.26 146.35 370.41 146.81 370.29 147.22C369.69 149.09 368.92 150.85 367.82 152.53C367.28 153.38 366.64 154.19 365.79 154.95C365.35 155.32 364.86 155.68 364.21 155.94C363.57 156.21 362.7 156.35 361.89 156.1C361.09 155.88 360.4 155.33 359.99 154.76C359.57 154.19 359.34 153.6 359.18 153.05C358.89 151.94 358.82 150.91 358.84 149.9C358.88 147.89 359.24 146.01 359.81 144.14C359.94 143.71 360.39 143.47 360.82 143.6C361.18 143.71 361.4 144.04 361.39 144.4L361.39 144.44Z"/>
										</g>
									</g>
									<path id="&lt;Path&gt;" class="shp2" d="M404.68 139.94C404.46 141.35 402.25 142.18 399.74 141.78C397.23 141.39 395.37 139.92 395.59 138.51C395.81 137.1 398.02 136.28 400.53 136.67C403.04 137.07 404.9 138.53 404.68 139.94Z"/>
									<path id="&lt;Path&gt;" class="shp2" d="M369.83 134.67C370.32 136.02 368.78 137.79 366.39 138.62C364 139.45 361.67 139.03 361.18 137.68C360.69 136.33 362.23 134.56 364.61 133.73C367 132.9 369.34 133.32 369.83 134.67Z"/>
								</g>
								<path id="&lt;Path&gt;" class="shp2" d="M363.29 128.51C377.79 131.65 394.86 127.6 414.5 116.37C407.4 154.56 413.38 166.79 432.42 153.07C435.07 151.04 437.81 150.45 440.65 151.29L441.78 151.66C441.35 129.36 433.15 115.46 417.19 109.95C393.26 101.69 376.34 105.47 363.29 128.51Z"/>
							</g>
							<g id="&lt;Group&gt;">
								<g id="&lt;Group&gt;">
									<path id="&lt;Path&gt;" class="shp1" d="M217.64 294.35L228.53 260.53L253.75 269.13L252.61 298.36L217.64 294.35Z"/>
									<g id="&lt;Group&gt;">
										<path id="&lt;Path&gt;" class="shp5" d="M612.1 167.34C591.77 208.45 572.9 233.07 555.47 241.21C529.39 253.38 461.84 234.97 443.39 235.77L443.39 235.74L431.51 235.48C427.13 242.51 411.27 247.17 399.79 246.1C383.4 244.59 377.83 237.62 376.24 231.98L355.95 230.47L355.95 230.48C346.04 229.61 329.38 231.53 314 247.63C308.13 253.76 280.62 285.56 248.57 327.14L256.58 298.72L212.91 293.4C178.21 359.51 193.54 410.89 214.18 410.89C249.77 410.89 305.51 357.87 336.1 325.64L343.8 408.71L461.8 412.74L451.45 313.3C468.34 315.47 554.11 325.38 584.02 306.88C606.18 293.17 627.21 256.69 647.11 197.44L612.1 167.34Z"/>
										<g id="&lt;Group&gt;">
											<path id="&lt;Path&gt;" class="shp2" d="M239.44 357.58C238.69 357.39 241.38 344.27 246.2 328.49C251 312.69 256.08 300.3 256.82 300.57C257.58 300.84 253.73 313.6 248.94 329.32C244.15 345.03 240.22 357.78 239.44 357.58Z"/>
										</g>
									</g>
									<g id="&lt;Group&gt;">
										<path id="&lt;Path&gt;" class="shp6" d="M248.66 233.41C250.72 231.24 256.77 224.63 256.79 221.68C256.82 216.46 247.95 225.84 244.09 230.16C245.72 231.2 247.27 232.26 248.66 233.41Z"/>
										<path id="&lt;Path&gt;" class="shp7" d="M211.41 190.51C212.66 187.77 216.29 187.17 218.36 189.36C227.89 199.51 249.25 225.03 259.99 242.31C270.14 258.65 278.58 272.17 285.3 282.88L329.88 321.38C317.31 328.26 305.45 326.71 294.3 316.74C285.87 309.19 279.69 298.73 275.76 285.37C249.91 238.94 228.83 208.98 212.53 195.51C211.06 194.29 210.61 192.25 211.41 190.51Z"/>
										<g id="&lt;Group&gt;">
											<path id="&lt;Path&gt;" class="shp1" d="M229.05 278.18C226.32 267.19 226.12 249.39 225.99 242.74C225.87 236.86 229.68 234.32 232.14 232.9C242.3 227.05 262.92 222.82 263.69 225.7C264.11 227.28 258.39 229.99 246.51 233.83C261.29 231.4 267.22 231.87 264.31 235.23C262.76 237.03 257.83 238.27 249.53 238.97C258.55 239.92 262.71 241.06 262.02 242.39C260.8 244.73 256.48 245.74 249.06 245.42C252.63 248.42 254.93 253.71 255.97 261.3C256.72 266.81 251.44 275.06 240.12 286.04L229.05 278.18Z"/>
										</g>
										<g id="&lt;Group&gt;">
											<path id="&lt;Path&gt;" class="shp2" d="M238.43 247.8C238.3 247.3 240.71 246.28 243.83 246.04C245.37 245.89 246.76 245.95 247.61 245.88C248.45 245.86 248.81 245.52 249.09 245.62C249.2 245.67 249.25 245.88 249.1 246.22C248.95 246.57 248.53 246.94 247.99 247.18C246.9 247.67 245.5 247.8 244 247.94C241 248.18 238.56 248.32 238.43 247.8Z"/>
										</g>
									</g>
								</g>
								<g id="&lt;Group&gt;">
									<g id="&lt;Group&gt;">
										<path id="&lt;Path&gt;" class="shp2" d="M545.33 270.39C544.48 270.41 543.97 264.12 540.74 257.28C537.62 250.4 533.15 245.94 533.71 245.31C533.96 245.03 535.44 245.79 537.38 247.62C539.32 249.43 541.63 252.37 543.35 256.08C545.06 259.78 545.81 263.45 545.94 266.1C546.07 268.76 545.7 270.38 545.33 270.39Z"/>
									</g>
									<g id="&lt;Group&gt;">
										<path id="&lt;Path&gt;" class="shp2" d="M559.33 257.1C558.72 257.66 554.69 254.12 549.08 250.86C543.5 247.55 538.45 245.75 538.65 244.94C538.78 244.2 544.52 244.83 550.54 248.39C556.57 251.91 559.92 256.62 559.33 257.1Z"/>
									</g>
								</g>
							</g>
						</g>
					</g>
					<g id="&lt;Group&gt;">
						<g id="&lt;Group&gt;">
							<g id="&lt;Group&gt;">
								<path id="&lt;Path&gt;" class="shp2" d="M465.71 415.23C465.92 415.04 467.41 416.47 470.29 418.83C473.17 421.16 477.51 424.42 483.48 427.35C486.4 428.76 489.9 430.11 493.19 429.34C494.7 428.97 496.26 427.92 497.11 426.52C498 425.12 497.99 423.55 497.06 422.25C496.13 420.96 494.23 420.01 492.14 419.46C490.08 418.9 487.61 418.63 485.2 418.36C480.35 417.86 475.25 417.79 470.04 418.24L470 414.17C473.76 414.38 477.72 414.45 481.75 414.32C484.73 414.24 487.67 414.04 490.57 413.77C493.45 413.47 496.35 413.18 498.95 412.63C501.55 412.06 503.93 411.15 505.6 409.62C507.18 408.25 508.05 405.96 507.89 404C507.74 402 506.62 400.72 504.63 400.18C503.65 399.9 502.53 399.76 501.37 399.71C500.22 399.64 499.08 399.58 497.96 399.62C493.47 399.65 489.31 400.45 485.64 401.59C478.28 403.91 472.96 407.5 469.63 410.28C466.28 413.07 464.66 414.94 464.4 414.73C464.21 414.6 465.4 412.37 468.55 409.1C471.66 405.85 476.99 401.66 484.71 398.83C488.56 397.43 493 396.4 497.86 396.2C499.07 396.12 500.31 396.15 501.57 396.19C502.81 396.22 504.15 396.32 505.58 396.68C506.99 397.05 508.55 397.75 509.71 399.06C510.88 400.34 511.55 402.03 511.68 403.66C511.96 406.92 510.76 410.2 508.25 412.53C505.86 414.76 502.77 415.89 499.83 416.57C496.85 417.22 493.95 417.53 490.97 417.85C487.99 418.15 484.95 418.36 481.87 418.45C477.72 418.57 473.63 418.49 469.75 418.25L469.7 414.17C475.18 413.73 480.54 413.87 485.63 414.47C488.18 414.8 490.61 415.09 493.17 415.82C495.64 416.56 498.26 417.69 500.03 420.17C500.88 421.41 501.33 422.9 501.3 424.4C501.28 425.91 500.72 427.27 499.99 428.38C498.49 430.6 496.27 431.97 493.88 432.48C491.53 432.94 489.31 432.61 487.38 432.03C485.45 431.44 483.76 430.6 482.23 429.76C476.14 426.37 471.93 422.65 469.29 419.91C466.66 417.15 465.53 415.39 465.71 415.23Z"/>
							</g>
						</g>
						<g id="&lt;Group&gt;">
							<path id="&lt;Path&gt;" class="shp8" d="M343.8 403.19L334.85 478.22L510.47 478.22L461.8 407.22L343.8 403.19Z"/>
							<g id="&lt;Group&gt;">
								<path id="&lt;Path&gt;" class="shp0" d="M343.8 403.19L462.14 406.86L466.85 415.56L420.1 416.28L443.3 478.25L334.85 478.22L343.8 403.19Z"/>
								<g clip-path="url(#cp1)">
								<use id="&lt;Path&gt;" transform="matrix(0.92,0,0,0.92,-72,14)"/>
								</g>
							</g>
						</g>
					</g>
				</g>
				<g id="&lt;Group&gt;">
					<path id="&lt;Path&gt;" class="shp9" d="M584.21 491.08L72.38 491.08L72.38 478.39L584.21 478.39L584.21 491.08Z"/>
					<g id="&lt;Group&gt;">
						<g id="&lt;Group&gt;">
							<path id="&lt;Path&gt;" class="shp2" d="M229.82 465.46L439.55 465.46L439.55 478.78L229.82 478.78L229.82 465.46Z"/>
							<g id="&lt;Group&gt;">
								<g id="&lt;Group&gt;">
									<path id="&lt;Path&gt;" class="shp2" d="M346.47 206.49C346.55 206.55 346.22 207.15 345.54 208.23C345.18 208.79 344.75 209.45 344.26 210.21C343.77 211 343.28 211.96 342.69 213.01C340.42 217.23 337.56 223.71 336.34 232.2C335.2 240.63 335.49 251.16 339.72 261.64C341.79 266.88 344.86 271.93 348.85 276.6C352.84 281.27 357.69 286.01 360.7 292.33C363.68 298.54 365.1 305.35 364.38 311.94C364 315.21 363.01 318.43 361.24 321.19C359.5 323.98 356.87 326.06 354.24 327.48C351.6 328.92 348.94 329.93 346.48 331.01C344.03 332.08 341.73 333.28 339.57 334.57C335.27 337.16 331.58 340.11 328.54 343.1C325.51 346.07 323.28 349.27 322.46 352.44C321.56 355.6 322.33 358.5 323.48 360.48C324.64 362.5 326.19 363.57 327.31 364.06C328.44 364.55 329.13 364.6 329.12 364.73C329.12 364.8 328.41 364.95 327.11 364.61C325.83 364.26 323.97 363.23 322.53 361.08C321.11 359 320.04 355.69 320.9 352.06C321.67 348.45 324.01 344.88 327.08 341.68C330.16 338.48 333.9 335.33 338.32 332.54C340.53 331.15 342.91 329.86 345.45 328.7C347.96 327.55 350.55 326.52 352.95 325.17C355.35 323.82 357.48 322.08 358.93 319.72C360.4 317.38 361.26 314.56 361.58 311.62C362.2 305.72 360.88 299.32 358.12 293.58C355.38 287.79 350.81 283.26 346.71 278.42C342.58 273.55 339.33 268.11 337.25 262.6C332.95 251.55 332.89 240.57 334.34 231.89C335.86 223.13 339.1 216.58 341.72 212.44C342.41 211.42 342.98 210.49 343.55 209.73C344.14 209.02 344.65 208.41 345.08 207.89C345.92 206.91 346.39 206.42 346.47 206.49Z"/>
								</g>
								<g id="&lt;Group&gt;">
									<g id="&lt;Group&gt;">
										<path id="&lt;Path&gt;" class="shp2" d="M249.67 395.38C249.98 395.05 252.07 399.8 255.1 407.88L255.78 409.69L253.83 409.36C247.92 408.36 240.63 406.27 233.06 403C230.81 402.03 228.25 400.68 226.88 398.18C226.2 396.96 225.85 395.46 226.14 394.01C226.41 392.57 227.31 391.31 228.43 390.55C229.55 389.75 230.85 389.5 232.02 389.46L232.9 389.48L233.61 389.54C234.09 389.58 234.57 389.62 235.04 389.66C237 389.8 238.84 390.34 240.34 390.88C243.37 391.99 245.7 393.08 247.3 393.87C249.01 394.71 249.83 395.26 249.67 395.38C249.51 395.5 248.51 395.34 246.9 394.91C245.02 394.36 242.61 393.66 239.73 392.82C238.21 392.41 236.66 392.07 234.88 392.03C234.42 392.02 233.95 392.01 233.47 391.99L232.73 391.96L232.12 391.99C231.34 392.05 230.54 392.24 229.96 392.71C228.74 393.59 228.42 395.28 229.34 396.8C230.22 398.37 232.07 399.46 234.2 400.36C241.56 403.55 248.68 405.82 254.23 407.13L252.96 408.61C250.66 400.96 249.36 395.71 249.67 395.38Z"/>
									</g>
									<g id="&lt;Group&gt;">
										<path id="&lt;Path&gt;" class="shp2" d="M387.62 395.38C387.93 395.71 386.63 400.96 384.33 408.61L383.06 407.13C388.6 405.82 395.72 403.55 403.06 400.37C403.62 400.14 404.15 399.9 404.6 399.65C405.1 399.43 405.53 399.14 405.96 398.86C406.79 398.27 407.52 397.59 407.94 396.82C408.87 395.32 408.57 393.62 407.36 392.73C406.15 391.79 404.41 391.9 402.59 392.16C400.82 392.4 399.14 392.77 397.62 393.12C391.52 394.6 387.76 395.78 387.62 395.38C387.48 395.03 390.98 393.18 397.08 391.17C398.61 390.68 400.3 390.18 402.2 389.81C403.18 389.64 404.09 389.43 405.33 389.46C406.5 389.51 407.79 389.79 408.91 390.58C410.02 391.35 410.9 392.62 411.16 394.07C411.43 395.51 411.07 397.01 410.38 398.22C409 400.71 406.44 402.04 404.2 403.01C396.64 406.28 389.37 408.37 383.46 409.36L381.51 409.69L382.19 407.88C385.22 399.8 387.31 395.05 387.62 395.38Z"/>
									</g>
									<g id="&lt;Group&gt;">
										<g id="&lt;Group&gt;">
											<path id="&lt;Path&gt;" class="shp10" d="M364.96 465.64L274.55 465.64C261.04 465.64 250.09 454.68 250.09 441.17L250.09 382.27L389.42 382.27L389.42 441.17C389.42 454.68 378.47 465.64 364.96 465.64Z"/>
										</g>
										<path id="&lt;Path&gt;" class="shp11" d="M390.05 383.99L248.99 383.99L248.99 381.07L390.05 381.07L390.05 383.99Z"/>
									</g>
								</g>
							</g>
						</g>
						<g id="&lt;Group&gt;">
							<g id="&lt;Group&gt;">
								<g id="&lt;Group&gt;">
									<path id="&lt;Path&gt;" class="shp12" d="M127.49 348.65L185.16 348.65L185.16 460.22L127.49 460.22L127.49 348.65Z"/>
									<path id="&lt;Path&gt;" class="shp13" d="M181.29 457.41L131.37 457.41L131.37 383.95L181.29 383.95L181.29 457.41Z"/>
									<g id="&lt;Group&gt;">
										<path id="&lt;Path&gt;" class="shp14" d="M134.36 421.32L177.8 364.55"/>
										<path id="&lt;Path&gt;" class="shp14" d="M134.52 409.48L172.53 358.47"/>
									</g>
								</g>
								<g id="&lt;Group&gt;">
									<g id="&lt;Group&gt;">
										<path id="&lt;Path&gt;" class="shp15" d="M123.75 375.46C118.71 365.35 115.22 356.04 113.27 347.53C111.56 340.07 103.8 306.93 101.06 310.97C98.31 315.02 104.04 333.99 106.74 342.63C108.2 347.27 111.37 356.52 116.26 370.38C102 342.36 92.7 328.06 88.36 327.47C81.86 326.6 92.86 342.66 95.07 345.93C102.43 356.84 107.34 363.93 113.8 372.25C83.55 342.83 66.84 330.29 63.68 334.65C58.95 341.18 80.94 350.37 91.21 357.96C96.45 361.83 104.74 368.47 116.07 377.87C114.45 375.15 110.72 371.87 104.86 368.04C91.64 359.38 68.61 348.87 67.25 353.33C65.4 359.37 78.3 361.43 89.31 365.66C105.67 371.95 114.8 377.95 116.69 383.67L123.75 375.46Z"/>
										<g id="&lt;Group&gt;">
											<path id="&lt;Path&gt;" class="shp16" d="M132.94 376.03C128.77 370.13 123.23 369.62 116.33 374.5C105.98 381.83 112.55 394.93 115.74 398.53C118.92 402.13 147.86 432.04 151.73 439.35C155.6 446.66 168.59 466.14 172.81 464.62C177.02 463.1 173.82 458.02 172.09 445.31C170.37 432.61 164.47 418.66 156.8 409.25C151.69 402.97 143.74 391.9 132.94 376.03Z"/>
											<g id="&lt;Group&gt;">
												<g id="&lt;Group&gt;">
													<g id="&lt;Group&gt;">
														<path id="&lt;Path&gt;" class="shp17" d="M137.08 383.39C135.68 383.6 134.23 384.48 133.04 385.22C131.83 385.97 130.67 386.81 129.5 387.63C127.29 389.15 124.94 390.64 122.22 390.97C121.45 391.07 120.79 391.56 120.79 392.4C120.79 393.1 121.45 393.92 122.22 393.83C125.3 393.45 127.94 392.12 130.47 390.37C131.64 389.55 132.79 388.7 133.98 387.92C134.61 387.51 135.25 387.13 135.9 386.76C136.59 386.36 137.36 386.07 138.03 385.64C139.26 384.84 138.42 383.19 137.08 383.39Z"/>
													</g>
												</g>
												<g id="&lt;Group&gt;">
													<g id="&lt;Group&gt;">
														<path id="&lt;Path&gt;" class="shp17" d="M146.62 396.07C145.95 395.99 145.26 396.38 144.68 396.68C144.13 396.97 143.6 397.28 143.06 397.6C142.06 398.2 141.06 398.79 140.07 399.41C138.01 400.68 135.95 401.96 133.89 403.24C132.33 404.21 133.77 406.7 135.34 405.71C137.42 404.41 139.5 403.1 141.59 401.8C142.57 401.18 143.55 400.54 144.53 399.9C145.55 399.23 147.09 398.46 147.51 397.24C147.72 396.61 147.17 396.14 146.62 396.07Z"/>
													</g>
												</g>
												<g id="&lt;Group&gt;">
													<g id="&lt;Group&gt;">
														<path id="&lt;Path&gt;" class="shp17" d="M157.16 411.27C155.18 412.41 153.33 413.77 151.45 415.06C150.49 415.71 149.54 416.35 148.59 417.01C147.63 417.67 146.54 418.29 145.72 419.13C144.59 420.26 146.01 421.94 147.36 421.26C148.34 420.78 149.21 420.02 150.1 419.39C151.07 418.71 152.04 418.04 153.02 417.36C154.93 416.03 156.91 414.76 158.65 413.2C159.71 412.25 158.36 410.59 157.16 411.27Z"/>
													</g>
												</g>
												<g id="&lt;Group&gt;">
													<g id="&lt;Group&gt;">
														<path id="&lt;Path&gt;" class="shp17" d="M167.16 430.25C166.24 430.46 165.41 431.11 164.62 431.6C163.88 432.05 163.17 432.52 162.45 432.99C161.75 433.44 161.05 433.9 160.35 434.35C159.51 434.89 158.6 435.39 157.84 436.04C157.32 436.49 157.34 437.36 157.74 437.86C158.18 438.43 158.89 438.53 159.52 438.22C160.33 437.83 161.08 437.22 161.83 436.72C162.54 436.25 163.25 435.77 163.97 435.29C164.66 434.83 165.36 434.37 166.04 433.89C166.89 433.3 167.83 432.76 168.44 431.92C168.71 431.56 168.61 430.98 168.36 430.65C168.06 430.29 167.62 430.14 167.16 430.25Z"/>
													</g>
												</g>
											</g>
										</g>
									</g>
									<g id="&lt;Group&gt;">
										<g id="&lt;Group&gt;">
											<path id="&lt;Path&gt;" class="shp18" d="M190.85 465.2C216.5 439.55 220.77 425.66 203.67 423.53C186.58 421.39 173.76 428.16 165.21 443.83C183.73 418.9 184.8 405.01 168.41 402.16C152.03 399.31 145.26 421.75 148.11 469.47L190.85 465.2Z"/>
											<path id="&lt;Path&gt;" class="shp19" d="M148.72 461.99C156.55 415.69 150.85 393.25 131.62 394.68C112.39 396.1 105.62 407.14 111.32 427.8C104.91 400.02 95.65 389.69 83.54 396.81C71.43 403.94 74.28 418.54 92.09 440.62C67.87 429.23 57.54 428.51 61.1 438.49C64.66 448.46 76.77 458.79 97.43 469.47L148.72 461.99Z"/>
										</g>
										<path id="&lt;Path&gt;" class="shp20" d="M99.15 479.67L181.82 479.67C193.71 479.67 203.35 470.03 203.35 458.14L77.62 458.14C77.62 470.03 87.26 479.67 99.15 479.67Z"/>
									</g>
								</g>
							</g>
						</g>
					</g>
				</g>
			</g>
		</g>
	</g>
</svg>
